<?xml version="1.0" encoding="utf-8"?>
<!-- Generator: Adobe Illustrator 17.1.0, SVG Export Plug-In . SVG Version: 6.00 Build 0)  -->
<!DOCTYPE svg PUBLIC "-//W3C//DTD SVG 1.1//EN" "http://www.w3.org/Graphics/SVG/1.1/DTD/svg11.dtd">
<svg version="1.1" xmlns="http://www.w3.org/2000/svg" xmlns:xlink="http://www.w3.org/1999/xlink" x="0px" y="0px"
	 viewBox="0 0 650 180" enable-background="new 0 0 650 180" xml:space="preserve">
<g id="Layer_3">
	<rect x="340" y="-187" fill="#3983AA" width="123" height="110"/>
</g>
<g id="Layer_2">
	<polyline fill="none" stroke="#B3E3CB" stroke-width="3" stroke-miterlimit="10" stroke-dasharray="6,4" points="-490.639,67.584 
		-442.203,6.309 -383.129,100.536 -366.551,209.158 -255.884,124.754 -308.421,21.914 -185.564,4.386 -115.466,11.748 -37.389,-3.5 
		5,-3.5 	"/>
	
		<line fill="none" stroke="#B3E3CB" stroke-width="3" stroke-miterlimit="10" stroke-dasharray="6,4" x1="-513" y1="0.5" x2="-458" y2="0.5"/>
	<polyline fill="none" stroke="#B3E3CB" stroke-width="3" stroke-miterlimit="10" stroke-dasharray="6,4" points="-379.053,10.628 
		-464.743,144.47 -471.957,212.5 -528,212.5 	"/>
	
		<line fill="none" stroke="#B3E3CB" stroke-width="3" stroke-miterlimit="10" stroke-dasharray="6,4" x1="26" y1="207.5" x2="-24" y2="207.5"/>
	<path fill="none" stroke="#B3E3CB" stroke-width="3" stroke-miterlimit="10" stroke-dasharray="6,4" d="M-37.389,207.854
		c-6.031,3.088-89.663,5.758-89.663,5.758l-58.515-30.177l62.554-39.989l7.548-131.468"/>
	<path fill="none" stroke="#B3E3CB" stroke-width="3" stroke-miterlimit="10" stroke-dasharray="6,4" d="M-458.246,141.115
		c6.552-2.004,144.431-39.253,144.431-39.253l64.201,97.834l64.046-23.865"/>
	<polyline fill="none" stroke="#B3E3CB" stroke-width="3" stroke-miterlimit="10" stroke-dasharray="6,4" points="-174.904,67.736 
		-53.581,87.684 -43.5,204.456 	"/>
	
		<line fill="none" stroke="#B3E3CB" stroke-width="3" stroke-miterlimit="10" stroke-dasharray="6,4" x1="-8" y1="78.5" x2="-60" y2="78.5"/>
</g>
<g id="Layer_1">
	<g>
		<g>
			
				<line fill="none" stroke="#B3E3CB" stroke-width="3" stroke-miterlimit="10" x1="-1134" y1="611.182" x2="-1131.02" y2="611.524"/>
			<polyline fill="none" stroke="#B3E3CB" stroke-width="3" stroke-miterlimit="10" stroke-dasharray="6.0228,4.0152" points="
				-1127.031,611.983 -1044.128,621.509 -982.526,644.476 -825.903,677.075 			"/>
			
				<line fill="none" stroke="#B3E3CB" stroke-width="3" stroke-miterlimit="10" x1="-823.937" y1="677.484" x2="-821" y2="678.095"/>
		</g>
	</g>
	<path fill="none" stroke="#B3E3CB" stroke-width="3" stroke-miterlimit="10" stroke-dasharray="6,4" d="M-489.498,598.044
		l-94.596,55.823l-108.048-7.167L-814,678.095l48.173-103.536l98.118-35.969l65.714-30.279l64.014,22.087l-84.349,74.58
		c0,0,129.765-11.243,123.331-13.111c-6.435-1.868-43-65.198-43-65.198"/>
	
		<line fill="none" stroke="#B3E3CB" stroke-width="3" stroke-miterlimit="10" stroke-dasharray="6,4" x1="-631.953" y1="607.706" x2="-692.141" y2="646.7"/>
	<polyline fill="none" stroke="#B3E3CB" stroke-width="3" stroke-miterlimit="10" stroke-dasharray="6,4" points="-915.065,515.228 
		-841.008,669.986 -847.022,508.547 -771.411,501.882 -841.008,683 -920,577.612 -1044.128,546.329 -1103.294,511.918 
		-982.526,496.873 -1041.162,550.058 	"/>
	<g>
		<g>
			<path fill="#3983AA" d="M-892.309,521.641c0,3.702-2.879,6.742-6.386,6.742h-34.668c-3.506,0-6.386-3.04-6.386-6.742v-28.897
				c0-3.702,2.879-6.742,6.386-6.742h9.124c3.506,0,6.386,3.04,6.386,6.742v0.964h19.159c3.506,0,6.386,3.04,6.386,6.742V521.641z"
				/>
		</g>
		<path fill="#FFFFFF" stroke="#231F20" stroke-width="2.4666" stroke-miterlimit="10" d="M-926.675,475.382h22.717
			c2.922,0,5.291,2.369,5.291,5.291v32.695h-33.299v-32.695C-931.966,477.751-929.597,475.382-926.675,475.382z"/>
		<g>
			<path fill="#4CAEE2" d="M-892.309,521.997c0,3.506-2.879,6.386-6.386,6.386h-34.668c-3.506,0-6.386-2.879-6.386-6.386v-27.37
				c0-3.506,2.879-6.386,6.386-6.386h9.124c3.506,0,6.386,2.879,6.386,6.386v0.913h19.159c3.506,0,6.386,2.879,6.386,6.386V521.997z
				"/>
		</g>
	</g>
	<g>
		<g>
			<path fill="#3983AA" d="M-418.589,19.827c0,3.702-2.879,6.742-6.386,6.742h-34.668c-3.506,0-6.386-3.04-6.386-6.742V-9.069
				c0-3.702,2.879-6.742,6.386-6.742h9.124c3.506,0,6.386,3.04,6.386,6.742v0.964h19.159c3.506,0,6.386,3.04,6.386,6.742V19.827z"/>
		</g>
		<path fill="#FFFFFF" stroke="#231F20" stroke-width="2.4666" stroke-miterlimit="10" d="M-452.955-26.431h22.717
			c2.922,0,5.291,2.369,5.291,5.291v32.695h-33.299V-21.14C-458.246-24.062-455.877-26.431-452.955-26.431z"/>
		<g>
			<path fill="#4CAEE2" d="M-418.589,20.183c0,3.506-2.879,6.386-6.386,6.386h-34.668c-3.506,0-6.386-2.879-6.386-6.386v-27.37
				c0-3.506,2.879-6.386,6.386-6.386h9.124c3.506,0,6.386,2.879,6.386,6.386v0.913h19.159c3.506,0,6.386,2.879,6.386,6.386V20.183z"
				/>
		</g>
	</g>
	<g>
		<g>
			<path fill="#3983AA" d="M-19.808,219.214c0,3.702-2.879,6.742-6.386,6.742h-34.668c-3.506,0-6.386-3.04-6.386-6.742v-28.897
				c0-3.702,2.879-6.742,6.386-6.742h9.124c3.506,0,6.386,3.04,6.386,6.742v0.964h19.159c3.506,0,6.386,3.04,6.386,6.742V219.214z"
				/>
		</g>
		<path fill="#FFFFFF" stroke="#231F20" stroke-width="2.4666" stroke-miterlimit="10" d="M-54.174,172.956h22.717
			c2.922,0,5.291,2.369,5.291,5.291v32.695h-33.299v-32.695C-59.465,175.325-57.096,172.956-54.174,172.956z"/>
		<g>
			<path fill="#4CAEE2" d="M-19.808,219.57c0,3.506-2.879,6.386-6.386,6.386h-34.668c-3.506,0-6.386-2.879-6.386-6.386V192.2
				c0-3.506,2.879-6.386,6.386-6.386h9.124c3.506,0,6.386,2.879,6.386,6.386v0.913h19.159c3.506,0,6.386,2.879,6.386,6.386V219.57z"
				/>
		</g>
	</g>
	<g>
		<g>
			<path fill="#3983AA" d="M-223.495,131.521c0,3.702-2.879,6.742-6.386,6.742h-34.668c-3.506,0-6.386-3.04-6.386-6.742v-28.897
				c0-3.702,2.879-6.742,6.386-6.742h9.124c3.506,0,6.386,3.04,6.386,6.742v0.964h19.159c3.506,0,6.386,3.04,6.386,6.742V131.521z"
				/>
		</g>
		<path fill="#FFFFFF" stroke="#231F20" stroke-width="2.4666" stroke-miterlimit="10" d="M-257.861,85.263h22.717
			c2.922,0,5.291,2.369,5.291,5.291v32.695h-33.299V90.554C-263.152,87.632-260.783,85.263-257.861,85.263z"/>
		<g>
			<path fill="#4CAEE2" d="M-223.495,131.877c0,3.506-2.879,6.386-6.386,6.386h-34.668c-3.506,0-6.386-2.879-6.386-6.386v-27.37
				c0-3.506,2.879-6.386,6.386-6.386h9.124c3.506,0,6.386,2.879,6.386,6.386v0.913h19.159c3.506,0,6.386,2.879,6.386,6.386V131.877z
				"/>
		</g>
	</g>
	<g>
		<g>
			<path fill="#3983AA" d="M-162.56,12.32c0,3.702-2.879,6.742-6.386,6.742h-34.668c-3.506,0-6.386-3.04-6.386-6.742v-28.897
				c0-3.702,2.879-6.742,6.386-6.742h9.124c3.506,0,6.386,3.04,6.386,6.742v0.964h19.159c3.506,0,6.386,3.04,6.386,6.742V12.32z"/>
		</g>
		<path fill="#FFFFFF" stroke="#231F20" stroke-width="2.4666" stroke-miterlimit="10" d="M-196.926-33.938h22.717
			c2.922,0,5.291,2.369,5.291,5.291V4.048h-33.299v-32.695C-202.217-31.569-199.849-33.938-196.926-33.938z"/>
		<g>
			<path fill="#4CAEE2" d="M-162.56,12.676c0,3.506-2.879,6.386-6.386,6.386h-34.668c-3.506,0-6.386-2.879-6.386-6.386v-27.37
				c0-3.506,2.879-6.386,6.386-6.386h9.124c3.506,0,6.386,2.879,6.386,6.386v0.913h19.159c3.506,0,6.386,2.879,6.386,6.386V12.676z"
				/>
		</g>
	</g>
	<g>
		<g>
			<path fill="#3983AA" d="M-342.857,210.7c0,3.702-2.879,6.742-6.386,6.742h-34.668c-3.506,0-6.386-3.04-6.386-6.742v-28.897
				c0-3.702,2.879-6.742,6.386-6.742h9.124c3.506,0,6.386,3.04,6.386,6.742v0.964h19.159c3.506,0,6.386,3.04,6.386,6.742V210.7z"/>
		</g>
		<path fill="#FFFFFF" stroke="#231F20" stroke-width="2.4666" stroke-miterlimit="10" d="M-377.223,164.442h22.717
			c2.922,0,5.291,2.369,5.291,5.291v32.695h-33.299v-32.695C-382.515,166.811-380.146,164.442-377.223,164.442z"/>
		<g>
			<path fill="#4CAEE2" d="M-342.857,211.056c0,3.506-2.879,6.386-6.386,6.386h-34.668c-3.506,0-6.386-2.879-6.386-6.386v-27.37
				c0-3.506,2.879-6.386,6.386-6.386h9.124c3.506,0,6.386,2.879,6.386,6.386v0.913h19.159c3.506,0,6.386,2.879,6.386,6.386V211.056z
				"/>
		</g>
	</g>
	<g>
		<g>
			<path fill="#3983AA" d="M-668.673,657.805c0,3.702-2.879,6.742-6.386,6.742h-34.668c-3.506,0-6.386-3.04-6.386-6.742v-28.897
				c0-3.702,2.879-6.742,6.386-6.742h9.124c3.506,0,6.386,3.04,6.386,6.742v0.964h19.159c3.506,0,6.386,3.04,6.386,6.742V657.805z"
				/>
		</g>
		<path fill="#FFFFFF" stroke="#231F20" stroke-width="2.4666" stroke-miterlimit="10" d="M-703.039,611.547h22.717
			c2.922,0,5.291,2.369,5.291,5.291v32.695h-33.299v-32.695C-708.33,613.916-705.961,611.547-703.039,611.547z"/>
		<g>
			<path fill="#4CAEE2" d="M-668.673,658.161c0,3.506-2.879,6.386-6.386,6.386h-34.668c-3.506,0-6.386-2.879-6.386-6.386v-27.37
				c0-3.506,2.879-6.386,6.386-6.386h9.124c3.506,0,6.386,2.879,6.386,6.386v0.913h19.159c3.506,0,6.386,2.879,6.386,6.386V658.161z
				"/>
		</g>
	</g>
	<g>
		<g>
			<path fill="#3983AA" d="M-961.889,653.964c0,3.702-2.879,6.742-6.386,6.742h-34.668c-3.506,0-6.386-3.04-6.386-6.742v-28.897
				c0-3.702,2.879-6.742,6.386-6.742h9.124c3.506,0,6.386,3.04,6.386,6.742v0.964h19.159c3.506,0,6.386,3.04,6.386,6.742V653.964z"
				/>
		</g>
		<path fill="#FFFFFF" stroke="#231F20" stroke-width="2.4666" stroke-miterlimit="10" d="M-996.255,607.706h22.717
			c2.922,0,5.291,2.369,5.291,5.291v32.695h-33.299v-32.695C-1001.546,610.075-999.177,607.706-996.255,607.706z"/>
		<g>
			<path fill="#4CAEE2" d="M-961.889,654.32c0,3.506-2.879,6.386-6.386,6.386h-34.668c-3.506,0-6.386-2.879-6.386-6.386v-27.37
				c0-3.506,2.879-6.386,6.386-6.386h9.124c3.506,0,6.386,2.879,6.386,6.386v0.913h19.159c3.506,0,6.386,2.879,6.386,6.386V654.32z"
				/>
		</g>
	</g>
	<g>
		<g>
			<path fill="#3983AA" d="M-1117.531,619.957c0,3.702-2.879,6.742-6.386,6.742h-34.668c-3.506,0-6.386-3.04-6.386-6.742v-28.897
				c0-3.702,2.879-6.742,6.386-6.742h9.124c3.506,0,6.386,3.04,6.386,6.742v0.964h19.159c3.506,0,6.386,3.04,6.386,6.742V619.957z"
				/>
		</g>
		<path fill="#FFFFFF" stroke="#231F20" stroke-width="2.4666" stroke-miterlimit="10" d="M-1151.897,573.699h22.717
			c2.922,0,5.291,2.369,5.291,5.291v32.695h-33.299V578.99C-1157.188,576.068-1154.82,573.699-1151.897,573.699z"/>
		<g>
			<path fill="#4CAEE2" d="M-1117.531,620.313c0,3.506-2.879,6.386-6.386,6.386h-34.668c-3.506,0-6.386-2.879-6.386-6.386v-27.37
				c0-3.506,2.879-6.386,6.386-6.386h9.124c3.506,0,6.386,2.879,6.386,6.386v0.913h19.159c3.506,0,6.386,2.879,6.386,6.386V620.313z
				"/>
		</g>
	</g>
	<g>
		<g>
			<path fill="#3983AA" d="M-466.029,606.316c0,3.702-2.879,6.742-6.386,6.742h-34.668c-3.506,0-6.386-3.04-6.386-6.742v-28.897
				c0-3.702,2.879-6.742,6.386-6.742h9.124c3.506,0,6.386,3.04,6.386,6.742v0.964h19.159c3.506,0,6.386,3.04,6.386,6.742V606.316z"
				/>
		</g>
		<path fill="#FFFFFF" stroke="#231F20" stroke-width="2.4666" stroke-miterlimit="10" d="M-500.395,560.058h22.717
			c2.922,0,5.291,2.369,5.291,5.291v32.695h-33.299v-32.695C-505.686,562.427-503.317,560.058-500.395,560.058z"/>
		<g>
			<path fill="#4CAEE2" d="M-466.029,606.672c0,3.506-2.879,6.386-6.386,6.386h-34.668c-3.506,0-6.386-2.879-6.386-6.386v-27.37
				c0-3.506,2.879-6.386,6.386-6.386h9.124c3.506,0,6.386,2.879,6.386,6.386v0.913h19.159c3.506,0,6.386,2.879,6.386,6.386V606.672z
				"/>
		</g>
	</g>
	<g>
		<g>
			<path fill="#B12F62" d="M-219.267,726.832c0,5.937-4.618,10.812-10.241,10.812h-55.6c-5.623,0-10.241-4.875-10.241-10.812
				v-46.344c0-5.937,4.618-10.812,10.241-10.812h14.633c5.623,0,10.241,4.875,10.241,10.812v1.546h30.726
				c5.623,0,10.241,4.875,10.241,10.812V726.832z"/>
		</g>
		<path fill="#FFFFFF" stroke="#231F20" stroke-width="3.9559" stroke-miterlimit="10" d="M-274.382,652.644h36.433
			c4.687,0,8.486,3.799,8.486,8.486v52.435h-53.405V661.13C-282.868,656.443-279.069,652.644-274.382,652.644z"/>
		<g>
			<path fill="#EC3E82" d="M-219.267,727.403c0,5.623-4.618,10.241-10.241,10.241h-55.6c-5.623,0-10.241-4.618-10.241-10.241
				v-43.895c0-5.623,4.618-10.241,10.241-10.241h14.633c5.623,0,10.241,4.618,10.241,10.241v1.464h30.726
				c5.623,0,10.241,4.618,10.241,10.241V727.403z"/>
		</g>
	</g>
	<g>
		<g>
			<path fill="#3983AA" d="M-368.86,108.679c0,2.235-1.739,4.071-3.855,4.071h-20.932c-2.117,0-3.855-1.835-3.855-4.071V91.232
				c0-2.235,1.738-4.071,3.855-4.071h5.509c2.117,0,3.855,1.835,3.855,4.071v0.582h11.568c2.117,0,3.855,1.835,3.855,4.071V108.679z
				"/>
		</g>
		<path fill="#FFFFFF" stroke="#231F20" stroke-width="1.4893" stroke-miterlimit="10" d="M-389.61,80.749h13.716
			c1.764,0,3.195,1.43,3.195,3.195v19.74h-20.105v-19.74C-392.804,82.179-391.374,80.749-389.61,80.749z"/>
		<g>
			<path fill="#4CAEE2" d="M-368.86,108.894c0,2.117-1.739,3.855-3.855,3.855h-20.932c-2.117,0-3.855-1.739-3.855-3.855V92.368
				c0-2.117,1.738-3.855,3.855-3.855h5.509c2.117,0,3.855,1.739,3.855,3.855v0.551h11.568c2.117,0,3.855,1.739,3.855,3.855V108.894z
				"/>
		</g>
	</g>
	<g>
		<g>
			<path fill="#3983AA" d="M-28.494,330.354c0,2.235-1.739,4.071-3.855,4.071h-20.932c-2.117,0-3.855-1.835-3.855-4.071v-17.447
				c0-2.235,1.739-4.071,3.855-4.071h5.509c2.117,0,3.855,1.835,3.855,4.071v0.582h11.568c2.117,0,3.855,1.835,3.855,4.071V330.354z
				"/>
		</g>
		<path fill="#FFFFFF" stroke="#231F20" stroke-width="1.4893" stroke-miterlimit="10" d="M-132.379,201.442h13.716
			c1.764,0,3.195,1.43,3.195,3.195v19.74h-20.105v-19.74C-135.573,202.872-134.143,201.442-132.379,201.442z"/>
		<g>
			<path fill="#4CAEE2" d="M-105.293,298.888c0,2.117-1.739,3.855-3.855,3.855h-20.932c-2.117,0-3.855-1.739-3.855-3.855v-16.525
				c0-2.117,1.739-3.855,3.855-3.855h5.509c2.117,0,3.855,1.738,3.855,3.855v0.551h11.568c2.117,0,3.855,1.738,3.855,3.855V298.888z
				"/>
		</g>
	</g>
	<g>
		<g>
			<path fill="#3983AA" d="M-45.144,95.91c0,2.235-1.739,4.071-3.855,4.071h-20.932c-2.117,0-3.855-1.835-3.855-4.071V78.463
				c0-2.235,1.739-4.071,3.855-4.071h5.509c2.117,0,3.855,1.835,3.855,4.071v0.582h11.568c2.117,0,3.855,1.835,3.855,4.071V95.91z"
				/>
		</g>
		<path fill="#FFFFFF" stroke="#231F20" stroke-width="1.4893" stroke-miterlimit="10" d="M-65.893,67.98h13.716
			c1.764,0,3.195,1.43,3.195,3.195v19.74h-20.105v-19.74C-69.088,69.411-67.657,67.98-65.893,67.98z"/>
		<g>
			<path fill="#4CAEE2" d="M-45.144,96.125c0,2.117-1.739,3.855-3.855,3.855h-20.932c-2.117,0-3.855-1.739-3.855-3.855V79.6
				c0-2.117,1.739-3.855,3.855-3.855h5.509c2.117,0,3.855,1.739,3.855,3.855v0.551h11.568c2.117,0,3.855,1.739,3.855,3.855V96.125z"
				/>
		</g>
	</g>
	<g>
		<g>
			<path fill="#3983AA" d="M-284.484,26.921c0,2.235-1.738,4.071-3.855,4.071h-20.932c-2.117,0-3.855-1.835-3.855-4.071V9.474
				c0-2.235,1.739-4.071,3.855-4.071h5.509c2.117,0,3.855,1.835,3.855,4.071v0.582h11.568c2.117,0,3.855,1.835,3.855,4.071V26.921z"
				/>
		</g>
		<path fill="#FFFFFF" stroke="#231F20" stroke-width="1.4893" stroke-miterlimit="10" d="M-305.233-1.009h13.716
			c1.764,0,3.195,1.43,3.195,3.195v19.74h-20.105V2.186C-308.428,0.422-306.997-1.009-305.233-1.009z"/>
		<g>
			<path fill="#4CAEE2" d="M-284.484,27.136c0,2.117-1.738,3.855-3.855,3.855h-20.932c-2.117,0-3.855-1.739-3.855-3.855V10.611
				c0-2.117,1.739-3.855,3.855-3.855h5.509c2.117,0,3.855,1.739,3.855,3.855v0.551h11.568c2.117,0,3.855,1.739,3.855,3.855V27.136z"
				/>
		</g>
	</g>
	<g>
		<g>
			<path fill="#3983AA" d="M-475.427,83.723c0,2.235-1.739,4.071-3.855,4.071h-20.932c-2.117,0-3.855-1.835-3.855-4.071V66.276
				c0-2.235,1.738-4.071,3.855-4.071h5.509c2.117,0,3.855,1.835,3.855,4.071v0.582h11.568c2.117,0,3.855,1.835,3.855,4.071V83.723z"
				/>
		</g>
		<path fill="#FFFFFF" stroke="#231F20" stroke-width="1.4893" stroke-miterlimit="10" d="M-496.177,55.793h13.716
			c1.764,0,3.195,1.43,3.195,3.195v19.74h-20.105v-19.74C-499.371,57.223-497.941,55.793-496.177,55.793z"/>
		<g>
			<path fill="#4CAEE2" d="M-475.427,83.938c0,2.117-1.739,3.855-3.855,3.855h-20.932c-2.117,0-3.855-1.739-3.855-3.855V67.412
				c0-2.117,1.738-3.855,3.855-3.855h5.509c2.117,0,3.855,1.739,3.855,3.855v0.551h11.568c2.117,0,3.855,1.739,3.855,3.855V83.938z"
				/>
		</g>
	</g>
	<g>
		<g>
			<path fill="#3983AA" d="M-171.959,183.878c0,2.235-1.739,4.071-3.855,4.071h-20.932c-2.117,0-3.855-1.835-3.855-4.071v-17.447
				c0-2.235,1.739-4.071,3.855-4.071h5.509c2.117,0,3.855,1.835,3.855,4.071v0.582h11.568c2.117,0,3.855,1.835,3.855,4.071V183.878z
				"/>
		</g>
		<path fill="#FFFFFF" stroke="#231F20" stroke-width="1.4893" stroke-miterlimit="10" d="M-192.708,155.949h13.716
			c1.764,0,3.195,1.43,3.195,3.195v19.74h-20.105v-19.74C-195.903,157.379-194.472,155.949-192.708,155.949z"/>
		<g>
			<path fill="#4CAEE2" d="M-171.959,184.094c0,2.117-1.739,3.855-3.855,3.855h-20.932c-2.117,0-3.855-1.739-3.855-3.855v-16.525
				c0-2.117,1.739-3.855,3.855-3.855h5.509c2.117,0,3.855,1.739,3.855,3.855v0.551h11.568c2.117,0,3.855,1.739,3.855,3.855V184.094z
				"/>
		</g>
	</g>
	<g>
		<g>
			<path fill="#3983AA" d="M-458.065,222.305c0,2.235-1.739,4.071-3.855,4.071h-20.932c-2.117,0-3.855-1.835-3.855-4.071v-17.447
				c0-2.235,1.739-4.071,3.855-4.071h5.509c2.117,0,3.855,1.835,3.855,4.071v0.582h11.568c2.117,0,3.855,1.835,3.855,4.071V222.305z
				"/>
		</g>
		<path fill="#FFFFFF" stroke="#231F20" stroke-width="1.4893" stroke-miterlimit="10" d="M-478.815,194.376h13.716
			c1.764,0,3.195,1.43,3.195,3.195v19.74h-20.105v-19.74C-482.009,195.806-480.579,194.376-478.815,194.376z"/>
		<g>
			<path fill="#4CAEE2" d="M-458.065,222.52c0,2.117-1.739,3.855-3.855,3.855h-20.932c-2.117,0-3.855-1.739-3.855-3.855v-16.525
				c0-2.117,1.739-3.855,3.855-3.855h5.509c2.117,0,3.855,1.739,3.855,3.855v0.551h11.568c2.117,0,3.855,1.739,3.855,3.855V222.52z"
				/>
		</g>
	</g>
	<g>
		<g>
			<path fill="#3983AA" d="M-95.773,20.854c0,2.235-1.739,4.071-3.855,4.071h-20.932c-2.117,0-3.855-1.835-3.855-4.071V3.407
				c0-2.235,1.739-4.071,3.855-4.071h5.509c2.117,0,3.855,1.835,3.855,4.071v0.582h11.568c2.117,0,3.855,1.835,3.855,4.071V20.854z"
				/>
		</g>
		<path fill="#FFFFFF" stroke="#231F20" stroke-width="1.4893" stroke-miterlimit="10" d="M-116.523-7.075h13.716
			c1.764,0,3.195,1.43,3.195,3.195v19.74h-20.105v-19.74C-119.717-5.645-118.287-7.075-116.523-7.075z"/>
		<g>
			<path fill="#4CAEE2" d="M-95.773,21.069c0,2.117-1.739,3.855-3.855,3.855h-20.932c-2.117,0-3.855-1.739-3.855-3.855V4.544
				c0-2.117,1.739-3.855,3.855-3.855h5.509c2.117,0,3.855,1.739,3.855,3.855v0.551h11.568c2.117,0,3.855,1.739,3.855,3.855V21.069z"
				/>
		</g>
	</g>
	<g>
		<g>
			<path fill="#3983AA" d="M-608.26,609.973c0,2.235-1.738,4.07-3.855,4.07h-20.932c-2.117,0-3.856-1.835-3.856-4.07v-17.447
				c0-2.235,1.739-4.071,3.856-4.071h5.509c2.117,0,3.855,1.836,3.855,4.071v0.582h11.568c2.117,0,3.855,1.835,3.855,4.07V609.973z"
				/>
		</g>
		<path fill="#FFFFFF" stroke="#231F20" stroke-width="1.4893" stroke-miterlimit="10" d="M-629.01,582.044h13.716
			c1.764,0,3.195,1.43,3.195,3.195v19.74h-20.105v-19.74C-632.204,583.474-630.774,582.044-629.01,582.044z"/>
		<g>
			<path fill="#4CAEE2" d="M-608.26,610.188c0,2.117-1.738,3.855-3.855,3.855h-20.932c-2.117,0-3.856-1.738-3.856-3.855v-16.525
				c0-2.117,1.739-3.855,3.856-3.855h5.509c2.117,0,3.855,1.739,3.855,3.855v0.551h11.568c2.117,0,3.855,1.739,3.855,3.856V610.188z
				"/>
		</g>
	</g>
	<g>
		<g>
			<path fill="#3983AA" d="M-757.128,576.854c0,1.397-1.087,2.544-2.41,2.544h-13.082c-1.323,0-2.41-1.147-2.41-2.544V565.95
				c0-1.397,1.087-2.544,2.41-2.544h3.443c1.323,0,2.41,1.147,2.41,2.544v0.364h7.23c1.323,0,2.41,1.147,2.41,2.544V576.854z"/>
		</g>
		<path fill="#FFFFFF" stroke="#231F20" stroke-width="0.9308" stroke-miterlimit="10" d="M-770.096,559.398h8.573
			c1.103,0,1.997,0.894,1.997,1.997v12.338h-12.566v-12.338C-772.092,560.292-771.198,559.398-770.096,559.398z"/>
		<g>
			<path fill="#4CAEE2" d="M-757.128,576.988c0,1.323-1.087,2.41-2.41,2.41h-13.082c-1.323,0-2.41-1.087-2.41-2.41V566.66
				c0-1.323,1.087-2.41,2.41-2.41h3.443c1.323,0,2.41,1.087,2.41,2.41v0.344h7.23c1.323,0,2.41,1.087,2.41,2.41V576.988z"/>
		</g>
	</g>
	<g>
		<g>
			<path fill="#3983AA" d="M-449.295,142.233c0,1.397-1.087,2.544-2.41,2.544h-13.082c-1.323,0-2.41-1.147-2.41-2.544v-10.904
				c0-1.397,1.087-2.544,2.41-2.544h3.443c1.323,0,2.41,1.147,2.41,2.544v0.364h7.23c1.323,0,2.41,1.147,2.41,2.544V142.233z"/>
		</g>
		<path fill="#FFFFFF" stroke="#231F20" stroke-width="0.9308" stroke-miterlimit="10" d="M-462.264,124.777h8.573
			c1.103,0,1.997,0.894,1.997,1.997v12.338h-12.566v-12.338C-464.26,125.671-463.366,124.777-462.264,124.777z"/>
		<g>
			<path fill="#4CAEE2" d="M-449.295,142.368c0,1.323-1.087,2.41-2.41,2.41h-13.082c-1.323,0-2.41-1.087-2.41-2.41v-10.328
				c0-1.323,1.087-2.41,2.41-2.41h3.443c1.323,0,2.41,1.087,2.41,2.41v0.344h7.23c1.323,0,2.41,1.087,2.41,2.41V142.368z"/>
		</g>
	</g>
	<g>
		<g>
			<path fill="#3983AA" d="M-247.215,202.818c0,1.397-1.087,2.544-2.41,2.544h-13.082c-1.323,0-2.41-1.147-2.41-2.544v-10.904
				c0-1.397,1.087-2.544,2.41-2.544h3.443c1.323,0,2.41,1.147,2.41,2.544v0.364h7.23c1.323,0,2.41,1.147,2.41,2.544V202.818z"/>
		</g>
		<path fill="#FFFFFF" stroke="#231F20" stroke-width="0.9308" stroke-miterlimit="10" d="M-260.183,185.362h8.573
			c1.103,0,1.997,0.894,1.997,1.997v12.338h-12.566v-12.338C-262.18,186.256-261.286,185.362-260.183,185.362z"/>
		<g>
			<path fill="#4CAEE2" d="M-247.215,202.952c0,1.323-1.087,2.41-2.41,2.41h-13.082c-1.323,0-2.41-1.087-2.41-2.41v-10.328
				c0-1.323,1.087-2.41,2.41-2.41h3.443c1.323,0,2.41,1.087,2.41,2.41v0.344h7.23c1.323,0,2.41,1.087,2.41,2.41V202.952z"/>
		</g>
	</g>
	<g>
		<g>
			<path fill="#3983AA" d="M-108.049,146.568c0,1.397-1.087,2.544-2.41,2.544h-13.082c-1.323,0-2.41-1.147-2.41-2.544v-10.904
				c0-1.397,1.087-2.544,2.41-2.544h3.443c1.323,0,2.41,1.147,2.41,2.544v0.364h7.23c1.323,0,2.41,1.147,2.41,2.544V146.568z"/>
		</g>
		<path fill="#FFFFFF" stroke="#231F20" stroke-width="0.9308" stroke-miterlimit="10" d="M-121.017,129.112h8.573
			c1.103,0,1.997,0.894,1.997,1.997v12.338h-12.566v-12.338C-123.014,130.006-122.12,129.112-121.017,129.112z"/>
		<g>
			<path fill="#4CAEE2" d="M-108.049,146.702c0,1.323-1.087,2.41-2.41,2.41h-13.082c-1.323,0-2.41-1.087-2.41-2.41v-10.328
				c0-1.323,1.087-2.41,2.41-2.41h3.443c1.323,0,2.41,1.087,2.41,2.41v0.344h7.23c1.323,0,2.41,1.087,2.41,2.41V146.702z"/>
		</g>
	</g>
	<g>
		<g>
			<path fill="#3983AA" d="M-304.176,111.712c0,1.397-1.087,2.544-2.41,2.544h-13.082c-1.323,0-2.41-1.147-2.41-2.544v-10.904
				c0-1.397,1.087-2.544,2.41-2.544h3.443c1.323,0,2.41,1.147,2.41,2.544v0.364h7.23c1.323,0,2.41,1.147,2.41,2.544V111.712z"/>
		</g>
		<path fill="#FFFFFF" stroke="#231F20" stroke-width="0.9308" stroke-miterlimit="10" d="M-317.144,94.256h8.573
			c1.103,0,1.997,0.894,1.997,1.997v12.338h-12.566V96.253C-319.141,95.15-318.247,94.256-317.144,94.256z"/>
		<g>
			<path fill="#4CAEE2" d="M-304.176,111.846c0,1.323-1.087,2.41-2.41,2.41h-13.082c-1.323,0-2.41-1.087-2.41-2.41v-10.328
				c0-1.323,1.087-2.41,2.41-2.41h3.443c1.323,0,2.41,1.087,2.41,2.41v0.344h7.23c1.323,0,2.41,1.087,2.41,2.41V111.846z"/>
		</g>
	</g>
	<g>
		<g>
			<path fill="#3983AA" d="M-364.178,13.954c0,1.397-1.087,2.544-2.41,2.544h-13.082c-1.323,0-2.41-1.147-2.41-2.544V3.05
				c0-1.397,1.087-2.544,2.41-2.544h3.443c1.323,0,2.41,1.147,2.41,2.544v0.364h7.23c1.323,0,2.41,1.147,2.41,2.544V13.954z"/>
		</g>
		<path fill="#FFFFFF" stroke="#231F20" stroke-width="0.9308" stroke-miterlimit="10" d="M-377.146-3.502h8.573
			c1.103,0,1.997,0.894,1.997,1.997v12.338h-12.566V-1.505C-379.143-2.608-378.249-3.502-377.146-3.502z"/>
		<g>
			<path fill="#4CAEE2" d="M-364.178,14.089c0,1.323-1.087,2.41-2.41,2.41h-13.082c-1.323,0-2.41-1.087-2.41-2.41V3.76
				c0-1.323,1.087-2.41,2.41-2.41h3.443c1.323,0,2.41,1.087,2.41,2.41v0.344h7.23c1.323,0,2.41,1.087,2.41,2.41V14.089z"/>
		</g>
	</g>
	<g>
		<g>
			<path fill="#3983AA" d="M-159.967,71.013c0,1.397-1.087,2.544-2.41,2.544h-13.082c-1.323,0-2.41-1.147-2.41-2.544V60.108
				c0-1.397,1.087-2.544,2.41-2.544h3.443c1.323,0,2.41,1.147,2.41,2.544v0.364h7.23c1.323,0,2.41,1.147,2.41,2.544V71.013z"/>
		</g>
		<path fill="#FFFFFF" stroke="#231F20" stroke-width="0.9308" stroke-miterlimit="10" d="M-172.935,53.557h8.573
			c1.103,0,1.997,0.894,1.997,1.997v12.338h-12.566V55.554C-174.932,54.451-174.038,53.557-172.935,53.557z"/>
		<g>
			<path fill="#4CAEE2" d="M-159.967,71.147c0,1.323-1.087,2.41-2.41,2.41h-13.082c-1.323,0-2.41-1.087-2.41-2.41V60.819
				c0-1.323,1.087-2.41,2.41-2.41h3.443c1.323,0,2.41,1.087,2.41,2.41v0.344h7.23c1.323,0,2.41,1.087,2.41,2.41V71.147z"/>
		</g>
	</g>
	<g>
		<g>
			<path fill="#3983AA" d="M-22.424,0.38c0,1.397-1.087,2.544-2.41,2.544h-13.082c-1.323,0-2.41-1.147-2.41-2.544v-10.904
				c0-1.397,1.087-2.544,2.41-2.544h3.443c1.323,0,2.41,1.147,2.41,2.544v0.364h7.23c1.323,0,2.41,1.147,2.41,2.544V0.38z"/>
		</g>
		<path fill="#FFFFFF" stroke="#231F20" stroke-width="0.9308" stroke-miterlimit="10" d="M-35.393-17.075h8.573
			c1.103,0,1.997,0.894,1.997,1.997v12.338h-12.566v-12.338C-37.389-16.182-36.495-17.075-35.393-17.075z"/>
		<g>
			<path fill="#4CAEE2" d="M-22.424,0.515c0,1.323-1.087,2.41-2.41,2.41h-13.082c-1.323,0-2.41-1.087-2.41-2.41V-9.813
				c0-1.323,1.087-2.41,2.41-2.41h3.443c1.323,0,2.41,1.087,2.41,2.41v0.344h7.23c1.323,0,2.41,1.087,2.41,2.41V0.515z"/>
		</g>
	</g>
	<g>
		<g>
			<path fill="#3983AA" d="M-980.378,499.995c0,1.397-1.087,2.544-2.41,2.544h-13.082c-1.323,0-2.41-1.147-2.41-2.544V489.09
				c0-1.397,1.087-2.544,2.41-2.544h3.443c1.323,0,2.41,1.147,2.41,2.544v0.364h7.23c1.323,0,2.41,1.147,2.41,2.544V499.995z"/>
		</g>
		<path fill="#FFFFFF" stroke="#231F20" stroke-width="0.9308" stroke-miterlimit="10" d="M-993.346,482.539h8.573
			c1.103,0,1.997,0.894,1.997,1.997v12.338h-12.566v-12.338C-995.343,483.433-994.449,482.539-993.346,482.539z"/>
		<g>
			<path fill="#4CAEE2" d="M-980.378,500.129c0,1.323-1.087,2.41-2.41,2.41h-13.082c-1.323,0-2.41-1.087-2.41-2.41v-10.328
				c0-1.323,1.087-2.41,2.41-2.41h3.443c1.323,0,2.41,1.087,2.41,2.41v0.344h7.23c1.323,0,2.41,1.087,2.41,2.41V500.129z"/>
		</g>
	</g>
	<g>
		<g>
			<path fill="#3983AA" d="M-1041.98,624.63c0,1.397-1.087,2.544-2.41,2.544h-13.082c-1.323,0-2.41-1.147-2.41-2.544v-10.904
				c0-1.397,1.087-2.544,2.41-2.544h3.443c1.323,0,2.41,1.147,2.41,2.544v0.364h7.23c1.323,0,2.41,1.147,2.41,2.544V624.63z"/>
		</g>
		<path fill="#FFFFFF" stroke="#231F20" stroke-width="0.9308" stroke-miterlimit="10" d="M-1054.948,607.174h8.573
			c1.103,0,1.997,0.894,1.997,1.997v12.338h-12.566v-12.338C-1056.945,608.068-1056.051,607.174-1054.948,607.174z"/>
		<g>
			<path fill="#4CAEE2" d="M-1041.98,624.765c0,1.323-1.087,2.41-2.41,2.41h-13.082c-1.323,0-2.41-1.087-2.41-2.41v-10.328
				c0-1.323,1.087-2.41,2.41-2.41h3.443c1.323,0,2.41,1.087,2.41,2.41v0.344h7.23c1.323,0,2.41,1.087,2.41,2.41V624.765z"/>
		</g>
	</g>
	<g>
		<g>
			<path fill="#3983AA" d="M-593.295,507.335c0,1.397-1.087,2.544-2.41,2.544h-13.082c-1.323,0-2.41-1.147-2.41-2.544V496.43
				c0-1.397,1.087-2.544,2.41-2.544h3.443c1.323,0,2.41,1.147,2.41,2.544v0.364h7.23c1.323,0,2.41,1.147,2.41,2.544V507.335z"/>
		</g>
		<path fill="#FFFFFF" stroke="#231F20" stroke-width="0.9308" stroke-miterlimit="10" d="M-606.264,489.879h8.573
			c1.103,0,1.997,0.894,1.997,1.997v12.338h-12.566v-12.338C-608.26,490.773-607.367,489.879-606.264,489.879z"/>
		<g>
			<path fill="#4CAEE2" d="M-593.295,507.469c0,1.323-1.087,2.41-2.41,2.41h-13.082c-1.323,0-2.41-1.087-2.41-2.41v-10.328
				c0-1.323,1.087-2.41,2.41-2.41h3.443c1.323,0,2.41,1.087,2.41,2.41v0.344h7.23c1.323,0,2.41,1.087,2.41,2.41V507.469z"/>
		</g>
	</g>
	<g>
		<g>
			<path fill="#3983AA" d="M-575.394,656.989c0,1.397-1.087,2.544-2.41,2.544h-13.082c-1.323,0-2.41-1.147-2.41-2.544v-10.904
				c0-1.397,1.087-2.544,2.41-2.544h3.443c1.323,0,2.41,1.147,2.41,2.544v0.364h7.23c1.323,0,2.41,1.147,2.41,2.544V656.989z"/>
		</g>
		<path fill="#FFFFFF" stroke="#231F20" stroke-width="0.9308" stroke-miterlimit="10" d="M-588.362,639.533h8.573
			c1.103,0,1.997,0.894,1.997,1.997v12.338h-12.566v-12.338C-590.359,640.427-589.465,639.533-588.362,639.533z"/>
		<g>
			<path fill="#4CAEE2" d="M-575.394,657.123c0,1.323-1.087,2.41-2.41,2.41h-13.082c-1.323,0-2.41-1.087-2.41-2.41v-10.328
				c0-1.323,1.087-2.41,2.41-2.41h3.443c1.323,0,2.41,1.087,2.41,2.41v0.344h7.23c1.323,0,2.41,1.087,2.41,2.41V657.123z"/>
		</g>
	</g>
	<g>
		<g>
			<path fill="#3983AA" d="M-1088.58,515.04c0,1.397-1.087,2.544-2.41,2.544h-13.083c-1.323,0-2.41-1.147-2.41-2.544v-10.904
				c0-1.397,1.087-2.544,2.41-2.544h3.443c1.323,0,2.41,1.147,2.41,2.544v0.364h7.23c1.323,0,2.41,1.147,2.41,2.544V515.04z"/>
		</g>
		<path fill="#FFFFFF" stroke="#231F20" stroke-width="0.9308" stroke-miterlimit="10" d="M-1101.549,497.584h8.573
			c1.103,0,1.997,0.894,1.997,1.997v12.338h-12.566v-12.338C-1103.545,498.478-1102.651,497.584-1101.549,497.584z"/>
		<g>
			<path fill="#4CAEE2" d="M-1088.58,515.174c0,1.323-1.087,2.41-2.41,2.41h-13.083c-1.323,0-2.41-1.087-2.41-2.41v-10.328
				c0-1.323,1.087-2.41,2.41-2.41h3.443c1.323,0,2.41,1.087,2.41,2.41v0.344h7.23c1.323,0,2.41,1.087,2.41,2.41V515.174z"/>
		</g>
	</g>
	<g>
		<g>
			<path fill="#3983AA" d="M-900.995,582.607c0,2.235-1.738,4.071-3.855,4.071h-20.932c-2.117,0-3.855-1.836-3.855-4.071V565.16
				c0-2.235,1.739-4.071,3.855-4.071h5.509c2.117,0,3.855,1.836,3.855,4.071v0.582h11.568c2.117,0,3.855,1.836,3.855,4.071V582.607z
				"/>
		</g>
		<path fill="#FFFFFF" stroke="#231F20" stroke-width="1.4893" stroke-miterlimit="10" d="M-921.744,554.678h13.716
			c1.764,0,3.195,1.43,3.195,3.195v19.74h-20.105v-19.74C-924.939,556.108-923.509,554.678-921.744,554.678z"/>
		<g>
			<path fill="#4CAEE2" d="M-900.995,582.822c0,2.117-1.738,3.856-3.855,3.856h-20.932c-2.117,0-3.855-1.739-3.855-3.856v-16.525
				c0-2.117,1.739-3.855,3.855-3.855h5.509c2.117,0,3.855,1.739,3.855,3.855v0.551h11.568c2.117,0,3.855,1.738,3.855,3.855V582.822z
				"/>
		</g>
	</g>
	<g>
		<g>
			<path fill="#3983AA" d="M-1027.092,555.052c0,2.235-1.739,4.071-3.855,4.071h-20.932c-2.117,0-3.855-1.836-3.855-4.071v-17.447
				c0-2.235,1.739-4.07,3.855-4.07h5.509c2.117,0,3.855,1.835,3.855,4.07v0.582h11.568c2.117,0,3.855,1.836,3.855,4.071V555.052z"/>
		</g>
		<path fill="#FFFFFF" stroke="#231F20" stroke-width="1.4893" stroke-miterlimit="10" d="M-1047.841,527.123h13.716
			c1.764,0,3.195,1.43,3.195,3.195v19.74h-20.105v-19.74C-1051.036,528.553-1049.606,527.123-1047.841,527.123z"/>
		<g>
			<path fill="#4CAEE2" d="M-1027.092,555.267c0,2.117-1.739,3.855-3.855,3.855h-20.932c-2.117,0-3.855-1.739-3.855-3.855v-16.525
				c0-2.117,1.739-3.855,3.855-3.855h5.509c2.117,0,3.855,1.739,3.855,3.855v0.551h11.568c2.117,0,3.855,1.739,3.855,3.855V555.267z
				"/>
		</g>
	</g>
	<g>
		<g>
			<path fill="#3983AA" d="M-524.341,535.394c0,2.235-1.739,4.07-3.856,4.07h-20.932c-2.117,0-3.855-1.835-3.855-4.07v-17.447
				c0-2.235,1.738-4.071,3.855-4.071h5.509c2.117,0,3.855,1.836,3.855,4.071v0.582h11.568c2.117,0,3.856,1.835,3.856,4.071V535.394z
				"/>
		</g>
		<path fill="#FFFFFF" stroke="#231F20" stroke-width="1.4893" stroke-miterlimit="10" d="M-545.091,507.464h13.716
			c1.764,0,3.195,1.43,3.195,3.195v19.74h-20.105v-19.74C-548.285,508.894-546.855,507.464-545.091,507.464z"/>
		<g>
			<path fill="#4CAEE2" d="M-524.341,535.609c0,2.117-1.739,3.855-3.856,3.855h-20.932c-2.117,0-3.855-1.738-3.855-3.855v-16.525
				c0-2.117,1.738-3.855,3.855-3.855h5.509c2.117,0,3.855,1.739,3.855,3.855v0.551h11.568c2.117,0,3.856,1.738,3.856,3.855V535.609z
				"/>
		</g>
	</g>
	<rect x="-210" y="-320" fill="#4CAEE2" width="186" height="165"/>
	<rect x="459" y="-361" fill="#DBEFF9" width="186" height="165"/>
	<g>
		<g>
			<g>
				
					<line fill="none" stroke="#B3E3CB" stroke-width="2.6266" stroke-miterlimit="10" x1="47.146" y1="128.506" x2="49.755" y2="128.806"/>
				
					<polyline fill="none" stroke="#B3E3CB" stroke-width="2.6266" stroke-miterlimit="10" stroke-dasharray="5.2733,3.5155" points="
					53.248,129.207 125.833,137.548 179.769,157.657 316.9,186.199 				"/>
				
					<line fill="none" stroke="#B3E3CB" stroke-width="2.6266" stroke-miterlimit="10" x1="318.621" y1="186.557" x2="321.192" y2="187.092"/>
			</g>
		</g>
		<path fill="none" stroke="#B3E3CB" stroke-width="2.6266" stroke-miterlimit="10" stroke-dasharray="5.2533,3.5022" d="
			M611.439,117.003l-82.823,48.876l-94.601-6.275l-106.693,27.488l42.178-90.651l85.907-31.493l57.536-26.51l56.047,19.339
			l-73.852,65.298c0,0,113.616-9.844,107.982-11.479c-5.634-1.635-37.649-57.084-37.649-57.084"/>
		
			<line fill="none" stroke="#B3E3CB" stroke-width="2.6266" stroke-miterlimit="10" stroke-dasharray="5.2533,3.5022" x1="486.712" y1="125.463" x2="434.014" y2="159.604"/>
		<polyline fill="none" stroke="#B3E3CB" stroke-width="2.6266" stroke-miterlimit="10" stroke-dasharray="5.2533,3.5022" points="
			238.834,44.494 303.675,179.992 298.409,38.644 364.61,32.809 303.675,191.386 234.513,99.114 125.833,71.724 74.03,41.596 
			179.769,28.423 128.43,74.989 		"/>
		<g>
			<g>
				<path fill="#3983AA" d="M258.758,50.108c0,3.241-2.521,5.903-5.591,5.903h-30.354c-3.07,0-5.591-2.662-5.591-5.903v-25.3
					c0-3.241,2.521-5.903,5.591-5.903h7.988c3.07,0,5.591,2.662,5.591,5.903v0.844h16.774c3.07,0,5.591,2.662,5.591,5.903V50.108z"
					/>
			</g>
			<path fill="#FFFFFF" stroke="#231F20" stroke-width="2.1596" stroke-miterlimit="10" d="M228.669,9.607h19.89
				c2.559,0,4.633,2.074,4.633,4.633v28.626h-29.155V14.239C224.036,11.681,226.11,9.607,228.669,9.607z"/>
			<g>
				<path fill="#4CAEE2" d="M258.758,50.42c0,3.07-2.521,5.591-5.591,5.591h-30.354c-3.07,0-5.591-2.521-5.591-5.591V26.456
					c0-3.07,2.521-5.591,5.591-5.591h7.988c3.07,0,5.591,2.521,5.591,5.591v0.799h16.774c3.07,0,5.591,2.521,5.591,5.591V50.42z"/>
			</g>
		</g>
		<g>
			<g>
				<path fill="#3983AA" d="M475.33,69.004c0,3.241-2.521,5.903-5.591,5.903h-30.354c-3.07,0-5.591-2.662-5.591-5.903v-25.3
					c0-3.241,2.521-5.903,5.591-5.903h7.988c3.07,0,5.591,2.662,5.591,5.903v0.844h16.774c3.07,0,5.591,2.662,5.591,5.903V69.004z"
					/>
			</g>
			<path fill="#FFFFFF" stroke="#231F20" stroke-width="2.1596" stroke-miterlimit="10" d="M445.241,28.503h19.89
				c2.559,0,4.633,2.074,4.633,4.633v28.626h-29.155V33.135C440.609,30.577,442.683,28.503,445.241,28.503z"/>
			<g>
				<path fill="#4CAEE2" d="M475.33,69.316c0,3.07-2.521,5.591-5.591,5.591h-30.354c-3.07,0-5.591-2.521-5.591-5.591V45.352
					c0-3.07,2.521-5.591,5.591-5.591h7.988c3.07,0,5.591,2.521,5.591,5.591v0.799h16.774c3.07,0,5.591,2.521,5.591,5.591V69.316z"/>
			</g>
		</g>
		<g>
			<g>
				<path fill="#3983AA" d="M454.562,169.327c0,3.241-2.521,5.903-5.591,5.903h-30.354c-3.07,0-5.591-2.662-5.591-5.903v-25.3
					c0-3.241,2.521-5.903,5.591-5.903h7.988c3.07,0,5.591,2.662,5.591,5.903v0.844h16.774c3.07,0,5.591,2.662,5.591,5.903V169.327z"
					/>
			</g>
			<path fill="#FFFFFF" stroke="#231F20" stroke-width="2.1596" stroke-miterlimit="10" d="M424.473,128.825h19.89
				c2.559,0,4.633,2.074,4.633,4.633v28.626h-29.155v-28.626C419.841,130.9,421.915,128.825,424.473,128.825z"/>
			<g>
				<path fill="#4CAEE2" d="M454.562,169.639c0,3.07-2.521,5.591-5.591,5.591h-30.354c-3.07,0-5.591-2.521-5.591-5.591v-23.964
					c0-3.07,2.521-5.591,5.591-5.591h7.988c3.07,0,5.591,2.521,5.591,5.591v0.799h16.774c3.07,0,5.591,2.521,5.591,5.591V169.639z"
					/>
			</g>
		</g>
		<g>
			<g>
				<path fill="#3983AA" d="M197.837,165.964c0,3.241-2.521,5.903-5.591,5.903h-30.354c-3.07,0-5.591-2.662-5.591-5.903v-25.3
					c0-3.241,2.521-5.903,5.591-5.903h7.988c3.07,0,5.591,2.662,5.591,5.903v0.844h16.774c3.07,0,5.591,2.662,5.591,5.903V165.964z"
					/>
			</g>
			<path fill="#FFFFFF" stroke="#231F20" stroke-width="2.1596" stroke-miterlimit="10" d="M167.748,125.463h19.89
				c2.559,0,4.633,2.074,4.633,4.633v28.626h-29.155v-28.626C163.115,127.537,165.19,125.463,167.748,125.463z"/>
			<g>
				<path fill="#4CAEE2" d="M197.837,166.276c0,3.07-2.521,5.591-5.591,5.591h-30.354c-3.07,0-5.591-2.521-5.591-5.591v-23.964
					c0-3.07,2.521-5.591,5.591-5.591h7.988c3.07,0,5.591,2.521,5.591,5.591v0.799h16.774c3.07,0,5.591,2.521,5.591,5.591V166.276z"
					/>
			</g>
		</g>
		<g>
			<g>
				<path fill="#3983AA" d="M61.565,136.189c0,3.241-2.521,5.903-5.591,5.903H25.62c-3.07,0-5.591-2.662-5.591-5.903v-25.3
					c0-3.241,2.521-5.903,5.591-5.903h7.988c3.07,0,5.591,2.662,5.591,5.903v0.844h16.774c3.07,0,5.591,2.662,5.591,5.903V136.189z"
					/>
			</g>
			<path fill="#FFFFFF" stroke="#231F20" stroke-width="2.1596" stroke-miterlimit="10" d="M31.476,95.688h19.89
				c2.559,0,4.633,2.074,4.633,4.633v28.626H26.843v-28.626C26.843,97.762,28.917,95.688,31.476,95.688z"/>
			<g>
				<path fill="#4CAEE2" d="M61.565,136.501c0,3.07-2.521,5.591-5.591,5.591H25.62c-3.07,0-5.591-2.521-5.591-5.591v-23.964
					c0-3.07,2.521-5.591,5.591-5.591h7.988c3.07,0,5.591,2.521,5.591,5.591v0.799h16.774c3.07,0,5.591,2.521,5.591,5.591V136.501z"
					/>
			</g>
		</g>
		<g>
			<g>
				<path fill="#3983AA" d="M631.987,124.246c0,3.241-2.521,5.903-5.591,5.903h-30.354c-3.07,0-5.591-2.662-5.591-5.903v-25.3
					c0-3.241,2.521-5.903,5.591-5.903h7.989c3.07,0,5.591,2.662,5.591,5.903v0.844h16.774c3.07,0,5.591,2.662,5.591,5.903V124.246z"
					/>
			</g>
			<path fill="#FFFFFF" stroke="#231F20" stroke-width="2.1596" stroke-miterlimit="10" d="M601.898,83.744h19.89
				c2.559,0,4.633,2.074,4.633,4.633v28.626h-29.155V88.377C597.265,85.818,599.339,83.744,601.898,83.744z"/>
			<g>
				<path fill="#4CAEE2" d="M631.987,124.557c0,3.07-2.521,5.591-5.591,5.591h-30.354c-3.07,0-5.591-2.521-5.591-5.591v-23.964
					c0-3.07,2.521-5.591,5.591-5.591h7.989c3.07,0,5.591,2.521,5.591,5.591v0.799h16.774c3.07,0,5.591,2.521,5.591,5.591V124.557z"
					/>
			</g>
		</g>
		<g>
			<g>
				<path fill="#3983AA" d="M349.693,198.708c0,5.198-4.043,9.467-8.967,9.467h-48.681c-4.923,0-8.967-4.269-8.967-9.467v-40.576
					c0-5.198,4.043-9.467,8.967-9.467h12.812c4.923,0,8.967,4.269,8.967,9.467v1.353h26.902c4.923,0,8.967,4.269,8.967,9.467
					V198.708z"/>
			</g>
			<path fill="#FFFFFF" stroke="#231F20" stroke-width="3.4636" stroke-miterlimit="10" d="M301.436,133.753h31.899
				c4.103,0,7.43,3.326,7.43,7.43v45.91h-46.758v-45.91C294.007,137.079,297.333,133.753,301.436,133.753z"/>
			<g>
				<path fill="#4CAEE2" d="M349.693,199.208c0,4.923-4.043,8.967-8.967,8.967h-48.681c-4.923,0-8.967-4.043-8.967-8.967v-38.432
					c0-4.923,4.043-8.967,8.967-8.967h12.812c4.923,0,8.967,4.043,8.967,8.967v1.282h26.902c4.923,0,8.967,4.043,8.967,8.967
					V199.208z"/>
			</g>
		</g>
		<g>
			<g>
				<path fill="#3983AA" d="M376.553,39.49c0,1.957-1.522,3.564-3.376,3.564H354.85c-1.854,0-3.376-1.607-3.376-3.564V24.215
					c0-1.957,1.522-3.564,3.376-3.564h4.823c1.854,0,3.376,1.607,3.376,3.564v0.509h10.128c1.854,0,3.376,1.607,3.376,3.564V39.49z"
					/>
			</g>
			<path fill="#FFFFFF" stroke="#231F20" stroke-width="1.3039" stroke-miterlimit="10" d="M358.386,15.037h12.009
				c1.545,0,2.797,1.252,2.797,2.797v17.284h-17.603V17.834C355.588,16.289,356.841,15.037,358.386,15.037z"/>
			<g>
				<path fill="#4CAEE2" d="M376.553,39.679c0,1.854-1.522,3.376-3.376,3.376H354.85c-1.854,0-3.376-1.522-3.376-3.376V25.21
					c0-1.854,1.522-3.376,3.376-3.376h4.823c1.854,0,3.376,1.522,3.376,3.376v0.483h10.128c1.854,0,3.376,1.522,3.376,3.376V39.679z
					"/>
			</g>
		</g>
		<g>
			<g>
				<path fill="#3983AA" d="M507.456,127.448c0,1.957-1.522,3.564-3.376,3.564h-18.327c-1.854,0-3.376-1.607-3.376-3.564v-15.276
					c0-1.957,1.522-3.564,3.376-3.564h4.823c1.854,0,3.376,1.607,3.376,3.564v0.509h10.128c1.854,0,3.376,1.607,3.376,3.564V127.448
					z"/>
			</g>
			<path fill="#FFFFFF" stroke="#231F20" stroke-width="1.3039" stroke-miterlimit="10" d="M489.289,102.994h12.009
				c1.545,0,2.797,1.252,2.797,2.797v17.284h-17.603v-17.284C486.492,104.246,487.745,102.994,489.289,102.994z"/>
			<g>
				<path fill="#4CAEE2" d="M507.456,127.636c0,1.854-1.522,3.376-3.376,3.376h-18.327c-1.854,0-3.376-1.522-3.376-3.376v-14.469
					c0-1.854,1.522-3.376,3.376-3.376h4.823c1.854,0,3.376,1.522,3.376,3.376v0.483h10.128c1.854,0,3.376,1.522,3.376,3.376V127.636
					z"/>
			</g>
		</g>
		<g>
			<g>
				<path fill="#3983AA" d="M377.116,98.45c0,1.223-0.951,2.227-2.11,2.227h-11.454c-1.158,0-2.11-1.004-2.11-2.227v-9.547
					c0-1.223,0.951-2.227,2.11-2.227h3.015c1.158,0,2.11,1.004,2.11,2.227v0.318h6.33c1.158,0,2.11,1.004,2.11,2.227V98.45z"/>
			</g>
			<path fill="#FFFFFF" stroke="#231F20" stroke-width="0.815" stroke-miterlimit="10" d="M365.762,83.167h7.506
				c0.965,0,1.748,0.783,1.748,1.748v10.802h-11.002V84.915C364.013,83.949,364.796,83.167,365.762,83.167z"/>
			<g>
				<path fill="#4CAEE2" d="M377.116,98.568c0,1.158-0.951,2.11-2.11,2.11h-11.454c-1.158,0-2.11-0.951-2.11-2.11v-9.043
					c0-1.158,0.951-2.11,2.11-2.11h3.015c1.158,0,2.11,0.951,2.11,2.11v0.302h6.33c1.158,0,2.11,0.951,2.11,2.11V98.568z"/>
			</g>
		</g>
		<g>
			<g>
				<path fill="#3983AA" d="M311.292,41.377c0,1.223-0.951,2.227-2.11,2.227h-11.454c-1.158,0-2.11-1.004-2.11-2.227V31.83
					c0-1.223,0.951-2.227,2.11-2.227h3.015c1.158,0,2.11,1.004,2.11,2.227v0.318h6.33c1.158,0,2.11,1.004,2.11,2.227V41.377z"/>
			</g>
			<path fill="#FFFFFF" stroke="#231F20" stroke-width="0.815" stroke-miterlimit="10" d="M299.937,26.094h7.506
				c0.965,0,1.748,0.783,1.748,1.748v10.802h-11.002V27.842C298.189,26.877,298.972,26.094,299.937,26.094z"/>
			<g>
				<path fill="#4CAEE2" d="M311.292,41.495c0,1.158-0.951,2.11-2.11,2.11h-11.454c-1.158,0-2.11-0.951-2.11-2.11v-9.043
					c0-1.158,0.951-2.11,2.11-2.11h3.015c1.158,0,2.11,0.951,2.11,2.11v0.302h6.33c1.158,0,2.11,0.951,2.11,2.11V41.495z"/>
			</g>
		</g>
		<g>
			<g>
				<path fill="#3983AA" d="M184.649,31.156c0,1.223-0.951,2.227-2.11,2.227h-11.454c-1.158,0-2.11-1.004-2.11-2.227v-9.547
					c0-1.223,0.951-2.227,2.11-2.227h3.015c1.158,0,2.11,1.004,2.11,2.227v0.318h6.33c1.158,0,2.11,1.004,2.11,2.227V31.156z"/>
			</g>
			<path fill="#FFFFFF" stroke="#231F20" stroke-width="0.815" stroke-miterlimit="10" d="M173.295,15.873h7.506
				c0.965,0,1.748,0.783,1.748,1.748v10.802h-11.002V17.621C171.547,16.655,172.329,15.873,173.295,15.873z"/>
			<g>
				<path fill="#4CAEE2" d="M184.649,31.274c0,1.158-0.951,2.11-2.11,2.11h-11.454c-1.158,0-2.11-0.951-2.11-2.11v-9.043
					c0-1.158,0.951-2.11,2.11-2.11h3.015c1.158,0,2.11,0.951,2.11,2.11v0.302h6.33c1.158,0,2.11,0.951,2.11,2.11V31.274z"/>
			</g>
		</g>
		<g>
			<g>
				<path fill="#3983AA" d="M127.714,140.281c0,1.223-0.951,2.227-2.11,2.227H114.15c-1.158,0-2.11-1.004-2.11-2.227v-9.547
					c0-1.223,0.951-2.227,2.11-2.227h3.015c1.158,0,2.11,1.004,2.11,2.227v0.318h6.33c1.158,0,2.11,1.004,2.11,2.227V140.281z"/>
			</g>
			<path fill="#FFFFFF" stroke="#231F20" stroke-width="0.815" stroke-miterlimit="10" d="M116.359,124.997h7.506
				c0.965,0,1.748,0.783,1.748,1.748v10.802h-11.002v-10.802C114.611,125.78,115.394,124.997,116.359,124.997z"/>
			<g>
				<path fill="#4CAEE2" d="M127.714,140.398c0,1.158-0.951,2.11-2.11,2.11H114.15c-1.158,0-2.11-0.951-2.11-2.11v-9.043
					c0-1.158,0.951-2.11,2.11-2.11h3.015c1.158,0,2.11,0.951,2.11,2.11v0.302h6.33c1.158,0,2.11,0.951,2.11,2.11V140.398z"/>
			</g>
		</g>
		<g>
			<g>
				<path fill="#3983AA" d="M520.559,37.583c0,1.223-0.951,2.227-2.11,2.227h-11.454c-1.158,0-2.11-1.004-2.11-2.227v-9.547
					c0-1.223,0.951-2.227,2.11-2.227h3.015c1.158,0,2.11,1.004,2.11,2.227v0.318h6.33c1.158,0,2.11,1.004,2.11,2.227V37.583z"/>
			</g>
			<path fill="#FFFFFF" stroke="#231F20" stroke-width="0.815" stroke-miterlimit="10" d="M509.205,22.299h7.506
				c0.966,0,1.748,0.783,1.748,1.748v10.802h-11.002V24.047C507.456,23.082,508.239,22.299,509.205,22.299z"/>
			<g>
				<path fill="#4CAEE2" d="M520.559,37.7c0,1.158-0.951,2.11-2.11,2.11h-11.454c-1.158,0-2.11-0.951-2.11-2.11v-9.043
					c0-1.158,0.951-2.11,2.11-2.11h3.015c1.158,0,2.11,0.951,2.11,2.11v0.302h6.33c1.158,0,2.11,0.951,2.11,2.11V37.7z"/>
			</g>
		</g>
		<g>
			<g>
				<path fill="#3983AA" d="M536.233,168.612c0,1.223-0.951,2.227-2.11,2.227h-11.454c-1.158,0-2.11-1.004-2.11-2.227v-9.547
					c0-1.223,0.951-2.227,2.11-2.227h3.015c1.158,0,2.11,1.004,2.11,2.227v0.318h6.33c1.158,0,2.11,1.004,2.11,2.227V168.612z"/>
			</g>
			<path fill="#FFFFFF" stroke="#231F20" stroke-width="0.815" stroke-miterlimit="10" d="M524.878,153.328h7.506
				c0.965,0,1.748,0.783,1.748,1.748v10.802H523.13v-10.802C523.13,154.111,523.913,153.328,524.878,153.328z"/>
			<g>
				<path fill="#4CAEE2" d="M536.233,168.73c0,1.158-0.951,2.11-2.11,2.11h-11.454c-1.158,0-2.11-0.951-2.11-2.11v-9.043
					c0-1.158,0.951-2.11,2.11-2.11h3.015c1.158,0,2.11,0.951,2.11,2.11v0.302h6.33c1.158,0,2.11,0.951,2.11,2.11V168.73z"/>
			</g>
		</g>
		<g>
			<g>
				<path fill="#3983AA" d="M84.812,43.986c0,1.223-0.951,2.227-2.11,2.227H71.248c-1.158,0-2.11-1.004-2.11-2.227v-9.547
					c0-1.223,0.951-2.227,2.11-2.227h3.015c1.158,0,2.11,1.004,2.11,2.227v0.318h6.33c1.158,0,2.11,1.004,2.11,2.227V43.986z"/>
			</g>
			<path fill="#FFFFFF" stroke="#231F20" stroke-width="0.815" stroke-miterlimit="10" d="M73.458,28.702h7.506
				c0.965,0,1.748,0.783,1.748,1.748v10.802H71.71V30.451C71.71,29.485,72.492,28.702,73.458,28.702z"/>
			<g>
				<path fill="#4CAEE2" d="M84.812,44.104c0,1.158-0.951,2.11-2.11,2.11H71.248c-1.158,0-2.11-0.951-2.11-2.11v-9.043
					c0-1.158,0.951-2.11,2.11-2.11h3.015c1.158,0,2.11,0.951,2.11,2.11v0.302h6.33c1.158,0,2.11,0.951,2.11,2.11V44.104z"/>
			</g>
		</g>
		<g>
			<g>
				<path fill="#3983AA" d="M251.153,103.487c0,1.957-1.522,3.564-3.376,3.564H229.45c-1.854,0-3.376-1.607-3.376-3.564V88.212
					c0-1.957,1.522-3.564,3.376-3.564h4.823c1.854,0,3.376,1.607,3.376,3.564v0.509h10.128c1.854,0,3.376,1.607,3.376,3.564V103.487
					z"/>
			</g>
			<path fill="#FFFFFF" stroke="#231F20" stroke-width="1.3039" stroke-miterlimit="10" d="M232.986,79.034h12.009
				c1.545,0,2.797,1.252,2.797,2.797v17.284h-17.603V81.831C230.189,80.286,231.441,79.034,232.986,79.034z"/>
			<g>
				<path fill="#4CAEE2" d="M251.153,103.676c0,1.854-1.522,3.376-3.376,3.376H229.45c-1.854,0-3.376-1.522-3.376-3.376V89.207
					c0-1.854,1.522-3.376,3.376-3.376h4.823c1.854,0,3.376,1.522,3.376,3.376v0.483h10.128c1.854,0,3.376,1.522,3.376,3.376V103.676
					z"/>
			</g>
		</g>
		<g>
			<g>
				<path fill="#3983AA" d="M140.749,79.362c0,1.957-1.522,3.564-3.376,3.564h-18.327c-1.854,0-3.376-1.607-3.376-3.564V64.086
					c0-1.957,1.522-3.564,3.376-3.564h4.823c1.854,0,3.376,1.607,3.376,3.564v0.509h10.128c1.854,0,3.376,1.607,3.376,3.564V79.362z
					"/>
			</g>
			<path fill="#FFFFFF" stroke="#231F20" stroke-width="1.3039" stroke-miterlimit="10" d="M122.582,54.908h12.009
				c1.545,0,2.797,1.252,2.797,2.797v17.284h-17.603V57.705C119.785,56.16,121.037,54.908,122.582,54.908z"/>
			<g>
				<path fill="#4CAEE2" d="M140.749,79.55c0,1.854-1.522,3.376-3.376,3.376h-18.327c-1.854,0-3.376-1.522-3.376-3.376V65.081
					c0-1.854,1.522-3.376,3.376-3.376h4.823c1.854,0,3.376,1.522,3.376,3.376v0.483h10.128c1.854,0,3.376,1.522,3.376,3.376V79.55z"
					/>
			</g>
		</g>
		<g>
			<g>
				<path fill="#3983AA" d="M580.932,62.15c0,1.957-1.522,3.564-3.376,3.564h-18.327c-1.854,0-3.376-1.607-3.376-3.564V46.874
					c0-1.957,1.522-3.564,3.376-3.564h4.823c1.854,0,3.376,1.607,3.376,3.564v0.509h10.128c1.854,0,3.376,1.607,3.376,3.564V62.15z"
					/>
			</g>
			<path fill="#FFFFFF" stroke="#231F20" stroke-width="1.3039" stroke-miterlimit="10" d="M562.765,37.696h12.009
				c1.545,0,2.797,1.252,2.797,2.797v17.284h-17.603V40.493C559.968,38.948,561.22,37.696,562.765,37.696z"/>
			<g>
				<path fill="#4CAEE2" d="M580.932,62.338c0,1.854-1.522,3.376-3.376,3.376h-18.327c-1.854,0-3.376-1.522-3.376-3.376V47.869
					c0-1.854,1.522-3.376,3.376-3.376h4.823c1.854,0,3.376,1.522,3.376,3.376v0.483h10.128c1.854,0,3.376,1.522,3.376,3.376V62.338z
					"/>
			</g>
		</g>
	</g>
</g>
</svg>
