<?xml version="1.0" encoding="UTF-8" standalone="no"?>
<!-- Generator: Adobe Illustrator 14.0.0, SVG Export Plug-In . SVG Version: 6.00 Build 43363)  -->

<svg
   xmlns:dc="http://purl.org/dc/elements/1.1/"
   xmlns:cc="http://creativecommons.org/ns#"
   xmlns:rdf="http://www.w3.org/1999/02/22-rdf-syntax-ns#"
   xmlns:svg="http://www.w3.org/2000/svg"
   xmlns="http://www.w3.org/2000/svg"
   xmlns:xlink="http://www.w3.org/1999/xlink"
   xmlns:sodipodi="http://sodipodi.sourceforge.net/DTD/sodipodi-0.dtd"
   xmlns:inkscape="http://www.inkscape.org/namespaces/inkscape"
   version="1.1"
   id="Layer_1"
   x="0px"
   y="0px"
   width="500px"
   height="148px"
   viewBox="0 0 500 148"
   enable-background="new 0 0 500 148"
   xml:space="preserve"
   inkscape:version="0.48.4 r9939"
   sodipodi:docname="importio_162.svg"><metadata
   id="metadata4124"><rdf:RDF><cc:Work
       rdf:about=""><dc:format>image/svg+xml</dc:format><dc:type
         rdf:resource="http://purl.org/dc/dcmitype/StillImage" /></cc:Work></rdf:RDF></metadata><defs
   id="defs4122" /><sodipodi:namedview
   pagecolor="#ffffff"
   bordercolor="#666666"
   borderopacity="1"
   objecttolerance="10"
   gridtolerance="10"
   guidetolerance="10"
   inkscape:pageopacity="0"
   inkscape:pageshadow="2"
   inkscape:window-width="1142"
   inkscape:window-height="752"
   id="namedview4120"
   showgrid="false"
   inkscape:zoom="0.572"
   inkscape:cx="327.10393"
   inkscape:cy="56.270979"
   inkscape:window-x="0"
   inkscape:window-y="0"
   inkscape:window-maximized="0"
   inkscape:current-layer="g4066" />
<g
   id="g4066">
	<defs
   id="defs4068"><rect
     id="SVGID_1_"
     x="23.282"
     y="5.88"
     width="460.272"
     height="136.24" /></defs>
	<clipPath
   id="SVGID_2_">
		<use
   xlink:href="#SVGID_1_"
   overflow="visible"
   id="use4072" />
	</clipPath>
	<path
   sodipodi:type="arc"
   style="fill:#ec3d82;fill-opacity:1"
   id="path4650"
   sodipodi:cx="249.56294"
   sodipodi:cy="50.743515"
   sodipodi:rx="40.646854"
   sodipodi:ry="65.76799"
   d="m 290.2098,50.743515 a 40.646854,65.76799 0 1 1 -81.29371,0 40.646854,65.76799 0 1 1 81.29371,0 z"
   transform="matrix(1.6729462,0,0,1.0339376,-2.5053757,21.534374)" />
	<rect
   x="388.097"
   y="53.877"
   clip-path="url(#SVGID_2_)"
   width="11.081"
   height="46.552"
   id="rect4076"
   fill="#FFFFFF" />
	<path
   clip-path="url(#SVGID_2_)"
   d="M428.277,62.535c-6.989,0-12.018,5.586-12.018,14.148   c0,9.594,5.871,14.899,12.573,14.899c8.099,0,12.195-7.076,11.912-14.802C440.561,69.053,436.091,62.535,428.277,62.535    M428.833,101.825c-14.523,0-24.21-10.613-24.21-24.858s9.87-24.489,23.741-24.489c12.94,0,24.024,9.034,24.113,24.489   C452.478,91.491,442.893,101.825,428.833,101.825"
   id="path4078"
   fill="#FFFFFF" />
	<path
   clip-path="url(#SVGID_2_)"
   d="M401.213,42.88c0,4.091-3.315,7.405-7.406,7.405   c-4.092,0-7.403-3.313-7.403-7.405c0-4.09,3.312-7.407,7.403-7.407C397.897,35.473,401.213,38.79,401.213,42.88"
   id="path4080"
   fill="#FFFFFF" />
	<path
   clip-path="url(#SVGID_2_)"
   d="M44.795,51.127h13.77l-0.019,6.664c4.653-5.815,12.914-8.261,18.382-8.261   c5.471,0,12.334,2.094,16.175,8.959c2.326-3.258,8.374-8.959,18.617-8.959c5.816,0,11.4,1.63,15.358,5.934   c4.652,5.12,4.537,11.288,4.537,17.336v36.782h-13.847V77.34c0-5.468,0.814-14.661-9.774-14.661c-4.419,0-8.026,2.443-9.888,5.47   c-2.677,4.305-3.026,8.957-3.026,13.961v27.474H81.233V76.992c0-4.191,0-5.705-0.466-7.447c-1.045-3.842-4.07-6.867-8.958-6.867   c-4.189,0-8.26,2.443-10.704,6.748c-2.445,4.539-2.56,10.008-2.56,15.707v24.449H44.7L44.795,51.127"
   id="path4082"
   fill="#525453" />
	<path
   clip-path="url(#SVGID_2_)"
   d="M164.656,98.048c6.75,0,14.079-4.652,14.079-17.801   c0-14.543-10.122-17.334-14.31-17.334c-6.401,0-13.729,4.653-13.962,17.101C150.227,91.999,156.859,98.048,164.656,98.048    M136.731,51.275h13.845v5.352c2.211-2.325,6.867-7.096,15.942-7.096c17.104,0,26.411,15.361,26.411,31.416   c0,17.336-10.822,30.25-26.411,30.25c-8.028,0-13.031-3.837-15.942-6.517v23.739h-13.845V51.275z"
   id="path4084"
   fill="#525453" />
	<path
   clip-path="url(#SVGID_2_)"
   d="M226.598,62.099c-8.724,0-15.007,6.981-15.007,17.682   c0,11.987,7.328,18.618,15.707,18.618c10.12,0,15.241-8.84,14.893-18.502C241.958,70.241,236.372,62.099,226.598,62.099    M227.298,111.199c-18.15,0-30.25-13.268-30.25-31.068c0-17.804,12.333-30.6,29.667-30.6c16.173,0,30.023,11.288,30.137,30.6   C256.852,98.282,244.864,111.199,227.298,111.199"
   id="path4086"
   fill="#525453" />
	<path
   clip-path="url(#SVGID_2_)"
   d="M274.814,51.275v9.053c1.744-3.026,5.585-9.893,18.616-9.542v14.311   c-3.024,0.117-8.265,0.232-12.567,3.491c-5.935,4.538-6.049,10.473-6.049,20.129v20.825h-13.499V51.275H274.814"
   id="path4088"
   fill="#525453" />
</g>
<g
   id="g4090">
	<defs
   id="defs4092"><rect
     id="SVGID_3_"
     x="23.338"
     y="6.019"
     width="460.131"
     height="136.102" /></defs>
	<clipPath
   id="SVGID_4_">
		<use
   xlink:href="#SVGID_3_"
   overflow="visible"
   id="use4096" />
	</clipPath>
	<g
   clip-path="url(#SVGID_4_)"
   id="g4098">
		<defs
   id="defs4100"><rect
     id="SVGID_5_"
     x="23.282"
     y="5.88"
     width="460.272"
     height="136.24" /></defs>
		<clipPath
   id="SVGID_6_">
			<use
   xlink:href="#SVGID_5_"
   overflow="visible"
   id="use4104" />
		</clipPath>
		<rect
   x="25.449"
   y="51.127"
   clip-path="url(#SVGID_6_)"
   fill="#525453"
   width="14.166"
   height="58.493"
   id="rect4106" />
		<path
   clip-path="url(#SVGID_6_)"
   fill="#525453"
   d="M42.221,37.007c0,5.229-4.241,9.468-9.469,9.468    c-5.23,0-9.47-4.239-9.47-9.468c0-5.228,4.239-9.47,9.47-9.47C37.98,27.537,42.221,31.779,42.221,37.007"
   id="path4108" />
	</g>
</g>
<g
   id="g4110">
	<defs
   id="defs4112"><rect
     id="SVGID_7_"
     x="23.282"
     y="5.88"
     width="460.272"
     height="136.24" /></defs>
	<clipPath
   id="SVGID_8_">
		<use
   xlink:href="#SVGID_7_"
   overflow="visible"
   id="use4116" />
	</clipPath>
	<path
   clip-path="url(#SVGID_8_)"
   fill="#525453"
   d="M332.208,64.323v-2.081h0.012V52.235h-0.012v-0.764h-12.436V31.873H305.81   v19.598h-8.77v12.852h8.77v26.629c0,5.819,0,9.542,0.929,11.869c2.677,7.095,12.446,7.095,15.357,7.095   c3.145,0,5.936-0.23,10.124-0.929V97.235c-1.977,0.582-3.724,0.696-5.822,0.696c-6.625,0-6.625-3.139-6.625-10.354V64.323H332.208"
   id="path4118" />
</g>
</svg>