<?xml version="1.0" encoding="utf-8"?>
<!-- Generator: Adobe Illustrator 17.1.0, SVG Export Plug-In . SVG Version: 6.00 Build 0)  -->
<!DOCTYPE svg PUBLIC "-//W3C//DTD SVG 1.1//EN" "http://www.w3.org/Graphics/SVG/1.1/DTD/svg11.dtd">
<svg version="1.1" id="Layer_1" xmlns="http://www.w3.org/2000/svg" xmlns:xlink="http://www.w3.org/1999/xlink" x="0px" y="0px"
	 viewBox="0 0 154.733 102.058" enable-background="new 0 0 154.733 102.058" xml:space="preserve">
<path fill="#E42C79" d="M72.638,43.488c0,0,1,20.833,27.167,21.5l-1.167-16.5c0,0-11.833,0.833-16.833-5.5
	S72.638,43.488,72.638,43.488z"/>
<path fill="#010101" d="M109.098,82.474c0,5.393,0.686,11.488-0.153,16.749c-1.818,0.116-3.717,0.114-5.524,0
	c-0.218-0.67-0.152-1.73,0.091-2.337c0.972,0.098,2.099-0.199,3.064-0.123c0.297-4.692-0.303-9.262-0.348-13.879"/>
<path fill="#010101" d="M121.809,82.474c0,5.393,0.685,11.488-0.153,16.749c-1.818,0.116-3.717,0.114-5.525,0
	c-0.217-0.67-0.151-1.73,0.092-2.337c0.972,0.098,2.098-0.199,3.064-0.123c0.297-4.692-0.303-9.262-0.348-13.879"/>
<path fill="#E42C79" d="M104.58,19.308c3.65,0.818,7.721,0.433,11.498,0.433c3.227,0,7.288,0.591,10.233-0.412
	c3.707-1.263,4.377-4.474,5.658-7.346c1.381,11.965,4.191,23.524,4.191,36.07c0,11.208,1.16,22.676,0.339,33.939
	c-6.512,3.125-18.455,1.731-25.759,1.711c-5.025-0.015-15.582,0.82-16.402-2.05c-2.331-8.158-0.82-18.993-0.82-27.449
	c0-8.384-0.266-17.32,1.209-25.444c0.975-5.361,2.857-11.077,3.302-16.401C98.028,12.361,100.74,18.448,104.58,19.308z"/>
<path fill="#E42C79" d="M125.773,83.841c8.072,0,16.16-0.152,24.231,0.015c-2.157-1.375-5.148-2.038-7.264-3.233
	c2.607-0.239,5.639-0.416,8.219-0.336c-1.063-0.747-5.55-2.547-7.419-3.005c2.396-1.013,5.359-2.064,7.654-3.28
	c-2.637,0.197-4.647,0-8.316,0.061c-4.173,0.069-8.548-0.061-12.732-0.061L125.773,83.841z"/>
<path fill="#010101" d="M110.338,37.528c-1.613,1.332-4.295,3.15-6.204,3.793c0.463,0.992,2.389,2.208,3.248,2.926
	c0.831,0.696,1.698,1.329,2.488,2.016L110.338,37.528z"/>
<path fill="none" stroke="#010101" d="M96.972,25.988c-0.352,4.06,1.858,10.639,6.667,10.334c4.393-0.279,5.823-6.816,5.333-10.667"
	/>
<path fill="none" stroke="#010101" d="M116.306,25.988c-0.352,4.06,1.858,10.639,6.667,10.334c4.393-0.279,5.823-6.816,5.333-10.667
	"/>
<path fill="#FCB236" stroke="#010101" stroke-width="0.82" d="M103.972,41.238c0,1.759,0.018,0.25-0.01,2
	c-11.99,0.05-21.657,0.75-36.94,0.917c-0.127-1.957-0.05-3.523-0.05-5.5L103.972,41.238z"/>
<path fill="#E42C79" stroke="#010101" d="M128.972,45.988c-5.158,3.261-9.935,4.579-16.167,4.167
	c-3.613-0.239-6.667-0.333-10.5-2.501c-4.353-2.461-7.333-5.999-9-8.666c0,0-8.667,31.333,39,28"/>
<polygon fill="#E42C79" points="72.305,38.155 79.972,37.321 80.805,41.655 "/>
<path fill="#FCB236" stroke="#010101" stroke-width="0.82" stroke-linecap="round" stroke-linejoin="round" d="M67.74,38.735
	c0,0-3.935-1.247-6.685-3.497c-3.856-3.154-5-4.771-9.5-7.938l-1.187,25.427c6.334-2.667,10.105-7.109,17.316-8.481"/>
<path fill="#FCB236" stroke="#010101" stroke-width="0.82" d="M44.777,30.158c0.959-1.807,2.325-3.351,4.777-3.42
	c0,0,6.092-0.288,6.312,11.438c0,0-0.017,6.486-1.312,10.312c-0.978,2.886-3.214,4.848-6.5,4.417c0,0-5.65,0.24-5.15-13.76
	C42.904,39.145,42.981,33.541,44.777,30.158z"/>
<path fill="#010101" d="M54.805,32.738c-3.353,2.619-4.12,13.023-0.25,15.5C54.555,48.238,56.555,40.238,54.805,32.738z"/>
<path fill="#F2EEE2" d="M47.972,41.154c-5.667-4.167-7.495-8.554-8.073-13.075c-0.962-7.527-2.309-16.11-12.594-18.341
	c-7.246-1.572-15.392-0.638-20.325,6.235c-3.245,4.52-3.365,15.21-0.768,20.181c4.473,8.558,10.432,9.052,15.427,8.834
	c7.666-0.333,10.903-3.232,14.773-4.241C41.365,39.455,47.972,41.154,47.972,41.154z"/>
<path fill="#F1AEBF" d="M24.624,22.01c0,0,2.254-4.259,4.056-4.259s6.553,0.655,5.898,4.259
	c-0.655,3.604-7.208,12.778-10.649,14.581l-4.751,2.785c0,0-8.027-19.659-3.768-21.625S24.663,16.931,24.624,22.01z"/>
</svg>
