<?xml version="1.0" encoding="utf-8"?>
<!-- Generator: Adobe Illustrator 17.1.0, SVG Export Plug-In . SVG Version: 6.00 Build 0)  -->
<!DOCTYPE svg PUBLIC "-//W3C//DTD SVG 1.1//EN" "http://www.w3.org/Graphics/SVG/1.1/DTD/svg11.dtd">
<svg version="1.1" id="Layer_1" xmlns="http://www.w3.org/2000/svg" xmlns:xlink="http://www.w3.org/1999/xlink" x="0px" y="0px"
	 viewBox="0 0 260 130" enable-background="new 0 0 260 130" xml:space="preserve">
<g>
	<path d="M47.471,109.331c0,4.047,0.514,8.621-0.115,12.57c-1.365,0.086-2.789,0.085-4.146,0c-0.163-0.503-0.114-1.299,0.068-1.754
		c0.729,0.073,1.575-0.15,2.3-0.092c0.223-3.521-0.227-6.95-0.261-10.415"/>
	<path d="M57.009,109.331c0,4.047,0.514,8.621-0.115,12.57c-1.365,0.086-2.789,0.085-4.147,0c-0.163-0.503-0.114-1.299,0.069-1.754
		c0.729,0.073,1.574-0.15,2.3-0.092c0.223-3.521-0.227-6.95-0.261-10.415"/>
	<path fill="#FCB236" d="M44.08,61.928c2.739,0.614,5.794,0.325,8.629,0.325c2.421,0,5.469,0.443,7.679-0.309
		c2.782-0.948,3.285-3.357,4.246-5.513c1.036,8.979,3.145,17.654,3.145,27.069c0,8.411,0.871,17.017,0.254,25.47
		c-4.887,2.345-13.85,1.299-19.331,1.284c-3.771-0.011-11.694,0.615-12.309-1.539c-1.749-6.122-0.616-14.253-0.616-20.599
		c0-6.292-0.199-12.998,0.907-19.094c0.731-4.023,2.144-8.313,2.478-12.308C39.163,56.714,41.198,61.282,44.08,61.928z"/>
	<path fill="#FCB236" d="M59.984,110.357c6.058,0,12.127-0.114,18.184,0.011c-1.619-1.032-3.864-1.529-5.451-2.426
		c1.956-0.179,4.232-0.313,6.168-0.252c-0.798-0.56-4.165-1.912-5.568-2.255c1.798-0.76,4.022-1.549,5.744-2.462
		c-1.979,0.148-3.488,0-6.241,0.046c-3.131,0.052-6.415-0.046-9.555-0.046L59.984,110.357z"/>
	<path fill="none" stroke="#000000" stroke-width="0.6154" d="M59.369,88.202c0,7.217,0.356,19.793,8.585,22.555
		c0.135-2.233,0.031-4.516,0.031-6.759"/>
	<path d="M48.401,75.601c-1.211,1-3.223,2.364-4.656,2.847c0.347,0.745,1.793,1.657,2.438,2.196
		c0.624,0.522,1.274,0.997,1.867,1.513L48.401,75.601z"/>
	<path d="M43.123,63.939c-2.748-0.406-5.348,2.832-5.633,5.249c-0.366,3.112,0.386,6.173,3.715,6.613
		c5.988,0.791,8.342-10.722,2.481-11.82c-0.398-0.074-0.905-0.093-1.313-0.042H43.123z"/>
	<path d="M58.476,63.845c-2.748-0.406-5.348,2.832-5.633,5.249c-0.366,3.112,0.386,6.173,3.715,6.613
		c5.988,0.791,8.342-10.722,2.481-11.82c-0.398-0.074-0.905-0.093-1.313-0.042H58.476z"/>
	<path fill="#FFFFFF" d="M58.282,65.207c-2.115-0.313-4.116,2.18-4.335,4.04c-0.282,2.395,0.297,4.75,2.859,5.089
		c4.609,0.609,6.42-8.252,1.91-9.097c-0.306-0.057-0.697-0.072-1.011-0.032H58.282z"/>
	<path fill="#FCB236" d="M37.12,89.579c0,0-9.506,1.251-17.761,1.001c0,0,3.002,10.006,21.013,8.505"/>
	<path d="M53.692,73.194c-1.126-1.501-1.251-3.127-3.752-3.377c-2.492-0.249-2.33,1.405-3.752,2.377l0.501-2.251
		c0,0,1.376-1.876,3.127-1.876c0,0,2.126,0,3.502,2.877L53.692,73.194z"/>
	<polygon points="62.072,69.192 67.825,69.067 69.826,72.944 68.826,73.319 67.325,70.443 61.697,70.568 	"/>
	<polygon points="38.933,68.942 35.935,69.022 36.056,70.943 38.433,70.943 	"/>
	<path fill="#FFFFFF" d="M42.929,65.3c-2.115-0.313-4.116,2.18-4.335,4.04c-0.282,2.395,0.297,4.75,2.859,5.089
		c4.609,0.609,6.42-8.252,1.91-9.097c-0.306-0.057-0.697-0.072-1.011-0.032H42.929z"/>
	<rect x="8.44" y="84.352" transform="matrix(0.3701 0.929 -0.929 0.3701 91.972 34.0742)" width="24.84" height="1.01"/>
</g>
<g>
	<path fill="#E42A78" d="M95.292,60.9c-4.27-6.995-6.553-12.011-10.216-19.703c-3.649-7.662-5.108-9.487-10.227-19.402
		c-1.786,3.731-1.814,10.656-1.814,15.023c0,5.363,0.336,9.378,1.715,14.504c1.458,5.419,4.173,11.67,7.871,16.054
		c4.39,5.204,8.603,5.663,14.494,7.753"/>
	<path d="M110.981,101.399c0,7.198,0.915,15.334-0.205,22.357c-2.426,0.155-4.96,0.152-7.373,0c-0.291-0.895-0.203-2.31,0.122-3.119
		c1.296,0.13,2.801-0.266,4.09-0.164c0.396-6.263-0.404-12.363-0.464-18.526"/>
	<path d="M127.948,101.399c0,7.198,0.915,15.334-0.205,22.357c-2.427,0.155-4.96,0.152-7.374,0c-0.291-0.895-0.203-2.31,0.122-3.119
		c1.297,0.13,2.801-0.266,4.09-0.164c0.397-6.263-0.404-12.363-0.463-18.526"/>
	<path fill="#E42A78" d="M104.951,17.085c4.872,1.092,10.304,0.577,15.348,0.577c4.307,0,9.728,0.789,13.657-0.549
		c4.949-1.686,5.843-5.971,7.553-9.806c1.842,15.971,5.595,31.4,5.595,48.147c0,14.961,1.548,30.268,0.452,45.303
		c-8.692,4.171-24.634,2.311-34.383,2.284c-6.708-0.019-20.799,1.094-21.894-2.737c-3.112-10.889-1.094-25.352-1.094-36.639
		c0-11.191-0.356-23.119,1.614-33.962c1.3-7.156,3.814-14.786,4.406-21.892C96.205,7.811,99.825,15.936,104.951,17.085z"/>
	<g>
		<path fill="#FFFFFF" d="M132.359,38.976c-2.226-0.858-3.542-3.234-3.991-6.332c-0.172-1.214,0.014-3.502,0.394-4.746
			c0.386-1.266,1.729-3.519,3.304-4.616c0,0,1.408-1.363,3.946-1.383c-0.601-0.415-1.299-0.753-2.125-0.987
			c-4.433-1.068-6.951,1.375-6.951,1.375c-1.871,1.301-3.465,3.978-3.923,5.481c-0.45,1.477-0.673,4.192-0.466,5.633
			c0.529,3.681,2.093,6.503,4.735,7.522c2.05,0.791,6.057,0.782,8.369-1.602C134.4,39.458,133.187,39.297,132.359,38.976z"/>
		<path d="M139.171,29.446c-0.033-2.962-0.757-5.893-3.16-7.547c-2.538,0.02-3.946,1.383-3.946,1.383
			c-1.575,1.097-2.918,3.35-3.304,4.616c-0.379,1.244-0.566,3.532-0.394,4.746c0.449,3.098,1.765,5.475,3.991,6.332
			c0.828,0.321,2.041,0.482,3.291,0.344c0.147-0.151,0.287-0.31,0.418-0.48C138.252,36.025,139.207,32.915,139.171,29.446z"/>
	</g>
	<g>
		<path fill="#FFFFFF" d="M103.899,38.976c-2.226-0.858-3.542-3.234-3.99-6.332c-0.172-1.214,0.014-3.502,0.393-4.746
			c0.386-1.266,1.73-3.519,3.304-4.616c0,0,1.408-1.363,3.945-1.383c-0.601-0.415-1.299-0.753-2.125-0.987
			c-4.433-1.068-6.952,1.375-6.952,1.375c-1.871,1.301-3.465,3.978-3.923,5.481c-0.45,1.477-0.673,4.192-0.466,5.633
			c0.529,3.681,2.093,6.503,4.736,7.522c2.05,0.791,6.056,0.782,8.369-1.602C105.941,39.458,104.727,39.297,103.899,38.976z"/>
		<path d="M110.711,29.446c-0.033-2.962-0.757-5.893-3.16-7.547c-2.537,0.02-3.945,1.383-3.945,1.383
			c-1.575,1.097-2.919,3.35-3.304,4.616c-0.379,1.244-0.565,3.532-0.393,4.746c0.448,3.098,1.764,5.475,3.99,6.332
			c0.828,0.321,2.042,0.482,3.291,0.344c0.147-0.151,0.287-0.31,0.419-0.48C109.793,36.025,110.748,32.915,110.711,29.446z"/>
	</g>
	<path fill="#E42A78" d="M133.239,103.223c10.775,0,21.571-0.203,32.344,0.02c-2.88-1.835-6.872-2.72-9.696-4.315
		c3.479-0.319,7.527-0.556,10.97-0.449c-1.42-0.997-7.407-3.4-9.904-4.012c3.2-1.352,7.154-2.755,10.217-4.379
		c-3.519,0.263-6.203,0-11.101,0.081c-5.569,0.092-11.409-0.081-16.994-0.081L133.239,103.223z"/>
	<path fill="none" stroke="#000000" stroke-width="1.0946" d="M132.143,63.817c0,12.836,0.635,35.205,15.27,40.117
		c0.239-3.973,0.054-8.032,0.054-12.022"/>
	<path d="M112.636,41.404c-2.155,1.779-5.734,4.205-8.282,5.063c0.618,1.324,3.188,2.947,4.335,3.906
		c1.109,0.929,2.268,1.773,3.321,2.69L112.636,41.404z"/>
</g>
<g>
	<path fill="#4CAEE2" d="M41.363,27.61c-1.646-2.696-2.526-4.629-3.937-7.593c-1.406-2.953-1.968-3.656-3.941-7.477
		c-0.688,1.438-0.699,4.107-0.699,5.79c0,2.067,0.129,3.615,0.661,5.59c0.562,2.088,1.608,4.497,3.034,6.187
		c1.692,2.005,3.315,2.182,5.586,2.988"/>
	<path d="M47.41,43.218c0,2.774,0.353,5.91-0.079,8.616c-0.935,0.06-1.911,0.059-2.842,0c-0.112-0.345-0.078-0.89,0.047-1.202
		c0.5,0.05,1.079-0.102,1.576-0.063c0.153-2.413-0.156-4.764-0.179-7.14"/>
	<path d="M53.948,43.218c0,2.774,0.353,5.91-0.079,8.616c-0.935,0.06-1.911,0.059-2.842,0c-0.112-0.345-0.078-0.89,0.047-1.202
		c0.5,0.05,1.079-0.102,1.576-0.063c0.153-2.413-0.156-4.764-0.179-7.14"/>
	<path fill="#4CAEE2" d="M45.085,10.724c1.878,0.421,3.971,0.223,5.915,0.223c1.66,0,3.749,0.304,5.263-0.211
		c1.907-0.65,2.252-2.301,2.911-3.779c0.71,6.155,2.156,12.101,2.156,18.555c0,5.766,0.597,11.665,0.174,17.459
		c-3.349,1.608-9.493,0.891-13.251,0.881c-2.585-0.008-8.016,0.422-8.438-1.055c-1.199-4.197-0.422-9.77-0.422-14.12
		c0-4.312-0.137-8.91,0.622-13.089c0.501-2.758,1.47-5.698,1.698-8.437C41.715,7.15,43.11,10.281,45.085,10.724z"/>
	<g>
		<path fill="#FFFFFF" d="M55.648,19.161c-0.857-0.331-1.365-1.246-1.538-2.441c-0.066-0.468,0.005-1.349,0.151-1.829
			c0.149-0.488,0.667-1.356,1.274-1.779c0,0,0.543-0.525,1.521-0.533c-0.232-0.16-0.501-0.29-0.819-0.38
			c-1.708-0.411-2.679,0.529-2.679,0.529c-0.721,0.501-1.336,1.533-1.512,2.112c-0.173,0.569-0.259,1.616-0.18,2.171
			c0.204,1.419,0.807,2.507,1.825,2.899c0.79,0.305,2.334,0.301,3.225-0.617C56.435,19.347,55.967,19.285,55.648,19.161z"/>
		<path d="M58.274,15.488c-0.013-1.141-0.292-2.271-1.218-2.909c-0.978,0.008-1.521,0.533-1.521,0.533
			c-0.607,0.423-1.125,1.291-1.274,1.779c-0.146,0.48-0.218,1.361-0.151,1.829c0.173,1.195,0.68,2.11,1.538,2.441
			c0.319,0.124,0.787,0.186,1.269,0.133c0.057-0.058,0.111-0.12,0.161-0.185C57.92,18.024,58.287,16.825,58.274,15.488z"/>
	</g>
	<g>
		<path fill="#FFFFFF" d="M44.68,19.161c-0.858-0.331-1.365-1.246-1.538-2.441c-0.066-0.468,0.006-1.349,0.152-1.829
			c0.149-0.488,0.666-1.356,1.273-1.779c0,0,0.543-0.525,1.521-0.533c-0.232-0.16-0.501-0.29-0.819-0.38
			c-1.708-0.411-2.679,0.529-2.679,0.529c-0.721,0.501-1.336,1.533-1.512,2.112c-0.174,0.569-0.259,1.616-0.18,2.171
			c0.204,1.419,0.807,2.507,1.825,2.899c0.79,0.305,2.334,0.301,3.225-0.617C45.467,19.347,44.999,19.285,44.68,19.161z"/>
		<path d="M47.305,15.488c-0.013-1.141-0.292-2.271-1.218-2.909c-0.978,0.008-1.521,0.533-1.521,0.533
			c-0.607,0.423-1.125,1.291-1.273,1.779c-0.146,0.48-0.218,1.361-0.152,1.829c0.173,1.195,0.68,2.11,1.538,2.441
			c0.319,0.124,0.787,0.186,1.269,0.133c0.057-0.058,0.111-0.12,0.161-0.185C46.952,18.024,47.319,16.825,47.305,15.488z"/>
	</g>
	<path d="M47.972,21.001c-2.975,0-8.263-0.803-8.584,3.368c-0.319,4.132,5.989,2.96,8.725,2.96"/>
	<path fill="none" stroke="#4CAEE2" stroke-width="0.8437" d="M38.972,24.516c1.687,0.281,3.234,0.281,6.328-0.281"/>
	<path fill="#4CAEE2" d="M55.988,43.922c4.153,0,3.169-0.078,7.321,0.007c-1.11-0.706-2.649-1.048-3.737-1.663
		c1.341-0.123,2.901-0.214,4.228-0.173c-0.548-0.384-2.855-1.311-3.817-1.546c1.233-0.521,2.757-1.062,3.938-1.687
		c-1.356,0.101-2.391,0-4.278,0.032c-2.146,0.035,0.748-0.032-1.405-0.032L55.988,43.922z"/>
	<path fill="#4CAEE2" d="M61.656,33.618c2.581-4.221,6.869-11.703,3.045-16.26c-0.877,1.258-1.633,2.63-2.435,3.942l-3.992,6.907
		l2.304,6.433L61.656,33.618z"/>
</g>
<g>
	<path fill="#CC7552" d="M201.654,42.935c-1.857,3.681-3.395,5.987-5.712,9.593c-2.307,3.592-2.7,4.7-5.58,9.518
		c2.069-0.226,5.036-2.052,6.903-3.21c2.292-1.423,3.919-2.631,5.745-4.581c1.929-2.061,3.881-4.879,4.774-7.623
		c1.06-3.257,0.138-5.18-0.531-8.252"/>
	<path d="M211.985,64.427c0,3.621,0.46,48.004-0.103,51.537c-1.221,0.078-2.495,0.076-3.709,0c-0.146-0.45-0.102-1.162,0.061-1.569
		c0.652,0.066,1.409-0.134,2.057-0.083c0.199-3.151-0.203-46.509-0.233-49.61"/>
	<path d="M220.52,64.427c0,3.621,0.46,48.004-0.103,51.537c-1.221,0.078-2.495,0.076-3.71,0c-0.146-0.45-0.102-1.162,0.061-1.569
		c0.652,0.066,1.409-0.134,2.057-0.083c0.2-3.151-0.203-46.509-0.233-49.61"/>
	<path fill="#CC7552" d="M208.951,22.012c2.451,0.549,5.184,0.29,7.721,0.29c2.167,0,4.894,0.397,6.87-0.276
		c2.49-0.848,2.939-3.004,3.8-4.933c0.927,8.035,2.814,15.797,2.814,24.221c0,7.526,0.779,15.227,0.228,22.79
		c-4.373,2.098-12.392,1.163-17.297,1.149c-3.375-0.01-10.463,0.55-11.014-1.377c-1.565-5.478-0.551-12.754-0.551-18.432
		c0-5.63-0.179-11.631,0.812-17.085c0.654-3.6,1.919-7.438,2.217-11.013C204.551,17.346,206.373,21.434,208.951,22.012z"/>
	<path fill="#CC7552" d="M223.182,65.345c5.42,0,10.852-0.102,16.271,0.01c-1.449-0.923-3.457-1.369-4.878-2.171
		c1.75-0.16,3.786-0.28,5.519-0.226c-0.714-0.501-3.726-1.711-4.982-2.018c1.61-0.68,3.599-1.386,5.14-2.203
		c-1.77,0.132-3.12,0-5.584,0.041c-2.802,0.046-5.739-0.041-8.549-0.041L223.182,65.345z"/>
	<path fill="none" stroke="#000000" stroke-width="0.5507" d="M222.631,45.521c0,6.458,0.319,17.711,7.682,20.182
		c0.12-1.998,0.027-4.041,0.027-6.048"/>
	<path d="M212.818,34.246c-1.084,0.895-2.884,2.115-4.166,2.547c0.311,0.666,1.604,1.483,2.181,1.965
		c0.558,0.467,1.141,0.892,1.671,1.353L212.818,34.246z"/>
	<g>
		<path fill="#FFFFFF" d="M221.316,29.418c1.917,0,3.469,1.417,3.54,3.187c0.917-1.323,1.327-2.772,1.31-4.374
			c-0.017-1.49-0.381-2.965-1.59-3.797c-0.302-0.209-0.653-0.379-1.069-0.496c-2.23-0.537-3.497,0.691-3.497,0.691
			c-0.941,0.654-1.743,2.001-1.973,2.757c-0.227,0.743-0.339,2.109-0.234,2.834c0.06,0.418,0.15,0.81,0.264,1.178
			C218.616,30.233,219.862,29.418,221.316,29.418z"/>
		<path d="M220.185,34.004c1.032,0.398,3.047,0.393,4.21-0.806c0.074-0.076,0.145-0.156,0.211-0.242
			c0.09-0.116,0.169-0.234,0.25-0.351c-0.07-1.77-1.622-3.187-3.54-3.187c-1.454,0-2.7,0.815-3.25,1.98
			C218.455,32.662,219.155,33.607,220.185,34.004z"/>
	</g>
	<g>
		<path fill="#FFFFFF" d="M207.599,29.418c1.715,0,3.103,1.271,3.158,2.856c0.763-1.233,1.107-2.573,1.092-4.043
			c-0.017-1.49-0.381-2.965-1.59-3.797c-0.302-0.209-0.653-0.379-1.069-0.496c-2.23-0.537-3.497,0.691-3.497,0.691
			c-0.941,0.654-1.743,2.001-1.973,2.757c-0.226,0.743-0.339,2.109-0.234,2.834c0.155,1.078,0.492,2.003,1.004,2.694
			c-0.036-0.177-0.059-0.359-0.059-0.545C204.431,30.739,205.849,29.418,207.599,29.418z"/>
		<path d="M205.868,34.004c1.031,0.398,3.047,0.393,4.21-0.806c0.074-0.076,0.145-0.156,0.211-0.242
			c0.173-0.223,0.326-0.452,0.469-0.683c-0.055-1.585-1.443-2.856-3.158-2.856c-1.75,0-3.168,1.321-3.168,2.951
			c0,0.187,0.023,0.368,0.059,0.545C204.857,33.41,205.312,33.789,205.868,34.004z"/>
	</g>
</g>
<g>
	<path d="M164.37,75.007c0,3.382,0.43,7.204-0.096,10.504c-1.14,0.073-2.331,0.071-3.464,0c-0.137-0.42-0.096-1.085,0.057-1.466
		c0.609,0.061,1.316-0.125,1.921-0.077c0.186-2.942-0.19-5.808-0.218-8.704"/>
	<path d="M172.341,75.007c0,3.382,0.43,7.204-0.096,10.504c-1.14,0.073-2.331,0.071-3.465,0c-0.136-0.42-0.095-1.085,0.058-1.466
		c0.609,0.061,1.316-0.125,1.922-0.077c0.186-2.942-0.19-5.808-0.218-8.704"/>
	<path fill="#40B97C" d="M161.537,35.394c2.289,0.513,4.842,0.271,7.21,0.271c2.023,0,4.571,0.371,6.417-0.258
		c2.325-0.792,2.745-10.456,3.548-12.257c0.866,7.504,2.629,22.403,2.629,30.271c0,7.029,0.728,14.22,0.213,21.284
		c-4.084,1.96-11.574,1.086-16.154,1.073c-3.152-0.009-9.772,0.514-10.286-1.286c-1.462-5.116-0.514-11.911-0.514-17.214
		c0-5.258-0.167-10.862,0.758-15.956c0.611-3.362,1.792-14.597,2.07-17.936C157.428,23.387,159.129,34.855,161.537,35.394z"/>
	<g>
		<path fill="#FFFFFF" d="M159.445,45.679c1.087-0.403,1.822-1.519,2.184-2.975c0.14-0.57,0.164-1.645,0.046-2.23
			c-0.119-0.595-0.641-1.653-1.327-2.169c0,0-0.595-0.64-1.786-0.65c0.302-0.195,0.647-0.354,1.046-0.464
			c2.135-0.502,3.199,0.646,3.199,0.646c0.816,0.611,1.434,1.869,1.576,2.575c0.14,0.694,0.113,1.97-0.055,2.647
			c-0.429,1.729-1.3,3.055-2.592,3.534c-1.002,0.372-2.884,0.367-3.854-0.753C158.463,45.906,159.041,45.83,159.445,45.679z"/>
		<path d="M156.709,41.202c0.16-1.391,0.643-2.768,1.853-3.546c1.191,0.009,1.786,0.65,1.786,0.65
			c0.687,0.515,1.208,1.574,1.327,2.169c0.118,0.585,0.094,1.659-0.046,2.23c-0.362,1.456-1.097,2.572-2.184,2.975
			c-0.404,0.151-0.983,0.226-1.563,0.162c-0.062-0.071-0.119-0.146-0.173-0.226C156.82,44.293,156.523,42.832,156.709,41.202z"/>
	</g>
	<g>
		<path fill="#FFFFFF" d="M172.816,45.679c1.088-0.403,1.822-1.519,2.184-2.975c0.14-0.57,0.164-1.645,0.047-2.23
			c-0.12-0.595-0.641-1.653-1.328-2.169c0,0-0.594-0.64-1.786-0.65c0.303-0.195,0.647-0.354,1.046-0.464
			c2.135-0.502,3.199,0.646,3.199,0.646c0.816,0.611,1.434,1.869,1.576,2.575c0.14,0.694,0.112,1.97-0.056,2.647
			c-0.427,1.729-1.3,3.055-2.591,3.534c-1.002,0.372-2.884,0.367-3.854-0.753C171.834,45.906,172.412,45.83,172.816,45.679z"/>
		<path d="M170.08,41.202c0.16-1.391,0.642-2.768,1.853-3.546c1.192,0.009,1.786,0.65,1.786,0.65
			c0.687,0.515,1.208,1.574,1.328,2.169c0.118,0.585,0.093,1.659-0.047,2.23c-0.362,1.456-1.096,2.572-2.184,2.975
			c-0.404,0.151-0.982,0.226-1.563,0.162c-0.062-0.071-0.12-0.146-0.173-0.226C170.191,44.293,169.894,42.832,170.08,41.202z"/>
	</g>
	<path fill="#40B97C" d="M174.827,75.864c5.062,0,17.295-0.095,22.357,0.009c-1.353-0.862-3.229-1.278-4.555-2.027
		c1.635-0.15,3.536-0.261,5.154-0.211c-0.667-0.468-3.48-1.598-4.653-1.885c1.503-0.635,3.36-1.294,4.8-2.057
		c-1.654,0.123-2.915,0-5.215,0.038c-2.617,0.043-12.521-0.038-15.145-0.038L174.827,75.864z"/>
	<path fill="none" stroke="#000000" stroke-width="0.5143" d="M174.313,57.35c0,6.031,0.298,16.54,7.174,18.848
		c0.113-1.866,0.026-3.774,0.026-5.648"/>
	<polygon points="164.452,47 168.214,47 166.333,53.689 	"/>
</g>
</svg>
