<?xml version="1.0" encoding="utf-8"?>
<!-- Generator: Adobe Illustrator 17.1.0, SVG Export Plug-In . SVG Version: 6.00 Build 0)  -->
<!DOCTYPE svg PUBLIC "-//W3C//DTD SVG 1.1//EN" "http://www.w3.org/Graphics/SVG/1.1/DTD/svg11.dtd">
<svg version="1.1" xmlns="http://www.w3.org/2000/svg" xmlns:xlink="http://www.w3.org/1999/xlink" x="0px" y="0px"
	 viewBox="0 0 320 110" enable-background="new 0 0 320 110" xml:space="preserve">
<g id="Layer_1">
	<g>
		<path fill="#E42A78" d="M138.2,25.6c-1.6-2.6-2.4-4.4-3.8-7.2c-1.3-2.8-1.9-3.5-3.8-7.1c-0.7,1.4-0.7,3.9-0.7,5.5
			c0,2,0.1,3.4,0.6,5.3c0.5,2,1.5,4.3,2.9,5.9c1.6,1.9,3.2,2.1,5.3,2.8"/>
		<path d="M144,40.4c0,2.6,0.3,5.6-0.1,8.2c-0.9,0.1-1.8,0.1-2.7,0c-0.1-0.3-0.1-0.8,0-1.1c0.5,0,1-0.1,1.5-0.1
			c0.1-2.3-0.1-4.5-0.2-6.8"/>
		<path d="M148.8,40.6c0,2.3,0.3,4.5,0.2,6.8c-0.5,0-1,0.1-1.5,0.1c-0.1,0.3-0.2,0.8,0,1.1c0.9,0.1,1.8,0.1,2.7,0
			c0.4-2.6,0.1-5.6,0.1-8.2"/>
		<path fill="#E42A78" d="M141.8,9.5c1.8,0.4,3.8,0.2,5.6,0.2c1.6,0,3.6,0.3,5-0.2c1.8-0.6,2.1-2.2,2.8-3.6
			c0.7,5.9,2.1,11.5,2.1,17.7c0,5.5,0.6,11.1,0.2,16.6c-3.2,1.5-9,0.8-12.6,0.8c-2.5,0-7.6,0.4-8-1c-1.1-4-0.4-9.3-0.4-13.5
			c0-4.1-0.1-8.5,0.6-12.5c0.5-2.6,1.4-5.4,1.6-8C138.6,6.1,139.9,9,141.8,9.5z"/>
		<g>
			<path fill="#FFFFFF" d="M151.8,17.5c-0.8-0.3-1.3-1.2-1.5-2.3c-0.1-0.4,0-1.3,0.1-1.7c0.1-0.5,0.6-1.3,1.2-1.7
				c0,0,0.5-0.5,1.4-0.5c-0.2-0.2-0.5-0.3-0.8-0.4c-1.6-0.4-2.6,0.5-2.6,0.5c-0.7,0.5-1.3,1.5-1.4,2c-0.2,0.5-0.2,1.5-0.2,2.1
				c0.2,1.4,0.8,2.4,1.7,2.8c0.8,0.3,2.2,0.3,3.1-0.6C152.6,17.7,152.1,17.6,151.8,17.5z"/>
			<path d="M154.3,14c0-1.1-0.3-2.2-1.2-2.8c-0.9,0-1.4,0.5-1.4,0.5c-0.6,0.4-1.1,1.2-1.2,1.7c-0.1,0.5-0.2,1.3-0.1,1.7
				c0.2,1.1,0.6,2,1.5,2.3c0.3,0.1,0.7,0.2,1.2,0.1c0.1-0.1,0.1-0.1,0.2-0.2C154,16.4,154.3,15.3,154.3,14z"/>
		</g>
		<g>
			<path fill="#FFFFFF" d="M141.4,17.5c-0.8-0.3-1.3-1.2-1.5-2.3c-0.1-0.4,0-1.3,0.1-1.7c0.1-0.5,0.6-1.3,1.2-1.7
				c0,0,0.5-0.5,1.4-0.5c-0.2-0.2-0.5-0.3-0.8-0.4c-1.6-0.4-2.6,0.5-2.6,0.5c-0.7,0.5-1.3,1.5-1.4,2c-0.2,0.5-0.2,1.5-0.2,2.1
				c0.2,1.4,0.8,2.4,1.7,2.8c0.8,0.3,2.2,0.3,3.1-0.6C142.1,17.7,141.7,17.6,141.4,17.5z"/>
			<path d="M143.9,14c0-1.1-0.3-2.2-1.2-2.8c-0.9,0-1.4,0.5-1.4,0.5c-0.6,0.4-1.1,1.2-1.2,1.7c-0.1,0.5-0.2,1.3-0.1,1.7
				c0.2,1.1,0.6,2,1.5,2.3c0.3,0.1,0.8,0.2,1.2,0.1c0.1-0.1,0.1-0.1,0.2-0.2C143.5,16.4,143.9,15.3,143.9,14z"/>
		</g>
		<path fill="#E42A78" d="M152.2,41.1c4,0,7.9-0.1,11.9,0c-1.1-0.7-2.5-1-3.6-1.6c1.3-0.1,2.8-0.2,4-0.2c-0.5-0.4-2.7-1.2-3.6-1.5
			c1.2-0.5,2.6-1,3.8-1.6c-1.3,0.1-2.3,0-4.1,0c-2,0-4.2,0-6.2,0L152.2,41.1z"/>
		<path d="M157.5,41.6l-0.2-0.1c-5.7-1.9-5.7-11-5.7-14.9h0.4c0,3.7,0,12.4,5.2,14.5c0-0.9,0-1.9,0-2.8c0-0.4,0-0.9,0-1.3h0.4
			c0,0.4,0,0.9,0,1.3c0,1,0,2.1,0,3.1L157.5,41.6z"/>
		<path d="M144.6,18.4c-0.8,0.7-2.1,1.5-3,1.9c0.2,0.5,1.2,1.1,1.6,1.4c0.4,0.3,0.8,0.7,1.2,1L144.6,18.4z"/>
	</g>
	<path fill="#FEF0D7" stroke="#FCB236" stroke-miterlimit="10" d="M158.9,103.7c0,0-5.3-27.3-4.5-36c0.8-8.7-2.1-20.9-2.1-20.9
		s-3.4-6.6,0-9c3.4-2.4,6.6-5,6.6-5s3.4,2.8,5.5,1.8c2.1-1,5.3-1.8,5.3-1.8s3.4-2.7,4.2-9.2c0.8-6.6,2.1-11.1,2.1-11.1
		s2.1,2.4,3.4,2.9c1.3,0.5,1.3,2.6,4.2,3.4c2.9,0.8,17.4-3.7,17.4-3.7s-1.6,3.2,0,2.9s5.8-1.1,5.8-1.1l4.2-2.1v3.2l3-1.7l1-0.3V14
		c0,0,0.4,3,2.5,1.9s3.5-3.4,4.3-1.6S224,18,224,18l2.1-0.5c0,0,3.2,2.1,1.9,2.6c-1.3,0.5,0.3,1.6,0.3,1.6s3,4.2,3,4.5
		c0.1,0.3,3.8,8.1,4,8.4c0.3,0.3,2.9,0,2.9,0s-0.5,2.7-1.6,2.7c-1.1,0-1.1,2.6-1.1,2.6l1.6,0.8c0,0,0.8,2.9-0.3,2.9
		c-1.1,0-2.6,0.3-2.6,0.3l0.9,1.8L238,47c1,0,0,2.4,0,2.4s-2.3-2.1-2.5-1.3c-0.3,0.8,1.4,2.9,1.4,3.7s-2.9,2.4-1.8,3.4
		c1.1,1.1,4.8,5.3,4.8,5.3l-1.3,4c0,0,0.8,3.1,3.2,2.6c2.4-0.5,0,2.1,0,2.1s-8.8,1.6-10.3-0.5s-3.1,4,10.1,2.1l6.6,6.3l-4,0.5
		c0,0,1.1,1.8,2.6,1.6c0,0-2.9,0-4-0.3c-1.1-0.3,0,2.6,0,2.6s-0.8,2.6,0.3,2.1c1.1-0.5,2.6-1.6,2.6-1.6l0.5,2.6c0,0,3.4-0.8,4.7,0.5
		s1.3,1.3,1.3,1.3s2.6,1.6,1.1,2.4s-4.5,3.7-3.7,4c0.8,0.3,4.2,1.8,4.2,1.8l-2.1,0.8l-2.1,2.1l-3.4-1.8c0,0-3.4,0.3-3.7-1.6
		c-0.3-1.8,0.3-5.5-1.1-3.4s-1.3,2.1-1.3,2.1l-4.7-4.2l-0.8,1.8l2.9,2.4l-0.5,1.6l4.5,3.2c0,0-3.2,3.7-2.4,4.5
		c0.8,0.8,1.6,1.6,1.6,1.6s-3.2,1.1-4.7,0s-1.8,0.5-1.8,0.5l-2.7-1.3l-1.3,1.3L158.9,103.7z"/>
	<text transform="matrix(1 0 0 1 187.0724 60.0101)"><tspan x="0" y="0" fill="#2F342F" font-family="'RobotoSlab-Bold'" font-size="10.3066">San</tspan><tspan x="-14.9" y="12.4" fill="#2F342F" font-family="'RobotoSlab-Bold'" font-size="10.3066">Francisco</tspan></text>
	<path fill="#FEF0D7" stroke="#FCB236" stroke-miterlimit="10" d="M66.1,36c0,0,4.5,4.7,6,3.7c1.6-1.1,1.4,0.6,4.1,0.1
		c2.6-0.4,8.2-3.9,8.2-3.9s0.6,0.8,2.1,0c1.6-0.8,4.2-1.4,4.2-1.4l4.8-1.3c0,0,1.3-3.4,2.4-3.4s1.8,1,2.6,0.2
		c0.8-0.8,2.4-2.2,2.4-2.2h1.2c0,0,4.8-1.9,3.8-4c0,0,7.8,0.3,9-0.2c1.3-0.5,5.7,1,5.7,1l3.2,0.2c0,0-2.4,5.3,0,5.8s5.8,0.8,5.8,2.1
		s-1.8,2.9,0,3.7s4.2,2.1,4.2,2.1l1.6,1.2c0,0,0.8,0.2,1.6,0c0.8-0.2,1.3-0.7,1.3-1.5c0-0.8,1.8-0.3,1.8-0.3s2.4-1.6,3.4-2.4
		c1.1-0.8,3.2,0.5,5.3,0.3c2.1-0.3,4.7-1.4,4.7-1.4s1.3,1.1,3.2,1.6s2.6,1.6,2.6,1.6s-2.9,1.8-1.6,2.1c1.3,0.3,3.7,0.8,3.4,1.9
		c-0.3,1.1,1.3,4.5,2.1,4.7c0.8,0.3,2.9,1.8,2.9,1.8l1.3,3.4c0,0-3.4-1.3-4.5,0c-1.1,1.3-2.9,1.3-2.9,1.3l-0.5,3.2
		c0,0-2.1,2.4-2.4,0s-0.3,2.1-1.1,2.6c-0.8,0.5-4.2,1.8-4,3.2c0.3,1.3,1.1,5.3,0.5,6.3s-3.2,4.5-4.5,4.8c-1.3,0.3-0.3,2.7-0.3,2.7
		h-2.3l-0.3,4.3l1.8,2.1l-1.8,1.2c0,0,1,5.5-0.8,7.1s-3.7,2-3.7,2.8s0,2.9,0,2.9s-3.2,1-3.2,2.6c0,1.6-0.1,3.4,0.2,4.2
		s1.2,2.4-1,2.3c-2.1-0.2-3.1-0.9-4.4-3.8c0,0-1.8,0.3-2.1,1.6c-0.3,1.3-1.6-1.3-1-2.9s1.9,0.3,0.5-1.6c-1.3-1.8-2.1-3.4-3.2-2.9
		c-1.1,0.5-2.9-2.4-3.7-0.8c-0.8,1.6-1.8,3.4-2.6,3.7c-0.8,0.3-2.6-0.5-2.6-0.5l-2.8,5.5c0,0-1.1,1.3-4-0.5s-2.6,0.3-2.9-1.8
		c-0.3-2.1-1.8-6.6-4.2-6.6c-2.4,0-2.9,2.1-2.9,2.1s-4.2-0.5-1.8-1.3c2.4-0.8,0.8-3.4,0.8-3.4l-3.2-2.6c0,0,1.8-3.7-0.5-2.6
		c-2.4,1.1-4.5,4.2-4.5,4.2l-0.3,1.6c0,0-1.8,1.6-1.8,2.4c0,0.8-0.8,2.4-2.1,2.6c-1.3,0.3-2.1-2.6-1.1-3.2c1.1-0.5,1.3-1.6,1.8-2.6
		c0.5-1.1,1.3-3.4,1.6-4.2c0.3-0.8-1.3-3.2-3.7-4.2c-2.4-1.1-2.9-2.9-4.7-1.8s-2.6-0.3-2.6-1.6c0-1.3-1.8-1.6-1.8-1.6
		s-1.8-1.6-3.7-1.3c-1.8,0.3-2.6-1.6-3.4-2.9c-0.8-1.3-0.3-2.4-2.1-2.6c-1.8-0.3-4.9-3.7-3.6-5.5c1.3-1.8,4.2-3,3.4-5.2
		c-0.8-2.2-1.8-7.7-1.8-7.7l1.6-2.4c0,0-0.8-4-1.8-5s-2.3-3.7-1.6-4.7C66.6,39.9,66.1,36,66.1,36z"/>
	<text transform="matrix(1 0 0 1 97.4211 64.519)" fill="#2F342F" font-family="'RobotoSlab-Bold'" font-size="10.3066">London</text>
</g>
<g id="Layer_4">
</g>
<g id="svg6517">
	<g id="Layer_1_1_">
	</g>
</g>
</svg>
