<?xml version="1.0" encoding="utf-8"?>
<!-- Generator: Adobe Illustrator 17.1.0, SVG Export Plug-In . SVG Version: 6.00 Build 0)  -->
<!DOCTYPE svg PUBLIC "-//W3C//DTD SVG 1.1//EN" "http://www.w3.org/Graphics/SVG/1.1/DTD/svg11.dtd">
<svg version="1.1" xmlns="http://www.w3.org/2000/svg" xmlns:xlink="http://www.w3.org/1999/xlink" x="0px" y="0px"
	 viewBox="0 0 619 810.1" enable-background="new 0 0 619 810.1" xml:space="preserve">
<g id="Layer_1">
</g>
<g id="svg6517">
	<g>
		<g>
			<g>
				<path fill="#40B97C" d="M126,241.3c-16.8-27.5-25.7-47.1-40.1-77.3c-14.3-30.1-20-37.2-40.1-76.1c-7,14.6-7.1,41.8-7.1,59
					c0,21,1.3,36.8,6.7,56.9c5.7,21.3,16.4,45.8,30.9,63c17.2,20.4,33.8,22.2,56.9,30.4"/>
				<path fill="#40B97C" d="M187.5,400.2c0,28.2,3.6,60.2-0.8,87.7c-9.5,0.6-19.5,0.6-28.9,0c-1.1-3.5-0.8-9.1,0.5-12.2
					c5.1,0.5,11-1,16.1-0.6c1.6-24.6-1.6-48.5-1.8-72.7"/>
				<path fill="#40B97C" d="M239.1,402.4c0.2,24.2,3.4,48.1,1.8,72.7c-5.1-0.4-11,1.2-16.1,0.6c-1.3,3.2-1.6,8.7-0.5,12.2
					c9.5,0.6,19.4,0.6,28.9,0c4.4-27.6,0.8-59.5,0.8-87.7"/>
				<path fill="#40B97C" d="M163.9,69.3c19.1,4.3,40.4,2.3,60.2,2.3c16.9,0,38.2,3.1,53.6-2.2c19.4-6.6,22.9-23.4,29.6-38.5
					c7.2,62.7,22,123.2,22,189c0,58.7,6.1,118.8,1.8,177.8c-34.1,16.4-96.7,9.1-134.9,9c-26.3-0.1-81.6,4.3-85.9-10.7
					c-12.2-42.7-4.3-99.5-4.3-143.8c0-43.9-1.4-90.7,6.3-133.3c5.1-28.1,15-58,17.3-85.9C129.5,32.9,143.8,64.8,163.9,69.3z"/>
				<g>
					<path fill="#40B97C" d="M271.4,155.2c-8.7-3.4-13.9-12.7-15.7-24.9c-0.7-4.8,0.1-13.7,1.5-18.6c1.5-5,6.8-13.8,13-18.1
						c0,0,5.5-5.3,15.5-5.4c-2.4-1.6-5.1-3-8.3-3.9c-17.4-4.2-27.3,5.4-27.3,5.4c-7.3,5.1-13.6,15.6-15.4,21.5
						c-1.8,5.8-2.6,16.5-1.8,22.1c2.1,14.4,8.2,25.5,18.6,29.5c8,3.1,23.8,3.1,32.8-6.3C279.4,157.1,274.7,156.5,271.4,155.2z"/>
					<path fill="#40B97C" d="M298.2,117.8c-0.1-11.6-3-23.1-12.4-29.6c-10,0.1-15.5,5.4-15.5,5.4c-6.2,4.3-11.5,13.1-13,18.1
						c-1.5,4.9-2.2,13.9-1.5,18.6c1.8,12.2,6.9,21.5,15.7,24.9c3.3,1.3,8,1.9,12.9,1.4c0.6-0.6,1.1-1.2,1.6-1.9
						C294.6,143.7,298.3,131.5,298.2,117.8z"/>
				</g>
				<g>
					<path fill="#40B97C" d="M159.7,155.2c-8.7-3.4-13.9-12.7-15.7-24.9c-0.7-4.8,0.1-13.7,1.5-18.6c1.5-5,6.8-13.8,13-18.1
						c0,0,5.5-5.3,15.5-5.4c-2.4-1.6-5.1-3-8.3-3.9c-17.4-4.2-27.3,5.4-27.3,5.4c-7.3,5.1-13.6,15.6-15.4,21.5
						c-1.8,5.8-2.6,16.5-1.8,22.1c2.1,14.4,8.2,25.5,18.6,29.5c8,3.1,23.8,3.1,32.8-6.3C167.8,157.1,163,156.5,159.7,155.2z"/>
					<path fill="#40B97C" d="M186.5,117.8c-0.1-11.6-3-23.1-12.4-29.6c-10,0.1-15.5,5.4-15.5,5.4c-6.2,4.3-11.5,13.1-13,18.1
						c-1.5,4.9-2.2,13.9-1.5,18.6c1.8,12.2,6.9,21.5,15.7,24.9c3.3,1.3,8,1.9,12.9,1.4c0.6-0.6,1.1-1.2,1.6-1.9
						C182.9,143.7,186.6,131.5,186.5,117.8z"/>
				</g>
				<path fill="#40B97C" d="M274.9,407.4c42.3,0,84.7-0.8,126.9,0.1c-11.3-7.2-27-10.7-38.1-16.9c13.7-1.3,29.5-2.2,43.1-1.8
					c-5.6-3.9-29.1-13.3-38.9-15.7c12.6-5.3,28.1-10.8,40.1-17.2c-13.8,1-24.3,0-43.6,0.3c-21.9,0.4-44.8-0.3-66.7-0.3L274.9,407.4z
					"/>
				<path fill="#40B97C" d="M332.5,413.1l-2.7-0.9c-61.4-20.6-61.4-117.9-61.4-159.5h4.3c0,40,0,132.8,55.8,154.4
					c0.5-9.9,0.3-20,0.2-29.9c-0.1-4.8-0.1-9.6-0.1-14.3h4.3c0,4.7,0.1,9.5,0.1,14.3c0.1,10.9,0.3,22.1-0.3,33.1L332.5,413.1z"/>
				<path fill="#40B97C" d="M194,164.8c-8.5,7-22.5,16.5-32.5,19.9c2.4,5.2,12.5,11.6,17,15.3c4.4,3.6,8.9,7,13,10.6L194,164.8z"/>
			</g>
			<rect x="807.2" y="-38.8" fill="#40B97C" width="156" height="196"/>
			<rect x="963.2" y="488.2" fill="#40B97C" width="195" height="157"/>
		</g>
		<g>
			<path fill="#40B97C" d="M525.5,666.8c3.7-6.5,12.9-20.3,12.9-25.9s-8.3-12-12-14.8c-3.7-2.8,6.5-15.7,6.5-15.7s-3.7-4.6-10.2,0
				c-6.5,4.6-8.3-3.7-8.3-3.7s-25,16.6-35.1,23.1c-10.2,6.5-21.3,5.5-27.7,0c-6.5-5.5-25.9-12.9-30.5-33.3
				c-4.6-20.3,6.5-49,11.1-51.8c4.6-2.8,6.5-16.6,6.5-25c0-8.3,45.3-51.8,47.1-56.4c1.8-4.6,11.1,3.7,11.1,12s12.9-0.9,22.2-1.8
				c9.2-0.9,5.5-7.4,5.5-7.4s-0.9-5.5-3.7-9.2c-2.8-3.7,16.6-8.3,16.6-8.3s2.8-8.3,12-12.9c9.2-4.6,4.6-14.8,4.6-14.8
				s-2.8-12-9.2-8.3c-6.5,3.7-17.6,11.1-26.8,8.3c-9.2-2.8,0.9-15.7,0.9-15.7l2.8-11.1c0,0,8.3-3.7,11.1-13.9
				c2.8-10.2-10.2-4.6-21.3-2.8c-11.1,1.8-8.3,10.2-7.4,17.6c0.9,7.4,6.5,12.9,9.2,12.9c2.8,0-3.7,12-3.7,12s0,3.7,6.5,8.3
				c6.5,4.6,0,16.2,0,16.2s-10.2-5.1-15.5-16.2c-5.3-11.1-26.1-0.9-26.1-0.9s14.8,8.3,22.2,8.3s4.6,9.2-10.2,8.8c0,0-9.2-2.3-11.1-6
				s-6.5,6.5-13.9,6c-7.4-0.5,0,15.3,0,15.3s-3.7,15.7-3.8,24s-11,9.2-17.5,6.5c-6.5-2.8-12.4,0-12.4,0s-2.4-15.7-4.3-21.3
				c-1.8-5.5,12-9.2,17.6-12c5.5-2.8,1.8-7.4-1.8-12.5s-11.1-3.2-11.4-7.9c-0.3-4.6,5.9-5.5,7.7-8.3c1.8-2.8,1.8-21.3,0-25
				s3.7-10.2,7.4-10.2c3.7,0,13.9-4.5,13.9-4.5s1.8-9.4,0-13.1s-12-12-12-12l4.8-22.2c0,0-5.7,8.3-6.7,12c-0.9,3.7-7.4,4.6-7.4,4.6
				L421,337.4l7.1,20.7c0,0,5,5.5,9.6,11c4.6,5.5,10.2,10.2,12,16.7c1.8,6.5-10.2,0-10.2,0l-10.1-9.3c0,0,1.8,4.6-1.3,8.3
				c-3.1,3.7-11.7-4.6-11.7-4.6s-10.2-4.6-10.2-11.2s1.8-16.6,0.9-19.4c-0.9-2.8-3.7-12-11-18.5c-7.3-6.5,10.1-11.1,10.1-11.1
				s15.7-1.8,21.8-5.3c6.1-3.4-11.4-22.6-11.4-22.6s-0.3-2.6,4.4-6.9c4.6-4.3-5.5-4-9.2-1.2c-3.7,2.8-12.9,0-12.9,0
				s-2.8-4.6-2.1-10.2c0.7-5.6-16.6-4-16.6-4s-11.8-7.1-29.3-6.2c0,0-2.2,9.9-10.8,4.6l8.9-18.5c0,0-10.2,0.9-22.3-6.5
				c-12-7.4,0,0-5.1-1.7c-5.1-1.7-14.8,7.2-14.8,7.2c-8.8-1.8,4.2-6.5,0-7.2c-4.2-0.7-15.5,3.5-15.5,3.5s-15.4,3.7-29,11.9
				c-13.6,8.2-24.4,0-24.4,0l2.6-12.8c0,0,2.2-2.5,5.2-5.8c-114,32.9-197.5,138-197.5,262.7c0,106.5,60.9,198.8,149.9,243.9
				c-0.7-2.2-1.4-4.6-2-7.1c-6.3-28.7-15.5-25.9-15.5-25.9s-41.6-43.5-44.4-50.8c-2.8-7.4-6.5-18.5,3.7-22.2s7.4-19.4,7.4-19.4
				l-1.8-12l-11.1,1.8c0,0-12-15.7-16.6-37.9c-4.6-22.2-12.6-27.7-16.5-31.4S73.4,506,77.1,494s6.5-39.1,6.5-39.1l1.8-10.3l-8.7,30
				c0,0,5-32.4,9.6-44.4c4.6-12,7.4-31.4,7.4-31.4s12.9-23.2,27.7-29.6c14.8-6.4,8.3-12,18.5-19.4c10.2-7.4,26.8-29.8,30.5-38.9
				c3.7-9.2,19.4-24.9,19.4-24.9s-8.3-10.7-1.8-12.3c6.5-1.6,15.6-7.1,15.6-7.1c3.7-0.9,15.9,0,17.7,0s13.7-12.9,16.5-5.5
				c2.9,7.4,0,17.6,0,17.6s-19.1,9.8-16.4,13.7c2.6,3.9,0.9,14.8-0.1,18.6c-1,3.8-1,3.8-1,3.8s9.3-1.4,9.8-4.8
				c0.4-3.5,6.4-12.7,10.4-8.1s1.6,6.7,0,9.8c0,0-2.7,5.4-2.6,10.5c0.1,6.1,5.4,1.5,8.2,0.2c-0.1-0.4-0.2-0.8-0.3-1.2
				c-2.4-10.2,3.3,1.8,1.6,0.9c-0.3-0.2-0.8,0-1.4,0.2c2.1,9.5,1.7,15.1,1.7,15.1l20.8-7c0,0-6.4-10.2-9.7-11.6
				c-3.3-1.4-5.7-7.3-5.7-7.3s1.6-18.9,5.7-13.5s6.9,4.1,3.4,12.4c-3.4,8.3,8,7.8,8,10.6l5.2-10.8c0,0-4-2.5,0-4.6
				c0,0,9.5-4.7,14.1-7.8c-0.6-1.7-0.4-2.6,1.7-2.6c1.7,0,0.6,1.1-1.7,2.6c1,2.7,4.1,7.3,5.7,13l6.4,4.1
				c12.9-2.1,27.6-13.5,30.4-4.1c2.8,9.4,2.7,20.7,7.8,26.6c5.2,5.9,4.2,10.5,4.2,17s0.8,11.9-4.2,14.7c-5,2.8-21,8.4-21.8,11.2
				c-0.8,2.8-1.7,7.4-4.5,15.7c-2.8,8.3-7.3,24-12,12.9c-4.6-11.1-10.8-32.4-10.5-35.1c0,0-15.3-27.7-17.2-21.3
				c-1.8,6.2,3.3,16.7,3.6,16.6c0-0.1,0-0.1,0,0c0,0,0,0,0,0c-0.2,1-1.2,10.6-3.7,5.6c-2.8-5.5-16-9.4-11.7-5.6
				c4.3,3.8,6.3,10.2,6.3,10.2c-14.9,5.5-20.1,8.3-18,1.8c2.1-6.5-3.2-12.1-3.2-12.1c13.7-6.4,29.2-13.1,21.1-13.8
				c-22.3-1.8-21.1,4.6-21.1,4.6l-9.6,9.2c-9.1-0.9-8.1-5.5-7.7-6.4c0.4-0.9-21.8,1.7-26.4,6.4c-4.6,4.7-15.2,13.9-7.6,17.6
				c7.6,3.7,6.7,17.6,5.8,22.2c-0.9,4.6,1.8,12.5,1.8,12.5s5-10.4,10.2-12.5c9.2-3.7,13-11.7,16.2-16.9c3.2-5.2,3.7-15.4,10.4-8.9
				c6.7,6.5-1.2,25,6.9,25.9c8.1,0.9,5.5-6.5,11.5-10.2c5.9-3.7,12.6,7.4,9.7,10.2c-2.9,2.8-6.3,16.6-6.3,16.6s6.4,10.2,6.3,12.9
				c-0.1,2.8-1.9,11.5,1.8,16.4c3.7,4.9,9.2,11.4,9.2,11.4h-11.3l-15-11.4l9.1-10.3c0,0-37.2-9.7-32.1-4.2s7.6,10.5,7.7,14.5
				s12.7,11.4,12.7,11.4s-19,6.5-20.5,5.5c-1.4-0.9,0-10.2,0-10.2s-18.2,3.9-21.4,10.3c-3.2,6.4-15.3,11-15.3,11
				s-0.8,11.1-13.7,12.9c-12.9,1.8-13.9,5.5-17.6,10.2c-3.7,4.6,1,19.4-5.5,23.1c-6.5,3.7-5.5-2.8-4.6-12
				c0.9-9.2-9.2-10.4-14.8-15.8c-5.5-5.4-8.3-11-14.8-11s-8.3,3.4-14.8,11c-6.5,7.5-10.2,31.6,0,34.3c10.2,2.8,10.2-3.7,14.8,0
				c4.6,3.7,5.5,13.9-0.9,16.6c-6.5,2.8,15.7,18.5,13.9,26.8c-1.8,8.3-7.4,10.2-0.9,15.7c6.5,5.5,14.8,0,14.8,0l4.6,15.7
				c0,0,10.2-7.4,17.6-5.5s12.9,11.1,12.9,11.1s17.4,9.2,24.4,9.2c7,0,11.7,7.4,12.6,10.2c0.9,2.8,11.5,12.9,19.1,14.8
				s12.9,2.8,21.8,12s3.6,16.6,6.3,16.6c2.7,0,21.3,7.4,26.8,7.4c5.5,0,10.9,0.1,26.2,4.7c15.3,4.6,34.9,7.3,27.4,12.9
				c-7.5,5.5-17.8,16.6-21.4,20.3c-3.6,3.7-4.8,15.7-9.3,18.5s-19.9,8.3-27,7.4c-7.1-0.9-13.6,10.2-17.3,11.1
				c-1.7,0.4-5.9,3.7-11.6,7c19,4.2,38.8,6.4,59.1,6.4c80.6,0,153-34.9,203.1-90.4C523.4,678.5,523.1,671,525.5,666.8z M162.2,567.2
				c0,0-8.8-18.8-15.9-27.4c-4.1-2.5-6.8-4.2-5.4-4.2c1.5,0,3.4,1.7,5.4,4.2c7.2,4.3,18.7,10.9,20.4,14.4c2.8,5.5,4.6,13,4.6,13
				H162.2z M176.9,582.2c-4.6,0-5.4-10.2-5.4-10.2c6.6-2.3,18.7,10.2,18.7,10.2S181.6,582.2,176.9,582.2z M362.7,385.8
				c0,0-6.5-1.6-6.5-7.3s0-5.6,0-5.6s10.2-3.7,13,0C372,376.5,362.7,385.8,362.7,385.8z M405.6,433.9c-4.1,0-10.5-21.3-4.1-21.3
				c0,0,2.8-8.3,6.5,0c3.7,8.3,0,14.8,0,14.8S409.7,433.9,405.6,433.9z M409.7,408.9c0,0-9.9-2.8-10.9-5.5s5.1-16.6,10.9-9.2
				c0,0,4.8,2.8,5.8,7.4c0.9,4.6,7.4,7.4,7.4,7.4s9.6,2.8,7.6,7.4c-2,4.6-10.2,13.9-10.2,13.9l-5.7,3.7c0,0,0.9-8.3,1.8-12.5
				C417.3,417.2,409.7,408.9,409.7,408.9z"/>
			<path fill="#40B97C" d="M321.6,227.9c-26.3,0-51.8,3.7-75.9,10.7c-3,3.3-5.2,5.8-5.2,5.8l-2.6,12.8c0,0,10.9,8.2,24.4,0
				c13.6-8.2,29-11.9,29-11.9s11.3-4.2,15.5-3.5c4.2,0.7-8.8,5.4,0,7.2c0,0,9.6-8.9,14.8-7.2c5.1,1.7-6.9-5.7,5.1,1.7
				c12,7.4,22.3,6.5,22.3,6.5l-8.9,18.5c8.7,5.3,10.8-4.6,10.8-4.6c17.5-0.9,29.3,6.2,29.3,6.2s17.2-1.6,16.6,4
				c-0.7,5.6,2.1,10.2,2.1,10.2s9.2,2.8,12.9,0c3.7-2.8,13.9-3.1,9.2,1.2c-4.6,4.3-4.4,6.9-4.4,6.9s17.5,19.2,11.4,22.6
				c-6.1,3.4-21.8,5.3-21.8,5.3s-17.4,4.6-10.1,11.1c7.3,6.5,10.1,15.7,11,18.5c0.9,2.8-0.9,12.8-0.9,19.4s10.2,11.2,10.2,11.2
				s8.6,8.3,11.7,4.6c3.1-3.7,1.3-8.3,1.3-8.3l10.1,9.3c0,0,12,6.5,10.2,0c-1.8-6.5-7.4-11.2-12-16.7c-4.6-5.5-9.6-11-9.6-11
				l-7.1-20.7l14.8,20.7c0,0,6.5-0.9,7.4-4.6c0.9-3.7,6.7-12,6.7-12l-4.8,22.2c0,0,10.2,8.3,12,12s0,13.1,0,13.1s-10.2,4.5-13.9,4.5
				c-3.7,0-9.2,6.5-7.4,10.2s1.8,22.2,0,25c-1.8,2.8-8.1,3.7-7.7,8.3c0.3,4.6,7.7,2.8,11.4,7.9s7.4,9.7,1.8,12.5
				c-5.5,2.8-19.4,6.5-17.6,12c1.8,5.5,4.3,21.3,4.3,21.3s5.9-2.8,12.4,0c6.5,2.8,17.4,1.8,17.5-6.5s3.8-24,3.8-24s-7.4-15.7,0-15.3
				c7.4,0.5,12-9.7,13.9-6s11.1,6,11.1,6c14.8,0.5,17.6-8.8,10.2-8.8s-22.2-8.3-22.2-8.3s20.8-10.2,26.1,0.9
				c5.3,11.1,15.5,16.2,15.5,16.2s6.5-11.6,0-16.2c-6.5-4.6-6.5-8.3-6.5-8.3s6.5-12,3.7-12c-2.8,0-8.3-5.5-9.2-12.9
				c-0.9-7.4-3.7-15.7,7.4-17.6c11.1-1.8,24-7.4,21.3,2.8c-2.8,10.2-11.1,13.9-11.1,13.9l-2.8,11.1c0,0-10.2,12.9-0.9,15.7
				c9.2,2.8,20.3-4.6,26.8-8.3c6.5-3.7,9.2,8.3,9.2,8.3s4.6,10.2-4.6,14.8c-9.2,4.6-12,12.9-12,12.9s-19.4,4.6-16.6,8.3
				c2.8,3.7,3.7,9.2,3.7,9.2s3.7,6.5-5.5,7.4c-9.2,0.9-22.2,10.2-22.2,1.8s-9.2-16.6-11.1-12c-1.8,4.6-47.1,48.1-47.1,56.4
				c0,8.3-1.8,22.2-6.5,25c-4.6,2.8-15.7,31.4-11.1,51.8c4.6,20.3,24,27.7,30.5,33.3c6.5,5.5,17.6,6.5,27.7,0
				c10.2-6.5,35.1-23.1,35.1-23.1s1.8,8.3,8.3,3.7c6.5-4.6,10.2,0,10.2,0s-10.2,12.9-6.5,15.7c3.7,2.8,12,9.2,12,14.8
				s-9.2,19.4-12.9,25.9c-2.4,4.1-2.1,11.7-0.8,17.3c43.7-48.4,70.3-112.6,70.3-182.9C594.9,350.3,472.5,227.9,321.6,227.9z"/>
			<path fill="#40B97C" d="M321.6,227.9c-26.3,0-51.8,3.7-75.9,10.7c-3,3.3-5.2,5.8-5.2,5.8l-2.6,12.8c0,0,10.9,8.2,24.4,0
				c13.6-8.2,29-11.9,29-11.9s11.3-4.2,15.5-3.5c4.2,0.7-8.8,5.4,0,7.2c0,0,9.6-8.9,14.8-7.2c5.1,1.7-6.9-5.7,5.1,1.7
				c12,7.4,22.3,6.5,22.3,6.5l-8.9,18.5c8.7,5.3,10.8-4.6,10.8-4.6c17.5-0.9,29.3,6.2,29.3,6.2s17.2-1.6,16.6,4
				c-0.7,5.6,2.1,10.2,2.1,10.2s9.2,2.8,12.9,0c3.7-2.8,13.9-3.1,9.2,1.2c-4.6,4.3-4.4,6.9-4.4,6.9s17.5,19.2,11.4,22.6
				c-6.1,3.4-21.8,5.3-21.8,5.3s-17.4,4.6-10.1,11.1c7.3,6.5,10.1,15.7,11,18.5c0.9,2.8-0.9,12.8-0.9,19.4s10.2,11.2,10.2,11.2
				s8.6,8.3,11.7,4.6c3.1-3.7,1.3-8.3,1.3-8.3l10.1,9.3c0,0,12,6.5,10.2,0c-1.8-6.5-7.4-11.2-12-16.7c-4.6-5.5-9.6-11-9.6-11
				l-7.1-20.7l14.8,20.7c0,0,6.5-0.9,7.4-4.6c0.9-3.7,6.7-12,6.7-12l-4.8,22.2c0,0,10.2,8.3,12,12s0,13.1,0,13.1s-10.2,4.5-13.9,4.5
				c-3.7,0-9.2,6.5-7.4,10.2s1.8,22.2,0,25c-1.8,2.8-8.1,3.7-7.7,8.3c0.3,4.6,7.7,2.8,11.4,7.9s7.4,9.7,1.8,12.5
				c-5.5,2.8-19.4,6.5-17.6,12c1.8,5.5,4.3,21.3,4.3,21.3s5.9-2.8,12.4,0c6.5,2.8,17.4,1.8,17.5-6.5s3.8-24,3.8-24s-7.4-15.7,0-15.3
				c7.4,0.5,12-9.7,13.9-6s11.1,6,11.1,6c14.8,0.5,17.6-8.8,10.2-8.8s-22.2-8.3-22.2-8.3s20.8-10.2,26.1,0.9
				c5.3,11.1,15.5,16.2,15.5,16.2s6.5-11.6,0-16.2c-6.5-4.6-6.5-8.3-6.5-8.3s6.5-12,3.7-12c-2.8,0-8.3-5.5-9.2-12.9
				c-0.9-7.4-3.7-15.7,7.4-17.6c11.1-1.8,24-7.4,21.3,2.8c-2.8,10.2-11.1,13.9-11.1,13.9l-2.8,11.1c0,0-10.2,12.9-0.9,15.7
				c9.2,2.8,20.3-4.6,26.8-8.3c6.5-3.7,9.2,8.3,9.2,8.3s4.6,10.2-4.6,14.8c-9.2,4.6-12,12.9-12,12.9s-19.4,4.6-16.6,8.3
				c2.8,3.7,3.7,9.2,3.7,9.2s3.7,6.5-5.5,7.4c-9.2,0.9-22.2,10.2-22.2,1.8s-9.2-16.6-11.1-12c-1.8,4.6-47.1,48.1-47.1,56.4
				c0,8.3-1.8,22.2-6.5,25c-4.6,2.8-15.7,31.4-11.1,51.8c4.6,20.3,24,27.7,30.5,33.3c6.5,5.5,17.6,6.5,27.7,0
				c10.2-6.5,35.1-23.1,35.1-23.1s1.8,8.3,8.3,3.7c6.5-4.6,10.2,0,10.2,0s-10.2,12.9-6.5,15.7c3.7,2.8,12,9.2,12,14.8
				s-9.2,19.4-12.9,25.9c-2.4,4.1-2.1,11.7-0.8,17.3c43.7-48.4,70.3-112.6,70.3-182.9C594.9,350.3,472.5,227.9,321.6,227.9z"/>
			<path fill="#40B97C" d="M408,412.6c-3.7-8.3-6.5,0-6.5,0c-6.5,0,0,21.3,4.1,21.3c4.1,0,2.4-6.5,2.4-6.5S411.7,420.9,408,412.6z"
				/>
			<path fill="#40B97C" d="M408,412.6c-3.7-8.3-6.5,0-6.5,0c-6.5,0,0,21.3,4.1,21.3c4.1,0,2.4-6.5,2.4-6.5S411.7,420.9,408,412.6z"
				/>
			<path fill="#40B97C" d="M414.5,433.9l5.7-3.7c0,0,8.2-9.2,10.2-13.9c2-4.6-7.6-7.4-7.6-7.4s-6.5-2.8-7.4-7.4
				c-0.9-4.6-5.8-7.4-5.8-7.4c-5.8-7.4-11.8,6.5-10.9,9.2s10.9,5.5,10.9,5.5s7.6,8.3,6.7,12.5C415.4,425.5,414.5,433.9,414.5,433.9z
				"/>
			<path fill="#40B97C" d="M414.5,433.9l5.7-3.7c0,0,8.2-9.2,10.2-13.9c2-4.6-7.6-7.4-7.6-7.4s-6.5-2.8-7.4-7.4
				c-0.9-4.6-5.8-7.4-5.8-7.4c-5.8-7.4-11.8,6.5-10.9,9.2s10.9,5.5,10.9,5.5s7.6,8.3,6.7,12.5C415.4,425.5,414.5,433.9,414.5,433.9z
				"/>
			<path fill="#40B97C" d="M291.2,750c7.1,0.9,22.5-4.6,27-7.4s5.7-14.8,9.3-18.5c3.6-3.7,13.9-14.8,21.4-20.3
				c7.5-5.5-12.1-8.3-27.4-12.9c-15.3-4.6-20.7-4.7-26.2-4.7c-5.5,0-24.1-7.4-26.8-7.4c-2.7,0,2.7-7.4-6.3-16.6s-14.2-10.2-21.8-12
				s-18.3-12-19.1-14.8c-0.9-2.8-5.6-10.2-12.6-10.2c-7,0-24.4-9.2-24.4-9.2s-5.5-9.2-12.9-11.1s-17.6,5.5-17.6,5.5l-4.6-15.7
				c0,0-8.3,5.5-14.8,0c-6.5-5.5-0.9-7.4,0.9-15.7c1.8-8.3-20.3-24-13.9-26.8c6.5-2.8,5.5-12.9,0.9-16.6c-4.6-3.7-4.6,2.8-14.8,0
				c-10.2-2.8-6.5-26.8,0-34.3c6.5-7.5,8.3-11,14.8-11s9.2,5.5,14.8,11c5.5,5.4,15.7,6.6,14.8,15.8c-0.9,9.2-1.8,15.7,4.6,12
				c6.5-3.7,1.8-18.5,5.5-23.1c3.7-4.6,4.7-8.3,17.6-10.2c12.9-1.8,13.7-12.9,13.7-12.9s12.1-4.6,15.3-11
				c3.2-6.4,21.4-10.3,21.4-10.3s-1.4,9.2,0,10.2c1.4,0.9,20.5-5.5,20.5-5.5s-12.6-7.4-12.7-11.4s-2.7-9-7.7-14.5s32.1,4.2,32.1,4.2
				l-9.1,10.3l15,11.4h11.3c0,0-5.5-6.5-9.2-11.4c-3.7-4.9-1.9-13.6-1.8-16.4c0.1-2.8-6.3-12.9-6.3-12.9s3.4-13.9,6.3-16.6
				c2.9-2.8-3.8-13.9-9.7-10.2c-5.9,3.7-3.3,11.1-11.5,10.2c-8.1-0.9-0.2-19.4-6.9-25.9c-6.7-6.5-7.2,3.7-10.4,8.9
				c-3.2,5.2-7,13.2-16.2,16.9c-5.2,2.1-10.2,12.5-10.2,12.5s-2.8-7.9-1.8-12.5c0.9-4.6,1.8-18.5-5.8-22.2c-7.6-3.7,3-12.9,7.6-17.6
				c4.6-4.7,26.8-7.3,26.4-6.4c-0.4,0.9-1.4,5.5,7.7,6.4l9.6-9.2c0,0-1.1-6.5,21.1-4.6c8,0.7-7.5,7.4-21.1,13.8
				c0,0,5.3,5.6,3.2,12.1c-2.1,6.5,3.1,3.7,18-1.8c0,0-1.9-6.5-6.3-10.2c-4.3-3.8,8.9,0.1,11.7,5.6c2.5,5.1,3.5-4.6,3.7-5.6
				c-0.4,0.1-5.5-10.4-3.6-16.6c1.9-6.5,17.2,21.3,17.2,21.3c-0.3,2.8,5.9,24,10.5,35.1c4.6,11.1,9.2-4.6,12-12.9
				c2.8-8.3,3.7-12.9,4.5-15.7c0.8-2.8,16.8-8.3,21.8-11.2c5-2.8,4.2-8.3,4.2-14.7s0.9-11.1-4.2-17c-5.2-5.9-5-17.2-7.8-26.6
				c-2.8-9.4-17.5,2-30.4,4.1l-6.4-4.1c-1.7-5.7-4.8-10.3-5.7-13c-4.6,3.1-14.1,7.8-14.1,7.8c-4,2.1,0,4.6,0,4.6l-5.2,10.8
				c0-2.8-11.5-2.3-8-10.6c3.4-8.3,0.6-6.9-3.4-12.4s-5.7,13.5-5.7,13.5s2.3,5.9,5.7,7.3c3.3,1.4,9.7,11.6,9.7,11.6l-20.8,7
				c0,0,0.4-5.6-1.7-15.1c-2.8,1.3-8.1,5.8-8.2-0.2c-0.1-5.2,2.6-10.5,2.6-10.5c1.6-3.1,3.9-5.2,0-9.8s-9.9,4.6-10.4,8.1
				c-0.4,3.5-9.8,4.8-9.8,4.8s0,0,1-3.8c1-3.8,2.7-14.7,0.1-18.6c-2.6-3.9,16.4-13.7,16.4-13.7s2.9-10.2,0-17.6
				c-2.9-7.4-14.7,5.5-16.5,5.5s-14-0.9-17.7,0c0,0-9.1,5.5-15.6,7.1c-6.5,1.6,1.8,12.3,1.8,12.3s-15.7,15.7-19.4,24.9
				c-3.7,9.2-20.3,31.5-30.5,38.9c-10.2,7.4-3.7,12.9-18.5,19.4c-14.8,6.4-27.7,29.6-27.7,29.6s-2.8,19.4-7.4,31.4
				c-4.6,12-9.6,44.4-9.6,44.4l8.7-30l-1.8,10.3c0,0-2.8,27.1-6.5,39.1s20.3,42.5,24.2,46.2s11.9,9.2,16.5,31.4
				c4.6,22.2,16.6,37.9,16.6,37.9l11.1-1.8l1.8,12c0,0,2.8,15.7-7.4,19.4s-6.5,14.8-3.7,22.2c2.8,7.4,44.4,50.8,44.4,50.8
				s9.2-2.8,15.5,25.9c0.6,2.6,1.2,4.9,2,7.1c20.1,10.2,41.7,18,64.3,23c5.7-3.3,9.9-6.6,11.6-7C277.7,760.2,284.2,749.1,291.2,750z
				"/>
			<path fill="#40B97C" d="M291.2,750c7.1,0.9,22.5-4.6,27-7.4s5.7-14.8,9.3-18.5c3.6-3.7,13.9-14.8,21.4-20.3
				c7.5-5.5-12.1-8.3-27.4-12.9c-15.3-4.6-20.7-4.7-26.2-4.7c-5.5,0-24.1-7.4-26.8-7.4c-2.7,0,2.7-7.4-6.3-16.6s-14.2-10.2-21.8-12
				s-18.3-12-19.1-14.8c-0.9-2.8-5.6-10.2-12.6-10.2c-7,0-24.4-9.2-24.4-9.2s-5.5-9.2-12.9-11.1s-17.6,5.5-17.6,5.5l-4.6-15.7
				c0,0-8.3,5.5-14.8,0c-6.5-5.5-0.9-7.4,0.9-15.7c1.8-8.3-20.3-24-13.9-26.8c6.5-2.8,5.5-12.9,0.9-16.6c-4.6-3.7-4.6,2.8-14.8,0
				c-10.2-2.8-6.5-26.8,0-34.3c6.5-7.5,8.3-11,14.8-11s9.2,5.5,14.8,11c5.5,5.4,15.7,6.6,14.8,15.8c-0.9,9.2-1.8,15.7,4.6,12
				c6.5-3.7,1.8-18.5,5.5-23.1c3.7-4.6,4.7-8.3,17.6-10.2c12.9-1.8,13.7-12.9,13.7-12.9s12.1-4.6,15.3-11
				c3.2-6.4,21.4-10.3,21.4-10.3s-1.4,9.2,0,10.2c1.4,0.9,20.5-5.5,20.5-5.5s-12.6-7.4-12.7-11.4s-2.7-9-7.7-14.5s32.1,4.2,32.1,4.2
				l-9.1,10.3l15,11.4h11.3c0,0-5.5-6.5-9.2-11.4c-3.7-4.9-1.9-13.6-1.8-16.4c0.1-2.8-6.3-12.9-6.3-12.9s3.4-13.9,6.3-16.6
				c2.9-2.8-3.8-13.9-9.7-10.2c-5.9,3.7-3.3,11.1-11.5,10.2c-8.1-0.9-0.2-19.4-6.9-25.9c-6.7-6.5-7.2,3.7-10.4,8.9
				c-3.2,5.2-7,13.2-16.2,16.9c-5.2,2.1-10.2,12.5-10.2,12.5s-2.8-7.9-1.8-12.5c0.9-4.6,1.8-18.5-5.8-22.2c-7.6-3.7,3-12.9,7.6-17.6
				c4.6-4.7,26.8-7.3,26.4-6.4c-0.4,0.9-1.4,5.5,7.7,6.4l9.6-9.2c0,0-1.1-6.5,21.1-4.6c8,0.7-7.5,7.4-21.1,13.8
				c0,0,5.3,5.6,3.2,12.1c-2.1,6.5,3.1,3.7,18-1.8c0,0-1.9-6.5-6.3-10.2c-4.3-3.8,8.9,0.1,11.7,5.6c2.5,5.1,3.5-4.6,3.7-5.6
				c-0.4,0.1-5.5-10.4-3.6-16.6c1.9-6.5,17.2,21.3,17.2,21.3c-0.3,2.8,5.9,24,10.5,35.1c4.6,11.1,9.2-4.6,12-12.9
				c2.8-8.3,3.7-12.9,4.5-15.7c0.8-2.8,16.8-8.3,21.8-11.2c5-2.8,4.2-8.3,4.2-14.7s0.9-11.1-4.2-17c-5.2-5.9-5-17.2-7.8-26.6
				c-2.8-9.4-17.5,2-30.4,4.1l-6.4-4.1c-1.7-5.7-4.8-10.3-5.7-13c-4.6,3.1-14.1,7.8-14.1,7.8c-4,2.1,0,4.6,0,4.6l-5.2,10.8
				c0-2.8-11.5-2.3-8-10.6c3.4-8.3,0.6-6.9-3.4-12.4s-5.7,13.5-5.7,13.5s2.3,5.9,5.7,7.3c3.3,1.4,9.7,11.6,9.7,11.6l-20.8,7
				c0,0,0.4-5.6-1.7-15.1c-2.8,1.3-8.1,5.8-8.2-0.2c-0.1-5.2,2.6-10.5,2.6-10.5c1.6-3.1,3.9-5.2,0-9.8s-9.9,4.6-10.4,8.1
				c-0.4,3.5-9.8,4.8-9.8,4.8s0,0,1-3.8c1-3.8,2.7-14.7,0.1-18.6c-2.6-3.9,16.4-13.7,16.4-13.7s2.9-10.2,0-17.6
				c-2.9-7.4-14.7,5.5-16.5,5.5s-14-0.9-17.7,0c0,0-9.1,5.5-15.6,7.1c-6.5,1.6,1.8,12.3,1.8,12.3s-15.7,15.7-19.4,24.9
				c-3.7,9.2-20.3,31.5-30.5,38.9c-10.2,7.4-3.7,12.9-18.5,19.4c-14.8,6.4-27.7,29.6-27.7,29.6s-2.8,19.4-7.4,31.4
				c-4.6,12-9.6,44.4-9.6,44.4l8.7-30l-1.8,10.3c0,0-2.8,27.1-6.5,39.1s20.3,42.5,24.2,46.2s11.9,9.2,16.5,31.4
				c4.6,22.2,16.6,37.9,16.6,37.9l11.1-1.8l1.8,12c0,0,2.8,15.7-7.4,19.4s-6.5,14.8-3.7,22.2c2.8,7.4,44.4,50.8,44.4,50.8
				s9.2-2.8,15.5,25.9c0.6,2.6,1.2,4.9,2,7.1c20.1,10.2,41.7,18,64.3,23c5.7-3.3,9.9-6.6,11.6-7C277.7,760.2,284.2,749.1,291.2,750z
				"/>
			<path fill="#40B97C" d="M277.7,369.1C277.7,369,277.7,369,277.7,369.1C277.7,369.1,277.7,369.1,277.7,369.1z"/>
			<path fill="#40B97C" d="M277.7,369.1C277.7,369,277.7,369,277.7,369.1C277.7,369.1,277.7,369.1,277.7,369.1z"/>
			<path fill="#40B97C" d="M291.2,295.2c-2,0-2.3,0.9-1.7,2.6C291.8,296.3,293,295.2,291.2,295.2z"/>
			<path fill="#40B97C" d="M291.2,295.2c-2,0-2.3,0.9-1.7,2.6C291.8,296.3,293,295.2,291.2,295.2z"/>
			<path fill="#40B97C" d="M247.4,322c1.6,0.9-4-11.1-1.6-0.9c0.1,0.4,0.2,0.8,0.3,1.2C246.6,322,247.1,321.8,247.4,322z"/>
			<path fill="#40B97C" d="M247.4,322c1.6,0.9-4-11.1-1.6-0.9c0.1,0.4,0.2,0.8,0.3,1.2C246.6,322,247.1,321.8,247.4,322z"/>
			<path fill="#40B97C" d="M356.2,372.9c0,0,0,0,0,5.6s6.5,7.3,6.5,7.3s9.3-9.2,6.5-12.9C366.4,369.2,356.2,372.9,356.2,372.9z"/>
			<path fill="#40B97C" d="M356.2,372.9c0,0,0,0,0,5.6s6.5,7.3,6.5,7.3s9.3-9.2,6.5-12.9C366.4,369.2,356.2,372.9,356.2,372.9z"/>
			<path fill="#40B97C" d="M146.4,539.8c7,8.6,15.9,27.4,15.9,27.4h9.2c0,0-1.8-7.5-4.6-13C165,550.7,153.5,544.1,146.4,539.8z"/>
			<path fill="#40B97C" d="M146.4,539.8c7,8.6,15.9,27.4,15.9,27.4h9.2c0,0-1.8-7.5-4.6-13C165,550.7,153.5,544.1,146.4,539.8z"/>
			<path fill="#40B97C" d="M140.9,535.7c-1.4,0,1.3,1.7,5.4,4.2C144.3,537.3,142.4,535.7,140.9,535.7z"/>
			<path fill="#40B97C" d="M140.9,535.7c-1.4,0,1.3,1.7,5.4,4.2C144.3,537.3,142.4,535.7,140.9,535.7z"/>
			<path fill="#40B97C" d="M171.6,572.1c0,0,0.8,10.2,5.4,10.2c4.6,0,13.3,0,13.3,0S178.2,569.7,171.6,572.1z"/>
			<path fill="#40B97C" d="M171.6,572.1c0,0,0.8,10.2,5.4,10.2c4.6,0,13.3,0,13.3,0S178.2,569.7,171.6,572.1z"/>
		</g>
	</g>
	<g>
		<g>
			<g>
				<path fill="#E42A78" d="M126,241.3c-16.8-27.5-25.7-47.1-40.1-77.3c-14.3-30.1-20-37.2-40.1-76.1c-7,14.6-7.1,41.8-7.1,59
					c0,21,1.3,36.8,6.7,56.9c5.7,21.3,16.4,45.8,30.9,63c17.2,20.4,33.8,22.2,56.9,30.4"/>
				<path d="M187.5,400.2c0,28.2,3.6,60.2-0.8,87.7c-9.5,0.6-19.5,0.6-28.9,0c-1.1-3.5-0.8-9.1,0.5-12.2c5.1,0.5,11-1,16.1-0.6
					c1.6-24.6-1.6-48.5-1.8-72.7"/>
				<path d="M239.1,402.4c0.2,24.2,3.4,48.1,1.8,72.7c-5.1-0.4-11,1.2-16.1,0.6c-1.3,3.2-1.6,8.7-0.5,12.2c9.5,0.6,19.4,0.6,28.9,0
					c4.4-27.6,0.8-59.5,0.8-87.7"/>
				<path fill="#E42A78" d="M163.9,69.3c19.1,4.3,40.4,2.3,60.2,2.3c16.9,0,38.2,3.1,53.6-2.2c19.4-6.6,22.9-23.4,29.6-38.5
					c7.2,62.7,22,123.2,22,189c0,58.7,6.1,118.8,1.8,177.8c-34.1,16.4-96.7,9.1-134.9,9c-26.3-0.1-81.6,4.3-85.9-10.7
					c-12.2-42.7-4.3-99.5-4.3-143.8c0-43.9-1.4-90.7,6.3-133.3c5.1-28.1,15-58,17.3-85.9C129.5,32.9,143.8,64.8,163.9,69.3z"/>
				<g>
					<path fill="#FFFFFF" d="M271.4,155.2c-8.7-3.4-13.9-12.7-15.7-24.9c-0.7-4.8,0.1-13.7,1.5-18.6c1.5-5,6.8-13.8,13-18.1
						c0,0,5.5-5.3,15.5-5.4c-2.4-1.6-5.1-3-8.3-3.9c-17.4-4.2-27.3,5.4-27.3,5.4c-7.3,5.1-13.6,15.6-15.4,21.5
						c-1.8,5.8-2.6,16.5-1.8,22.1c2.1,14.4,8.2,25.5,18.6,29.5c8,3.1,23.8,3.1,32.8-6.3C279.4,157.1,274.7,156.5,271.4,155.2z"/>
					<path d="M298.2,117.8c-0.1-11.6-3-23.1-12.4-29.6c-10,0.1-15.5,5.4-15.5,5.4c-6.2,4.3-11.5,13.1-13,18.1
						c-1.5,4.9-2.2,13.9-1.5,18.6c1.8,12.2,6.9,21.5,15.7,24.9c3.3,1.3,8,1.9,12.9,1.4c0.6-0.6,1.1-1.2,1.6-1.9
						C294.6,143.7,298.3,131.5,298.2,117.8z"/>
				</g>
				<g>
					<path fill="#FFFFFF" d="M159.7,155.2c-8.7-3.4-13.9-12.7-15.7-24.9c-0.7-4.8,0.1-13.7,1.5-18.6c1.5-5,6.8-13.8,13-18.1
						c0,0,5.5-5.3,15.5-5.4c-2.4-1.6-5.1-3-8.3-3.9c-17.4-4.2-27.3,5.4-27.3,5.4c-7.3,5.1-13.6,15.6-15.4,21.5
						c-1.8,5.8-2.6,16.5-1.8,22.1c2.1,14.4,8.2,25.5,18.6,29.5c8,3.1,23.8,3.1,32.8-6.3C167.8,157.1,163,156.5,159.7,155.2z"/>
					<path d="M186.5,117.8c-0.1-11.6-3-23.1-12.4-29.6c-10,0.1-15.5,5.4-15.5,5.4c-6.2,4.3-11.5,13.1-13,18.1
						c-1.5,4.9-2.2,13.9-1.5,18.6c1.8,12.2,6.9,21.5,15.7,24.9c3.3,1.3,8,1.9,12.9,1.4c0.6-0.6,1.1-1.2,1.6-1.9
						C182.9,143.7,186.6,131.5,186.5,117.8z"/>
				</g>
				<path fill="#E42A78" d="M274.9,407.4c42.3,0,84.7-0.8,126.9,0.1c-11.3-7.2-27-10.7-38.1-16.9c13.7-1.3,29.5-2.2,43.1-1.8
					c-5.6-3.9-29.1-13.3-38.9-15.7c12.6-5.3,28.1-10.8,40.1-17.2c-13.8,1-24.3,0-43.6,0.3c-21.9,0.4-44.8-0.3-66.7-0.3L274.9,407.4z
					"/>
				<path d="M332.5,413.1l-2.7-0.9c-61.4-20.6-61.4-117.9-61.4-159.5h4.3c0,40,0,132.8,55.8,154.4c0.5-9.9,0.3-20,0.2-29.9
					c-0.1-4.8-0.1-9.6-0.1-14.3h4.3c0,4.7,0.1,9.5,0.1,14.3c0.1,10.9,0.3,22.1-0.3,33.1L332.5,413.1z"/>
				<path d="M194,164.8c-8.5,7-22.5,16.5-32.5,19.9c2.4,5.2,12.5,11.6,17,15.3c4.4,3.6,8.9,7,13,10.6L194,164.8z"/>
			</g>
			<rect x="807.2" y="-38.8" fill="#F2EEE2" width="156" height="196"/>
			<rect x="963.2" y="488.2" fill="#4CAEE2" width="195" height="157"/>
		</g>
		<g>
			<radialGradient id="SVGID_1_" cx="321.5539" cy="501.2253" r="273.3333" gradientUnits="userSpaceOnUse">
				<stop  offset="0.1633" style="stop-color:#94CEEE"/>
				<stop  offset="0.6419" style="stop-color:#4CAEE2"/>
			</radialGradient>
			<path fill="url(#SVGID_1_)" d="M525.5,666.8c3.7-6.5,12.9-20.3,12.9-25.9s-8.3-12-12-14.8c-3.7-2.8,6.5-15.7,6.5-15.7
				s-3.7-4.6-10.2,0c-6.5,4.6-8.3-3.7-8.3-3.7s-25,16.6-35.1,23.1c-10.2,6.5-21.3,5.5-27.7,0c-6.5-5.5-25.9-12.9-30.5-33.3
				c-4.6-20.3,6.5-49,11.1-51.8c4.6-2.8,6.5-16.6,6.5-25c0-8.3,45.3-51.8,47.1-56.4c1.8-4.6,11.1,3.7,11.1,12s12.9-0.9,22.2-1.8
				c9.2-0.9,5.5-7.4,5.5-7.4s-0.9-5.5-3.7-9.2c-2.8-3.7,16.6-8.3,16.6-8.3s2.8-8.3,12-12.9c9.2-4.6,4.6-14.8,4.6-14.8
				s-2.8-12-9.2-8.3c-6.5,3.7-17.6,11.1-26.8,8.3c-9.2-2.8,0.9-15.7,0.9-15.7l2.8-11.1c0,0,8.3-3.7,11.1-13.9
				c2.8-10.2-10.2-4.6-21.3-2.8c-11.1,1.8-8.3,10.2-7.4,17.6c0.9,7.4,6.5,12.9,9.2,12.9c2.8,0-3.7,12-3.7,12s0,3.7,6.5,8.3
				c6.5,4.6,0,16.2,0,16.2s-10.2-5.1-15.5-16.2c-5.3-11.1-26.1-0.9-26.1-0.9s14.8,8.3,22.2,8.3s4.6,9.2-10.2,8.8c0,0-9.2-2.3-11.1-6
				s-6.5,6.5-13.9,6c-7.4-0.5,0,15.3,0,15.3s-3.7,15.7-3.8,24s-11,9.2-17.5,6.5c-6.5-2.8-12.4,0-12.4,0s-2.4-15.7-4.3-21.3
				c-1.8-5.5,12-9.2,17.6-12c5.5-2.8,1.8-7.4-1.8-12.5s-11.1-3.2-11.4-7.9c-0.3-4.6,5.9-5.5,7.7-8.3c1.8-2.8,1.8-21.3,0-25
				s3.7-10.2,7.4-10.2c3.7,0,13.9-4.5,13.9-4.5s1.8-9.4,0-13.1s-12-12-12-12l4.8-22.2c0,0-5.7,8.3-6.7,12c-0.9,3.7-7.4,4.6-7.4,4.6
				L421,337.4l7.1,20.7c0,0,5,5.5,9.6,11c4.6,5.5,10.2,10.2,12,16.7c1.8,6.5-10.2,0-10.2,0l-10.1-9.3c0,0,1.8,4.6-1.3,8.3
				c-3.1,3.7-11.7-4.6-11.7-4.6s-10.2-4.6-10.2-11.2s1.8-16.6,0.9-19.4c-0.9-2.8-3.7-12-11-18.5c-7.3-6.5,10.1-11.1,10.1-11.1
				s15.7-1.8,21.8-5.3c6.1-3.4-11.4-22.6-11.4-22.6s-0.3-2.6,4.4-6.9c4.6-4.3-5.5-4-9.2-1.2c-3.7,2.8-12.9,0-12.9,0
				s-2.8-4.6-2.1-10.2c0.7-5.6-16.6-4-16.6-4s-11.8-7.1-29.3-6.2c0,0-2.2,9.9-10.8,4.6l8.9-18.5c0,0-10.2,0.9-22.3-6.5
				c-12-7.4,0,0-5.1-1.7c-5.1-1.7-14.8,7.2-14.8,7.2c-8.8-1.8,4.2-6.5,0-7.2c-4.2-0.7-15.5,3.5-15.5,3.5s-15.4,3.7-29,11.9
				c-13.6,8.2-24.4,0-24.4,0l2.6-12.8c0,0,2.2-2.5,5.2-5.8c-114,32.9-197.5,138-197.5,262.7c0,106.5,60.9,198.8,149.9,243.9
				c-0.7-2.2-1.4-4.6-2-7.1c-6.3-28.7-15.5-25.9-15.5-25.9s-41.6-43.5-44.4-50.8c-2.8-7.4-6.5-18.5,3.7-22.2s7.4-19.4,7.4-19.4
				l-1.8-12l-11.1,1.8c0,0-12-15.7-16.6-37.9c-4.6-22.2-12.6-27.7-16.5-31.4S73.4,506,77.1,494s6.5-39.1,6.5-39.1l1.8-10.3l-8.7,30
				c0,0,5-32.4,9.6-44.4c4.6-12,7.4-31.4,7.4-31.4s12.9-23.2,27.7-29.6c14.8-6.4,8.3-12,18.5-19.4c10.2-7.4,26.8-29.8,30.5-38.9
				c3.7-9.2,19.4-24.9,19.4-24.9s-8.3-10.7-1.8-12.3c6.5-1.6,15.6-7.1,15.6-7.1c3.7-0.9,15.9,0,17.7,0s13.7-12.9,16.5-5.5
				c2.9,7.4,0,17.6,0,17.6s-19.1,9.8-16.4,13.7c2.6,3.9,0.9,14.8-0.1,18.6c-1,3.8-1,3.8-1,3.8s9.3-1.4,9.8-4.8
				c0.4-3.5,6.4-12.7,10.4-8.1s1.6,6.7,0,9.8c0,0-2.7,5.4-2.6,10.5c0.1,6.1,5.4,1.5,8.2,0.2c-0.1-0.4-0.2-0.8-0.3-1.2
				c-2.4-10.2,3.3,1.8,1.6,0.9c-0.3-0.2-0.8,0-1.4,0.2c2.1,9.5,1.7,15.1,1.7,15.1l20.8-7c0,0-6.4-10.2-9.7-11.6
				c-3.3-1.4-5.7-7.3-5.7-7.3s1.6-18.9,5.7-13.5s6.9,4.1,3.4,12.4c-3.4,8.3,8,7.8,8,10.6l5.2-10.8c0,0-4-2.5,0-4.6
				c0,0,9.5-4.7,14.1-7.8c-0.6-1.7-0.4-2.6,1.7-2.6c1.7,0,0.6,1.1-1.7,2.6c1,2.7,4.1,7.3,5.7,13l6.4,4.1
				c12.9-2.1,27.6-13.5,30.4-4.1c2.8,9.4,2.7,20.7,7.8,26.6c5.2,5.9,4.2,10.5,4.2,17s0.8,11.9-4.2,14.7c-5,2.8-21,8.4-21.8,11.2
				c-0.8,2.8-1.7,7.4-4.5,15.7c-2.8,8.3-7.3,24-12,12.9c-4.6-11.1-10.8-32.4-10.5-35.1c0,0-15.3-27.7-17.2-21.3
				c-1.8,6.2,3.3,16.7,3.6,16.6c0-0.1,0-0.1,0,0c0,0,0,0,0,0c-0.2,1-1.2,10.6-3.7,5.6c-2.8-5.5-16-9.4-11.7-5.6
				c4.3,3.8,6.3,10.2,6.3,10.2c-14.9,5.5-20.1,8.3-18,1.8c2.1-6.5-3.2-12.1-3.2-12.1c13.7-6.4,29.2-13.1,21.1-13.8
				c-22.3-1.8-21.1,4.6-21.1,4.6l-9.6,9.2c-9.1-0.9-8.1-5.5-7.7-6.4c0.4-0.9-21.8,1.7-26.4,6.4c-4.6,4.7-15.2,13.9-7.6,17.6
				c7.6,3.7,6.7,17.6,5.8,22.2c-0.9,4.6,1.8,12.5,1.8,12.5s5-10.4,10.2-12.5c9.2-3.7,13-11.7,16.2-16.9c3.2-5.2,3.7-15.4,10.4-8.9
				c6.7,6.5-1.2,25,6.9,25.9c8.1,0.9,5.5-6.5,11.5-10.2c5.9-3.7,12.6,7.4,9.7,10.2c-2.9,2.8-6.3,16.6-6.3,16.6s6.4,10.2,6.3,12.9
				c-0.1,2.8-1.9,11.5,1.8,16.4c3.7,4.9,9.2,11.4,9.2,11.4h-11.3l-15-11.4l9.1-10.3c0,0-37.2-9.7-32.1-4.2s7.6,10.5,7.7,14.5
				s12.7,11.4,12.7,11.4s-19,6.5-20.5,5.5c-1.4-0.9,0-10.2,0-10.2s-18.2,3.9-21.4,10.3c-3.2,6.4-15.3,11-15.3,11
				s-0.8,11.1-13.7,12.9c-12.9,1.8-13.9,5.5-17.6,10.2c-3.7,4.6,1,19.4-5.5,23.1c-6.5,3.7-5.5-2.8-4.6-12
				c0.9-9.2-9.2-10.4-14.8-15.8c-5.5-5.4-8.3-11-14.8-11s-8.3,3.4-14.8,11c-6.5,7.5-10.2,31.6,0,34.3c10.2,2.8,10.2-3.7,14.8,0
				c4.6,3.7,5.5,13.9-0.9,16.6c-6.5,2.8,15.7,18.5,13.9,26.8c-1.8,8.3-7.4,10.2-0.9,15.7c6.5,5.5,14.8,0,14.8,0l4.6,15.7
				c0,0,10.2-7.4,17.6-5.5s12.9,11.1,12.9,11.1s17.4,9.2,24.4,9.2c7,0,11.7,7.4,12.6,10.2c0.9,2.8,11.5,12.9,19.1,14.8
				s12.9,2.8,21.8,12s3.6,16.6,6.3,16.6c2.7,0,21.3,7.4,26.8,7.4c5.5,0,10.9,0.1,26.2,4.7c15.3,4.6,34.9,7.3,27.4,12.9
				c-7.5,5.5-17.8,16.6-21.4,20.3c-3.6,3.7-4.8,15.7-9.3,18.5s-19.9,8.3-27,7.4c-7.1-0.9-13.6,10.2-17.3,11.1
				c-1.7,0.4-5.9,3.7-11.6,7c19,4.2,38.8,6.4,59.1,6.4c80.6,0,153-34.9,203.1-90.4C523.4,678.5,523.1,671,525.5,666.8z M162.2,567.2
				c0,0-8.8-18.8-15.9-27.4c-4.1-2.5-6.8-4.2-5.4-4.2c1.5,0,3.4,1.7,5.4,4.2c7.2,4.3,18.7,10.9,20.4,14.4c2.8,5.5,4.6,13,4.6,13
				H162.2z M176.9,582.2c-4.6,0-5.4-10.2-5.4-10.2c6.6-2.3,18.7,10.2,18.7,10.2S181.6,582.2,176.9,582.2z M362.7,385.8
				c0,0-6.5-1.6-6.5-7.3s0-5.6,0-5.6s10.2-3.7,13,0C372,376.5,362.7,385.8,362.7,385.8z M405.6,433.9c-4.1,0-10.5-21.3-4.1-21.3
				c0,0,2.8-8.3,6.5,0c3.7,8.3,0,14.8,0,14.8S409.7,433.9,405.6,433.9z M409.7,408.9c0,0-9.9-2.8-10.9-5.5s5.1-16.6,10.9-9.2
				c0,0,4.8,2.8,5.8,7.4c0.9,4.6,7.4,7.4,7.4,7.4s9.6,2.8,7.6,7.4c-2,4.6-10.2,13.9-10.2,13.9l-5.7,3.7c0,0,0.9-8.3,1.8-12.5
				C417.3,417.2,409.7,408.9,409.7,408.9z"/>
			<radialGradient id="SVGID_2_" cx="321.5539" cy="501.2253" r="273.3333" gradientUnits="userSpaceOnUse">
				<stop  offset="0" style="stop-color:#B7DFF3"/>
				<stop  offset="1" style="stop-color:#4CAEE2"/>
			</radialGradient>
			<path fill="url(#SVGID_2_)" d="M321.6,227.9c-26.3,0-51.8,3.7-75.9,10.7c-3,3.3-5.2,5.8-5.2,5.8l-2.6,12.8c0,0,10.9,8.2,24.4,0
				c13.6-8.2,29-11.9,29-11.9s11.3-4.2,15.5-3.5c4.2,0.7-8.8,5.4,0,7.2c0,0,9.6-8.9,14.8-7.2c5.1,1.7-6.9-5.7,5.1,1.7
				c12,7.4,22.3,6.5,22.3,6.5l-8.9,18.5c8.7,5.3,10.8-4.6,10.8-4.6c17.5-0.9,29.3,6.2,29.3,6.2s17.2-1.6,16.6,4
				c-0.7,5.6,2.1,10.2,2.1,10.2s9.2,2.8,12.9,0c3.7-2.8,13.9-3.1,9.2,1.2c-4.6,4.3-4.4,6.9-4.4,6.9s17.5,19.2,11.4,22.6
				c-6.1,3.4-21.8,5.3-21.8,5.3s-17.4,4.6-10.1,11.1c7.3,6.5,10.1,15.7,11,18.5c0.9,2.8-0.9,12.8-0.9,19.4s10.2,11.2,10.2,11.2
				s8.6,8.3,11.7,4.6c3.1-3.7,1.3-8.3,1.3-8.3l10.1,9.3c0,0,12,6.5,10.2,0c-1.8-6.5-7.4-11.2-12-16.7c-4.6-5.5-9.6-11-9.6-11
				l-7.1-20.7l14.8,20.7c0,0,6.5-0.9,7.4-4.6c0.9-3.7,6.7-12,6.7-12l-4.8,22.2c0,0,10.2,8.3,12,12s0,13.1,0,13.1s-10.2,4.5-13.9,4.5
				c-3.7,0-9.2,6.5-7.4,10.2s1.8,22.2,0,25c-1.8,2.8-8.1,3.7-7.7,8.3c0.3,4.6,7.7,2.8,11.4,7.9s7.4,9.7,1.8,12.5
				c-5.5,2.8-19.4,6.5-17.6,12c1.8,5.5,4.3,21.3,4.3,21.3s5.9-2.8,12.4,0c6.5,2.8,17.4,1.8,17.5-6.5s3.8-24,3.8-24s-7.4-15.7,0-15.3
				c7.4,0.5,12-9.7,13.9-6s11.1,6,11.1,6c14.8,0.5,17.6-8.8,10.2-8.8s-22.2-8.3-22.2-8.3s20.8-10.2,26.1,0.9
				c5.3,11.1,15.5,16.2,15.5,16.2s6.5-11.6,0-16.2c-6.5-4.6-6.5-8.3-6.5-8.3s6.5-12,3.7-12c-2.8,0-8.3-5.5-9.2-12.9
				c-0.9-7.4-3.7-15.7,7.4-17.6c11.1-1.8,24-7.4,21.3,2.8c-2.8,10.2-11.1,13.9-11.1,13.9l-2.8,11.1c0,0-10.2,12.9-0.9,15.7
				c9.2,2.8,20.3-4.6,26.8-8.3c6.5-3.7,9.2,8.3,9.2,8.3s4.6,10.2-4.6,14.8c-9.2,4.6-12,12.9-12,12.9s-19.4,4.6-16.6,8.3
				c2.8,3.7,3.7,9.2,3.7,9.2s3.7,6.5-5.5,7.4c-9.2,0.9-22.2,10.2-22.2,1.8s-9.2-16.6-11.1-12c-1.8,4.6-47.1,48.1-47.1,56.4
				c0,8.3-1.8,22.2-6.5,25c-4.6,2.8-15.7,31.4-11.1,51.8c4.6,20.3,24,27.7,30.5,33.3c6.5,5.5,17.6,6.5,27.7,0
				c10.2-6.5,35.1-23.1,35.1-23.1s1.8,8.3,8.3,3.7c6.5-4.6,10.2,0,10.2,0s-10.2,12.9-6.5,15.7c3.7,2.8,12,9.2,12,14.8
				s-9.2,19.4-12.9,25.9c-2.4,4.1-2.1,11.7-0.8,17.3c43.7-48.4,70.3-112.6,70.3-182.9C594.9,350.3,472.5,227.9,321.6,227.9z"/>
			<radialGradient id="SVGID_3_" cx="430.4311" cy="454.8463" r="215.4349" gradientUnits="userSpaceOnUse">
				<stop  offset="0" style="stop-color:#FCB236"/>
				<stop  offset="1" style="stop-color:#40B97C"/>
			</radialGradient>
			<path fill="url(#SVGID_3_)" d="M321.6,227.9c-26.3,0-51.8,3.7-75.9,10.7c-3,3.3-5.2,5.8-5.2,5.8l-2.6,12.8c0,0,10.9,8.2,24.4,0
				c13.6-8.2,29-11.9,29-11.9s11.3-4.2,15.5-3.5c4.2,0.7-8.8,5.4,0,7.2c0,0,9.6-8.9,14.8-7.2c5.1,1.7-6.9-5.7,5.1,1.7
				c12,7.4,22.3,6.5,22.3,6.5l-8.9,18.5c8.7,5.3,10.8-4.6,10.8-4.6c17.5-0.9,29.3,6.2,29.3,6.2s17.2-1.6,16.6,4
				c-0.7,5.6,2.1,10.2,2.1,10.2s9.2,2.8,12.9,0c3.7-2.8,13.9-3.1,9.2,1.2c-4.6,4.3-4.4,6.9-4.4,6.9s17.5,19.2,11.4,22.6
				c-6.1,3.4-21.8,5.3-21.8,5.3s-17.4,4.6-10.1,11.1c7.3,6.5,10.1,15.7,11,18.5c0.9,2.8-0.9,12.8-0.9,19.4s10.2,11.2,10.2,11.2
				s8.6,8.3,11.7,4.6c3.1-3.7,1.3-8.3,1.3-8.3l10.1,9.3c0,0,12,6.5,10.2,0c-1.8-6.5-7.4-11.2-12-16.7c-4.6-5.5-9.6-11-9.6-11
				l-7.1-20.7l14.8,20.7c0,0,6.5-0.9,7.4-4.6c0.9-3.7,6.7-12,6.7-12l-4.8,22.2c0,0,10.2,8.3,12,12s0,13.1,0,13.1s-10.2,4.5-13.9,4.5
				c-3.7,0-9.2,6.5-7.4,10.2s1.8,22.2,0,25c-1.8,2.8-8.1,3.7-7.7,8.3c0.3,4.6,7.7,2.8,11.4,7.9s7.4,9.7,1.8,12.5
				c-5.5,2.8-19.4,6.5-17.6,12c1.8,5.5,4.3,21.3,4.3,21.3s5.9-2.8,12.4,0c6.5,2.8,17.4,1.8,17.5-6.5s3.8-24,3.8-24s-7.4-15.7,0-15.3
				c7.4,0.5,12-9.7,13.9-6s11.1,6,11.1,6c14.8,0.5,17.6-8.8,10.2-8.8s-22.2-8.3-22.2-8.3s20.8-10.2,26.1,0.9
				c5.3,11.1,15.5,16.2,15.5,16.2s6.5-11.6,0-16.2c-6.5-4.6-6.5-8.3-6.5-8.3s6.5-12,3.7-12c-2.8,0-8.3-5.5-9.2-12.9
				c-0.9-7.4-3.7-15.7,7.4-17.6c11.1-1.8,24-7.4,21.3,2.8c-2.8,10.2-11.1,13.9-11.1,13.9l-2.8,11.1c0,0-10.2,12.9-0.9,15.7
				c9.2,2.8,20.3-4.6,26.8-8.3c6.5-3.7,9.2,8.3,9.2,8.3s4.6,10.2-4.6,14.8c-9.2,4.6-12,12.9-12,12.9s-19.4,4.6-16.6,8.3
				c2.8,3.7,3.7,9.2,3.7,9.2s3.7,6.5-5.5,7.4c-9.2,0.9-22.2,10.2-22.2,1.8s-9.2-16.6-11.1-12c-1.8,4.6-47.1,48.1-47.1,56.4
				c0,8.3-1.8,22.2-6.5,25c-4.6,2.8-15.7,31.4-11.1,51.8c4.6,20.3,24,27.7,30.5,33.3c6.5,5.5,17.6,6.5,27.7,0
				c10.2-6.5,35.1-23.1,35.1-23.1s1.8,8.3,8.3,3.7c6.5-4.6,10.2,0,10.2,0s-10.2,12.9-6.5,15.7c3.7,2.8,12,9.2,12,14.8
				s-9.2,19.4-12.9,25.9c-2.4,4.1-2.1,11.7-0.8,17.3c43.7-48.4,70.3-112.6,70.3-182.9C594.9,350.3,472.5,227.9,321.6,227.9z"/>
			<radialGradient id="SVGID_4_" cx="321.5539" cy="501.2253" r="273.3333" gradientUnits="userSpaceOnUse">
				<stop  offset="0" style="stop-color:#B7DFF3"/>
				<stop  offset="1" style="stop-color:#4CAEE2"/>
			</radialGradient>
			<path fill="url(#SVGID_4_)" d="M408,412.6c-3.7-8.3-6.5,0-6.5,0c-6.5,0,0,21.3,4.1,21.3c4.1,0,2.4-6.5,2.4-6.5
				S411.7,420.9,408,412.6z"/>
			<radialGradient id="SVGID_5_" cx="404.263" cy="421.3865" r="9.624" gradientUnits="userSpaceOnUse">
				<stop  offset="0" style="stop-color:#FCB236"/>
				<stop  offset="1" style="stop-color:#40B97C"/>
			</radialGradient>
			<path fill="url(#SVGID_5_)" d="M408,412.6c-3.7-8.3-6.5,0-6.5,0c-6.5,0,0,21.3,4.1,21.3c4.1,0,2.4-6.5,2.4-6.5
				S411.7,420.9,408,412.6z"/>
			<radialGradient id="SVGID_6_" cx="321.5539" cy="501.2253" r="273.3333" gradientUnits="userSpaceOnUse">
				<stop  offset="0" style="stop-color:#B7DFF3"/>
				<stop  offset="1" style="stop-color:#4CAEE2"/>
			</radialGradient>
			<path fill="url(#SVGID_6_)" d="M414.5,433.9l5.7-3.7c0,0,8.2-9.2,10.2-13.9c2-4.6-7.6-7.4-7.6-7.4s-6.5-2.8-7.4-7.4
				c-0.9-4.6-5.8-7.4-5.8-7.4c-5.8-7.4-11.8,6.5-10.9,9.2s10.9,5.5,10.9,5.5s7.6,8.3,6.7,12.5C415.4,425.5,414.5,433.9,414.5,433.9z
				"/>
			<radialGradient id="SVGID_7_" cx="414.7246" cy="412.9175" r="18.6358" gradientUnits="userSpaceOnUse">
				<stop  offset="0" style="stop-color:#FCB236"/>
				<stop  offset="1" style="stop-color:#40B97C"/>
			</radialGradient>
			<path fill="url(#SVGID_7_)" d="M414.5,433.9l5.7-3.7c0,0,8.2-9.2,10.2-13.9c2-4.6-7.6-7.4-7.6-7.4s-6.5-2.8-7.4-7.4
				c-0.9-4.6-5.8-7.4-5.8-7.4c-5.8-7.4-11.8,6.5-10.9,9.2s10.9,5.5,10.9,5.5s7.6,8.3,6.7,12.5C415.4,425.5,414.5,433.9,414.5,433.9z
				"/>
			<radialGradient id="SVGID_8_" cx="321.5539" cy="501.2253" r="273.3333" gradientUnits="userSpaceOnUse">
				<stop  offset="0" style="stop-color:#B7DFF3"/>
				<stop  offset="1" style="stop-color:#4CAEE2"/>
			</radialGradient>
			<path fill="url(#SVGID_8_)" d="M291.2,750c7.1,0.9,22.5-4.6,27-7.4s5.7-14.8,9.3-18.5c3.6-3.7,13.9-14.8,21.4-20.3
				c7.5-5.5-12.1-8.3-27.4-12.9c-15.3-4.6-20.7-4.7-26.2-4.7c-5.5,0-24.1-7.4-26.8-7.4c-2.7,0,2.7-7.4-6.3-16.6s-14.2-10.2-21.8-12
				s-18.3-12-19.1-14.8c-0.9-2.8-5.6-10.2-12.6-10.2c-7,0-24.4-9.2-24.4-9.2s-5.5-9.2-12.9-11.1s-17.6,5.5-17.6,5.5l-4.6-15.7
				c0,0-8.3,5.5-14.8,0c-6.5-5.5-0.9-7.4,0.9-15.7c1.8-8.3-20.3-24-13.9-26.8c6.5-2.8,5.5-12.9,0.9-16.6c-4.6-3.7-4.6,2.8-14.8,0
				c-10.2-2.8-6.5-26.8,0-34.3c6.5-7.5,8.3-11,14.8-11s9.2,5.5,14.8,11c5.5,5.4,15.7,6.6,14.8,15.8c-0.9,9.2-1.8,15.7,4.6,12
				c6.5-3.7,1.8-18.5,5.5-23.1c3.7-4.6,4.7-8.3,17.6-10.2c12.9-1.8,13.7-12.9,13.7-12.9s12.1-4.6,15.3-11
				c3.2-6.4,21.4-10.3,21.4-10.3s-1.4,9.2,0,10.2c1.4,0.9,20.5-5.5,20.5-5.5s-12.6-7.4-12.7-11.4s-2.7-9-7.7-14.5s32.1,4.2,32.1,4.2
				l-9.1,10.3l15,11.4h11.3c0,0-5.5-6.5-9.2-11.4c-3.7-4.9-1.9-13.6-1.8-16.4c0.1-2.8-6.3-12.9-6.3-12.9s3.4-13.9,6.3-16.6
				c2.9-2.8-3.8-13.9-9.7-10.2c-5.9,3.7-3.3,11.1-11.5,10.2c-8.1-0.9-0.2-19.4-6.9-25.9c-6.7-6.5-7.2,3.7-10.4,8.9
				c-3.2,5.2-7,13.2-16.2,16.9c-5.2,2.1-10.2,12.5-10.2,12.5s-2.8-7.9-1.8-12.5c0.9-4.6,1.8-18.5-5.8-22.2c-7.6-3.7,3-12.9,7.6-17.6
				c4.6-4.7,26.8-7.3,26.4-6.4c-0.4,0.9-1.4,5.5,7.7,6.4l9.6-9.2c0,0-1.1-6.5,21.1-4.6c8,0.7-7.5,7.4-21.1,13.8
				c0,0,5.3,5.6,3.2,12.1c-2.1,6.5,3.1,3.7,18-1.8c0,0-1.9-6.5-6.3-10.2c-4.3-3.8,8.9,0.1,11.7,5.6c2.5,5.1,3.5-4.6,3.7-5.6
				c-0.4,0.1-5.5-10.4-3.6-16.6c1.9-6.5,17.2,21.3,17.2,21.3c-0.3,2.8,5.9,24,10.5,35.1c4.6,11.1,9.2-4.6,12-12.9
				c2.8-8.3,3.7-12.9,4.5-15.7c0.8-2.8,16.8-8.3,21.8-11.2c5-2.8,4.2-8.3,4.2-14.7s0.9-11.1-4.2-17c-5.2-5.9-5-17.2-7.8-26.6
				c-2.8-9.4-17.5,2-30.4,4.1l-6.4-4.1c-1.7-5.7-4.8-10.3-5.7-13c-4.6,3.1-14.1,7.8-14.1,7.8c-4,2.1,0,4.6,0,4.6l-5.2,10.8
				c0-2.8-11.5-2.3-8-10.6c3.4-8.3,0.6-6.9-3.4-12.4s-5.7,13.5-5.7,13.5s2.3,5.9,5.7,7.3c3.3,1.4,9.7,11.6,9.7,11.6l-20.8,7
				c0,0,0.4-5.6-1.7-15.1c-2.8,1.3-8.1,5.8-8.2-0.2c-0.1-5.2,2.6-10.5,2.6-10.5c1.6-3.1,3.9-5.2,0-9.8s-9.9,4.6-10.4,8.1
				c-0.4,3.5-9.8,4.8-9.8,4.8s0,0,1-3.8c1-3.8,2.7-14.7,0.1-18.6c-2.6-3.9,16.4-13.7,16.4-13.7s2.9-10.2,0-17.6
				c-2.9-7.4-14.7,5.5-16.5,5.5s-14-0.9-17.7,0c0,0-9.1,5.5-15.6,7.1c-6.5,1.6,1.8,12.3,1.8,12.3s-15.7,15.7-19.4,24.9
				c-3.7,9.2-20.3,31.5-30.5,38.9c-10.2,7.4-3.7,12.9-18.5,19.4c-14.8,6.4-27.7,29.6-27.7,29.6s-2.8,19.4-7.4,31.4
				c-4.6,12-9.6,44.4-9.6,44.4l8.7-30l-1.8,10.3c0,0-2.8,27.1-6.5,39.1s20.3,42.5,24.2,46.2s11.9,9.2,16.5,31.4
				c4.6,22.2,16.6,37.9,16.6,37.9l11.1-1.8l1.8,12c0,0,2.8,15.7-7.4,19.4s-6.5,14.8-3.7,22.2c2.8,7.4,44.4,50.8,44.4,50.8
				s9.2-2.8,15.5,25.9c0.6,2.6,1.2,4.9,2,7.1c20.1,10.2,41.7,18,64.3,23c5.7-3.3,9.9-6.6,11.6-7C277.7,760.2,284.2,749.1,291.2,750z
				"/>
			<radialGradient id="SVGID_9_" cx="213.6464" cy="516.7581" r="206.5707" gradientUnits="userSpaceOnUse">
				<stop  offset="0" style="stop-color:#FCB236"/>
				<stop  offset="1" style="stop-color:#40B97C"/>
			</radialGradient>
			<path fill="url(#SVGID_9_)" d="M291.2,750c7.1,0.9,22.5-4.6,27-7.4s5.7-14.8,9.3-18.5c3.6-3.7,13.9-14.8,21.4-20.3
				c7.5-5.5-12.1-8.3-27.4-12.9c-15.3-4.6-20.7-4.7-26.2-4.7c-5.5,0-24.1-7.4-26.8-7.4c-2.7,0,2.7-7.4-6.3-16.6s-14.2-10.2-21.8-12
				s-18.3-12-19.1-14.8c-0.9-2.8-5.6-10.2-12.6-10.2c-7,0-24.4-9.2-24.4-9.2s-5.5-9.2-12.9-11.1s-17.6,5.5-17.6,5.5l-4.6-15.7
				c0,0-8.3,5.5-14.8,0c-6.5-5.5-0.9-7.4,0.9-15.7c1.8-8.3-20.3-24-13.9-26.8c6.5-2.8,5.5-12.9,0.9-16.6c-4.6-3.7-4.6,2.8-14.8,0
				c-10.2-2.8-6.5-26.8,0-34.3c6.5-7.5,8.3-11,14.8-11s9.2,5.5,14.8,11c5.5,5.4,15.7,6.6,14.8,15.8c-0.9,9.2-1.8,15.7,4.6,12
				c6.5-3.7,1.8-18.5,5.5-23.1c3.7-4.6,4.7-8.3,17.6-10.2c12.9-1.8,13.7-12.9,13.7-12.9s12.1-4.6,15.3-11
				c3.2-6.4,21.4-10.3,21.4-10.3s-1.4,9.2,0,10.2c1.4,0.9,20.5-5.5,20.5-5.5s-12.6-7.4-12.7-11.4s-2.7-9-7.7-14.5s32.1,4.2,32.1,4.2
				l-9.1,10.3l15,11.4h11.3c0,0-5.5-6.5-9.2-11.4c-3.7-4.9-1.9-13.6-1.8-16.4c0.1-2.8-6.3-12.9-6.3-12.9s3.4-13.9,6.3-16.6
				c2.9-2.8-3.8-13.9-9.7-10.2c-5.9,3.7-3.3,11.1-11.5,10.2c-8.1-0.9-0.2-19.4-6.9-25.9c-6.7-6.5-7.2,3.7-10.4,8.9
				c-3.2,5.2-7,13.2-16.2,16.9c-5.2,2.1-10.2,12.5-10.2,12.5s-2.8-7.9-1.8-12.5c0.9-4.6,1.8-18.5-5.8-22.2c-7.6-3.7,3-12.9,7.6-17.6
				c4.6-4.7,26.8-7.3,26.4-6.4c-0.4,0.9-1.4,5.5,7.7,6.4l9.6-9.2c0,0-1.1-6.5,21.1-4.6c8,0.7-7.5,7.4-21.1,13.8
				c0,0,5.3,5.6,3.2,12.1c-2.1,6.5,3.1,3.7,18-1.8c0,0-1.9-6.5-6.3-10.2c-4.3-3.8,8.9,0.1,11.7,5.6c2.5,5.1,3.5-4.6,3.7-5.6
				c-0.4,0.1-5.5-10.4-3.6-16.6c1.9-6.5,17.2,21.3,17.2,21.3c-0.3,2.8,5.9,24,10.5,35.1c4.6,11.1,9.2-4.6,12-12.9
				c2.8-8.3,3.7-12.9,4.5-15.7c0.8-2.8,16.8-8.3,21.8-11.2c5-2.8,4.2-8.3,4.2-14.7s0.9-11.1-4.2-17c-5.2-5.9-5-17.2-7.8-26.6
				c-2.8-9.4-17.5,2-30.4,4.1l-6.4-4.1c-1.7-5.7-4.8-10.3-5.7-13c-4.6,3.1-14.1,7.8-14.1,7.8c-4,2.1,0,4.6,0,4.6l-5.2,10.8
				c0-2.8-11.5-2.3-8-10.6c3.4-8.3,0.6-6.9-3.4-12.4s-5.7,13.5-5.7,13.5s2.3,5.9,5.7,7.3c3.3,1.4,9.7,11.6,9.7,11.6l-20.8,7
				c0,0,0.4-5.6-1.7-15.1c-2.8,1.3-8.1,5.8-8.2-0.2c-0.1-5.2,2.6-10.5,2.6-10.5c1.6-3.1,3.9-5.2,0-9.8s-9.9,4.6-10.4,8.1
				c-0.4,3.5-9.8,4.8-9.8,4.8s0,0,1-3.8c1-3.8,2.7-14.7,0.1-18.6c-2.6-3.9,16.4-13.7,16.4-13.7s2.9-10.2,0-17.6
				c-2.9-7.4-14.7,5.5-16.5,5.5s-14-0.9-17.7,0c0,0-9.1,5.5-15.6,7.1c-6.5,1.6,1.8,12.3,1.8,12.3s-15.7,15.7-19.4,24.9
				c-3.7,9.2-20.3,31.5-30.5,38.9c-10.2,7.4-3.7,12.9-18.5,19.4c-14.8,6.4-27.7,29.6-27.7,29.6s-2.8,19.4-7.4,31.4
				c-4.6,12-9.6,44.4-9.6,44.4l8.7-30l-1.8,10.3c0,0-2.8,27.1-6.5,39.1s20.3,42.5,24.2,46.2s11.9,9.2,16.5,31.4
				c4.6,22.2,16.6,37.9,16.6,37.9l11.1-1.8l1.8,12c0,0,2.8,15.7-7.4,19.4s-6.5,14.8-3.7,22.2c2.8,7.4,44.4,50.8,44.4,50.8
				s9.2-2.8,15.5,25.9c0.6,2.6,1.2,4.9,2,7.1c20.1,10.2,41.7,18,64.3,23c5.7-3.3,9.9-6.6,11.6-7C277.7,760.2,284.2,749.1,291.2,750z
				"/>
			<radialGradient id="SVGID_10_" cx="321.5539" cy="501.2253" r="273.3333" gradientUnits="userSpaceOnUse">
				<stop  offset="0" style="stop-color:#B7DFF3"/>
				<stop  offset="1" style="stop-color:#4CAEE2"/>
			</radialGradient>
			<path fill="url(#SVGID_10_)" d="M277.7,369.1C277.7,369,277.7,369,277.7,369.1C277.7,369.1,277.7,369.1,277.7,369.1z"/>
			<radialGradient id="SVGID_11_" cx="213.6464" cy="516.7581" r="206.5707" gradientUnits="userSpaceOnUse">
				<stop  offset="0" style="stop-color:#B7DFF3"/>
				<stop  offset="1" style="stop-color:#4CAEE2"/>
			</radialGradient>
			<path fill="url(#SVGID_11_)" d="M277.7,369.1C277.7,369,277.7,369,277.7,369.1C277.7,369.1,277.7,369.1,277.7,369.1z"/>
			<radialGradient id="SVGID_12_" cx="321.5539" cy="501.2253" r="273.3333" gradientUnits="userSpaceOnUse">
				<stop  offset="0" style="stop-color:#B7DFF3"/>
				<stop  offset="1" style="stop-color:#4CAEE2"/>
			</radialGradient>
			<path fill="url(#SVGID_12_)" d="M291.2,295.2c-2,0-2.3,0.9-1.7,2.6C291.8,296.3,293,295.2,291.2,295.2z"/>
			<radialGradient id="SVGID_13_" cx="213.6464" cy="516.7581" r="206.5707" gradientUnits="userSpaceOnUse">
				<stop  offset="0" style="stop-color:#B7DFF3"/>
				<stop  offset="1" style="stop-color:#4CAEE2"/>
			</radialGradient>
			<path fill="url(#SVGID_13_)" d="M291.2,295.2c-2,0-2.3,0.9-1.7,2.6C291.8,296.3,293,295.2,291.2,295.2z"/>
			<radialGradient id="SVGID_14_" cx="321.5539" cy="501.2253" r="273.3333" gradientUnits="userSpaceOnUse">
				<stop  offset="0" style="stop-color:#B7DFF3"/>
				<stop  offset="1" style="stop-color:#4CAEE2"/>
			</radialGradient>
			<path fill="url(#SVGID_14_)" d="M247.4,322c1.6,0.9-4-11.1-1.6-0.9c0.1,0.4,0.2,0.8,0.3,1.2C246.6,322,247.1,321.8,247.4,322z"/>
			<radialGradient id="SVGID_15_" cx="213.6464" cy="516.7581" r="206.5707" gradientUnits="userSpaceOnUse">
				<stop  offset="0" style="stop-color:#B7DFF3"/>
				<stop  offset="1" style="stop-color:#4CAEE2"/>
			</radialGradient>
			<path fill="url(#SVGID_15_)" d="M247.4,322c1.6,0.9-4-11.1-1.6-0.9c0.1,0.4,0.2,0.8,0.3,1.2C246.6,322,247.1,321.8,247.4,322z"/>
			<radialGradient id="SVGID_16_" cx="321.5539" cy="501.2253" r="273.3333" gradientUnits="userSpaceOnUse">
				<stop  offset="0" style="stop-color:#B7DFF3"/>
				<stop  offset="1" style="stop-color:#4CAEE2"/>
			</radialGradient>
			<path fill="url(#SVGID_16_)" d="M356.2,372.9c0,0,0,0,0,5.6s6.5,7.3,6.5,7.3s9.3-9.2,6.5-12.9
				C366.4,369.2,356.2,372.9,356.2,372.9z"/>
			<radialGradient id="SVGID_17_" cx="362.9656" cy="378.5014" r="7.0244" gradientUnits="userSpaceOnUse">
				<stop  offset="0" style="stop-color:#FCB236"/>
				<stop  offset="1" style="stop-color:#40B97C"/>
			</radialGradient>
			<path fill="url(#SVGID_17_)" d="M356.2,372.9c0,0,0,0,0,5.6s6.5,7.3,6.5,7.3s9.3-9.2,6.5-12.9
				C366.4,369.2,356.2,372.9,356.2,372.9z"/>
			<radialGradient id="SVGID_18_" cx="321.5539" cy="501.2253" r="273.3333" gradientUnits="userSpaceOnUse">
				<stop  offset="0" style="stop-color:#B7DFF3"/>
				<stop  offset="1" style="stop-color:#4CAEE2"/>
			</radialGradient>
			<path fill="url(#SVGID_18_)" d="M146.4,539.8c7,8.6,15.9,27.4,15.9,27.4h9.2c0,0-1.8-7.5-4.6-13
				C165,550.7,153.5,544.1,146.4,539.8z"/>
			<radialGradient id="SVGID_19_" cx="155.9738" cy="551.4505" r="15.594" gradientUnits="userSpaceOnUse">
				<stop  offset="0" style="stop-color:#FCB236"/>
				<stop  offset="1" style="stop-color:#40B97C"/>
			</radialGradient>
			<path fill="url(#SVGID_19_)" d="M146.4,539.8c7,8.6,15.9,27.4,15.9,27.4h9.2c0,0-1.8-7.5-4.6-13
				C165,550.7,153.5,544.1,146.4,539.8z"/>
			<radialGradient id="SVGID_20_" cx="321.5539" cy="501.2253" r="273.3333" gradientUnits="userSpaceOnUse">
				<stop  offset="0" style="stop-color:#B7DFF3"/>
				<stop  offset="1" style="stop-color:#4CAEE2"/>
			</radialGradient>
			<path fill="url(#SVGID_20_)" d="M140.9,535.7c-1.4,0,1.3,1.7,5.4,4.2C144.3,537.3,142.4,535.7,140.9,535.7z"/>
			<radialGradient id="SVGID_21_" cx="155.9738" cy="551.4505" r="15.594" gradientUnits="userSpaceOnUse">
				<stop  offset="0" style="stop-color:#B7DFF3"/>
				<stop  offset="1" style="stop-color:#4CAEE2"/>
			</radialGradient>
			<path fill="url(#SVGID_21_)" d="M140.9,535.7c-1.4,0,1.3,1.7,5.4,4.2C144.3,537.3,142.4,535.7,140.9,535.7z"/>
			<radialGradient id="SVGID_22_" cx="321.5539" cy="501.2253" r="273.3333" gradientUnits="userSpaceOnUse">
				<stop  offset="0" style="stop-color:#B7DFF3"/>
				<stop  offset="1" style="stop-color:#4CAEE2"/>
			</radialGradient>
			<path fill="url(#SVGID_22_)" d="M171.6,572.1c0,0,0.8,10.2,5.4,10.2c4.6,0,13.3,0,13.3,0S178.2,569.7,171.6,572.1z"/>
			<radialGradient id="SVGID_23_" cx="180.8893" cy="576.9959" r="7.5637" gradientUnits="userSpaceOnUse">
				<stop  offset="0" style="stop-color:#FCB236"/>
				<stop  offset="1" style="stop-color:#40B97C"/>
			</radialGradient>
			<path fill="url(#SVGID_23_)" d="M171.6,572.1c0,0,0.8,10.2,5.4,10.2c4.6,0,13.3,0,13.3,0S178.2,569.7,171.6,572.1z"/>
		</g>
	</g>
</g>
</svg>
