<?xml version="1.0" encoding="utf-8"?>
<!-- Generator: Adobe Illustrator 17.1.0, SVG Export Plug-In . SVG Version: 6.00 Build 0)  -->
<!DOCTYPE svg PUBLIC "-//W3C//DTD SVG 1.1//EN" "http://www.w3.org/Graphics/SVG/1.1/DTD/svg11.dtd">
<svg version="1.1" xmlns="http://www.w3.org/2000/svg" xmlns:xlink="http://www.w3.org/1999/xlink" x="0px" y="0px"
	 viewBox="0 0 761 275" enable-background="new 0 0 761 275" xml:space="preserve">
<g id="lines">
</g>
<g id="Layer_1">
	<g>
		<g>
			<g>
				<line fill="none" stroke="#B3E3CB" stroke-width="3" stroke-miterlimit="10" x1="62" y1="160.182" x2="64.98" y2="160.524"/>
				<polyline fill="none" stroke="#B3E3CB" stroke-width="3" stroke-miterlimit="10" stroke-dasharray="6.0228,4.0152" points="
					68.969,160.983 151.872,170.509 213.474,193.476 370.097,226.075 				"/>
				<line fill="none" stroke="#B3E3CB" stroke-width="3" stroke-miterlimit="10" x1="372.063" y1="226.484" x2="375" y2="227.095"/>
			</g>
		</g>
		<path fill="none" stroke="#B3E3CB" stroke-width="3" stroke-miterlimit="10" stroke-dasharray="6,4" d="M706.502,147.044
			l-94.596,55.823L503.859,195.7L382,227.095l48.173-103.536l98.118-35.969l65.714-30.279l64.014,22.087l-84.349,74.58
			c0,0,129.765-11.243,123.331-13.111C690.565,139,654,75.67,654,75.67"/>
		
			<line fill="none" stroke="#B3E3CB" stroke-width="3" stroke-miterlimit="10" stroke-dasharray="6,4" x1="564.047" y1="156.706" x2="503.859" y2="195.7"/>
		<polyline fill="none" stroke="#B3E3CB" stroke-width="3" stroke-miterlimit="10" stroke-dasharray="6,4" points="280.935,64.228 
			354.992,218.986 348.978,57.547 424.589,50.882 354.992,232 276,126.612 151.872,95.329 92.706,60.918 213.474,45.873 
			154.838,99.058 		"/>
		<g>
			<g>
				<path fill="#BD8529" d="M303.691,70.641c0,3.702-2.879,6.742-6.386,6.742h-34.668c-3.506,0-6.386-3.04-6.386-6.742V41.744
					c0-3.702,2.879-6.742,6.386-6.742h9.124c3.506,0,6.386,3.04,6.386,6.742v0.964h19.159c3.506,0,6.386,3.04,6.386,6.742V70.641z"
					/>
			</g>
			<path fill="#FFFFFF" stroke="#231F20" stroke-width="2.4666" stroke-miterlimit="10" d="M269.325,24.382h22.717
				c2.922,0,5.291,2.369,5.291,5.291v32.695h-33.299V29.673C264.034,26.751,266.403,24.382,269.325,24.382z"/>
			<g>
				<path fill="#FCB236" d="M303.691,70.997c0,3.506-2.879,6.386-6.386,6.386h-34.668c-3.506,0-6.386-2.879-6.386-6.386v-27.37
					c0-3.506,2.879-6.386,6.386-6.386h9.124c3.506,0,6.386,2.879,6.386,6.386v0.913h19.159c3.506,0,6.386,2.879,6.386,6.386V70.997z
					"/>
			</g>
		</g>
		<g>
			<g>
				<path fill="#BD8529" d="M551.047,92.222c0,3.702-2.879,6.742-6.386,6.742h-34.668c-3.506,0-6.386-3.04-6.386-6.742V63.326
					c0-3.702,2.879-6.742,6.386-6.742h9.124c3.506,0,6.386,3.04,6.386,6.742v0.964h19.159c3.506,0,6.386,3.04,6.386,6.742V92.222z"
					/>
			</g>
			<path fill="#FFFFFF" stroke="#231F20" stroke-width="2.4666" stroke-miterlimit="10" d="M516.681,45.964h22.717
				c2.922,0,5.291,2.369,5.291,5.291V83.95H511.39V51.255C511.39,48.333,513.759,45.964,516.681,45.964z"/>
			<g>
				<path fill="#FCB236" d="M551.047,92.579c0,3.506-2.879,6.386-6.386,6.386h-34.668c-3.506,0-6.386-2.879-6.386-6.386v-27.37
					c0-3.506,2.879-6.386,6.386-6.386h9.124c3.506,0,6.386,2.879,6.386,6.386v0.913h19.159c3.506,0,6.386,2.879,6.386,6.386V92.579z
					"/>
			</g>
		</g>
		<g>
			<g>
				<path fill="#BD8529" d="M527.327,206.805c0,3.702-2.879,6.742-6.386,6.742h-34.668c-3.506,0-6.386-3.04-6.386-6.742v-28.897
					c0-3.702,2.879-6.742,6.386-6.742h9.124c3.506,0,6.386,3.04,6.386,6.742v0.964h19.159c3.506,0,6.386,3.04,6.386,6.742V206.805z"
					/>
			</g>
			<path fill="#FFFFFF" stroke="#231F20" stroke-width="2.4666" stroke-miterlimit="10" d="M492.961,160.547h22.717
				c2.922,0,5.291,2.369,5.291,5.291v32.695H487.67v-32.695C487.67,162.916,490.039,160.547,492.961,160.547z"/>
			<g>
				<path fill="#FCB236" d="M527.327,207.161c0,3.506-2.879,6.386-6.386,6.386h-34.668c-3.506,0-6.386-2.879-6.386-6.386v-27.37
					c0-3.506,2.879-6.386,6.386-6.386h9.124c3.506,0,6.386,2.879,6.386,6.386v0.913h19.159c3.506,0,6.386,2.879,6.386,6.386V207.161
					z"/>
			</g>
		</g>
		<g>
			<g>
				<path fill="#BD8529" d="M234.111,202.964c0,3.702-2.879,6.742-6.386,6.742h-34.668c-3.506,0-6.386-3.04-6.386-6.742v-28.897
					c0-3.702,2.879-6.742,6.386-6.742h9.124c3.506,0,6.386,3.04,6.386,6.742v0.964h19.159c3.506,0,6.386,3.04,6.386,6.742V202.964z"
					/>
			</g>
			<path fill="#FFFFFF" stroke="#231F20" stroke-width="2.4666" stroke-miterlimit="10" d="M199.745,156.706h22.717
				c2.922,0,5.291,2.369,5.291,5.291v32.695h-33.299v-32.695C194.454,159.075,196.823,156.706,199.745,156.706z"/>
			<g>
				<path fill="#FCB236" d="M234.111,203.32c0,3.506-2.879,6.386-6.386,6.386h-34.668c-3.506,0-6.386-2.879-6.386-6.386v-27.37
					c0-3.506,2.879-6.386,6.386-6.386h9.124c3.506,0,6.386,2.879,6.386,6.386v0.913h19.159c3.506,0,6.386,2.879,6.386,6.386V203.32z
					"/>
			</g>
		</g>
		<g>
			<g>
				<path fill="#BD8529" d="M78.469,168.957c0,3.702-2.879,6.742-6.386,6.742H37.415c-3.506,0-6.386-3.04-6.386-6.742v-28.897
					c0-3.702,2.879-6.742,6.386-6.742h9.124c3.506,0,6.386,3.04,6.386,6.742v0.964h19.159c3.506,0,6.386,3.04,6.386,6.742V168.957z"
					/>
			</g>
			<path fill="#FFFFFF" stroke="#231F20" stroke-width="2.4666" stroke-miterlimit="10" d="M44.103,122.699H66.82
				c2.922,0,5.291,2.369,5.291,5.291v32.695H38.812V127.99C38.812,125.068,41.18,122.699,44.103,122.699z"/>
			<g>
				<path fill="#FCB236" d="M78.469,169.313c0,3.506-2.879,6.386-6.386,6.386H37.415c-3.506,0-6.386-2.879-6.386-6.386v-27.37
					c0-3.506,2.879-6.386,6.386-6.386h9.124c3.506,0,6.386,2.879,6.386,6.386v0.913h19.159c3.506,0,6.386,2.879,6.386,6.386V169.313
					z"/>
			</g>
		</g>
		<g>
			<g>
				<path fill="#BD8529" d="M729.971,155.316c0,3.702-2.879,6.742-6.386,6.742h-34.668c-3.506,0-6.386-3.04-6.386-6.742v-28.897
					c0-3.702,2.879-6.742,6.386-6.742h9.124c3.506,0,6.386,3.04,6.386,6.742v0.964h19.159c3.506,0,6.386,3.04,6.386,6.742V155.316z"
					/>
			</g>
			<path fill="#FFFFFF" stroke="#231F20" stroke-width="2.4666" stroke-miterlimit="10" d="M695.605,109.058h22.717
				c2.922,0,5.291,2.369,5.291,5.291v32.695h-33.299v-32.695C690.314,111.427,692.683,109.058,695.605,109.058z"/>
			<g>
				<path fill="#FCB236" d="M729.971,155.672c0,3.506-2.879,6.386-6.386,6.386h-34.668c-3.506,0-6.386-2.879-6.386-6.386v-27.37
					c0-3.506,2.879-6.386,6.386-6.386h9.124c3.506,0,6.386,2.879,6.386,6.386v0.913h19.159c3.506,0,6.386,2.879,6.386,6.386V155.672
					z"/>
			</g>
		</g>
		<g>
			<g>
				<path fill="#B12F62" d="M407.551,240.362c0,5.937-4.618,10.812-10.241,10.812h-55.6c-5.623,0-10.241-4.875-10.241-10.812
					v-46.344c0-5.937,4.618-10.812,10.241-10.812h14.633c5.623,0,10.241,4.876,10.241,10.812v1.546h30.726
					c5.623,0,10.241,4.876,10.241,10.812V240.362z"/>
			</g>
			<path fill="#FFFFFF" stroke="#231F20" stroke-width="3.9559" stroke-miterlimit="10" d="M352.436,166.174h36.433
				c4.687,0,8.486,3.799,8.486,8.486v52.435H343.95V174.66C343.95,169.974,347.749,166.174,352.436,166.174z"/>
			<g>
				<path fill="#EC3E82" d="M407.551,240.933c0,5.623-4.618,10.241-10.241,10.241h-55.6c-5.623,0-10.241-4.618-10.241-10.241
					v-43.895c0-5.623,4.618-10.241,10.241-10.241h14.633c5.623,0,10.241,4.618,10.241,10.241v1.464h30.726
					c5.623,0,10.241,4.618,10.241,10.241V240.933z"/>
			</g>
		</g>
		<g>
			<g>
				<path fill="#BD8529" d="M438.229,58.513c0,2.235-1.738,4.071-3.855,4.071h-20.932c-2.117,0-3.855-1.835-3.855-4.071V41.066
					c0-2.235,1.739-4.071,3.855-4.071h5.509c2.117,0,3.855,1.835,3.855,4.071v0.582h11.568c2.117,0,3.855,1.835,3.855,4.071V58.513z
					"/>
			</g>
			<path fill="#FFFFFF" stroke="#231F20" stroke-width="1.4893" stroke-miterlimit="10" d="M417.48,30.584h13.716
				c1.764,0,3.195,1.43,3.195,3.195v19.74h-20.105v-19.74C414.285,32.014,415.715,30.584,417.48,30.584z"/>
			<g>
				<path fill="#FCB236" d="M438.229,58.728c0,2.117-1.738,3.855-3.855,3.855h-20.932c-2.117,0-3.855-1.739-3.855-3.855V42.203
					c0-2.117,1.739-3.855,3.855-3.855h5.509c2.117,0,3.855,1.739,3.855,3.855v0.551h11.568c2.117,0,3.855,1.739,3.855,3.855V58.728z
					"/>
			</g>
		</g>
		<g>
			<g>
				<path fill="#BD8529" d="M587.74,158.973c0,2.235-1.738,4.071-3.855,4.071h-20.932c-2.117,0-3.856-1.835-3.856-4.071v-17.447
					c0-2.235,1.739-4.071,3.856-4.071h5.509c2.117,0,3.855,1.835,3.855,4.071v0.582h11.568c2.117,0,3.855,1.835,3.855,4.071V158.973
					z"/>
			</g>
			<path fill="#FFFFFF" stroke="#231F20" stroke-width="1.4893" stroke-miterlimit="10" d="M566.99,131.044h13.716
				c1.764,0,3.195,1.43,3.195,3.195v19.74h-20.105v-19.74C563.796,132.474,565.226,131.044,566.99,131.044z"/>
			<g>
				<path fill="#FCB236" d="M587.74,159.188c0,2.117-1.738,3.855-3.855,3.855h-20.932c-2.117,0-3.856-1.739-3.856-3.855v-16.525
					c0-2.117,1.739-3.855,3.856-3.855h5.509c2.117,0,3.855,1.739,3.855,3.855v0.551h11.568c2.117,0,3.855,1.739,3.855,3.855V159.188
					z"/>
			</g>
		</g>
		<g>
			<g>
				<path fill="#BD8529" d="M438.872,125.854c0,1.397-1.087,2.544-2.41,2.544H423.38c-1.323,0-2.41-1.147-2.41-2.544V114.95
					c0-1.397,1.087-2.544,2.41-2.544h3.443c1.323,0,2.41,1.147,2.41,2.544v0.364h7.23c1.323,0,2.41,1.147,2.41,2.544V125.854z"/>
			</g>
			<path fill="#FFFFFF" stroke="#231F20" stroke-width="0.9308" stroke-miterlimit="10" d="M425.904,108.398h8.573
				c1.103,0,1.997,0.894,1.997,1.997v12.338h-12.566v-12.338C423.908,109.292,424.801,108.398,425.904,108.398z"/>
			<g>
				<path fill="#FCB236" d="M438.872,125.988c0,1.323-1.087,2.41-2.41,2.41H423.38c-1.323,0-2.41-1.087-2.41-2.41V115.66
					c0-1.323,1.087-2.41,2.41-2.41h3.443c1.323,0,2.41,1.087,2.41,2.41v0.344h7.23c1.323,0,2.41,1.087,2.41,2.41V125.988z"/>
			</g>
		</g>
		<g>
			<g>
				<path fill="#BD8529" d="M363.692,60.669c0,1.397-1.087,2.544-2.41,2.544H348.2c-1.323,0-2.41-1.147-2.41-2.544V49.764
					c0-1.397,1.087-2.544,2.41-2.544h3.443c1.323,0,2.41,1.147,2.41,2.544v0.364h7.23c1.323,0,2.41,1.147,2.41,2.544V60.669z"/>
			</g>
			<path fill="#FFFFFF" stroke="#231F20" stroke-width="0.9308" stroke-miterlimit="10" d="M350.724,43.213h8.573
				c1.103,0,1.997,0.894,1.997,1.997v12.338h-12.566V45.21C348.727,44.107,349.621,43.213,350.724,43.213z"/>
			<g>
				<path fill="#FCB236" d="M363.692,60.803c0,1.323-1.087,2.41-2.41,2.41H348.2c-1.323,0-2.41-1.087-2.41-2.41V50.475
					c0-1.323,1.087-2.41,2.41-2.41h3.443c1.323,0,2.41,1.087,2.41,2.41v0.344h7.23c1.323,0,2.41,1.087,2.41,2.41V60.803z"/>
			</g>
		</g>
		<g>
			<g>
				<path fill="#BD8529" d="M215.622,48.995c0,1.397-1.087,2.544-2.41,2.544H200.13c-1.323,0-2.41-1.147-2.41-2.544V38.09
					c0-1.397,1.087-2.544,2.41-2.544h3.443c1.323,0,2.41,1.147,2.41,2.544v0.364h7.23c1.323,0,2.41,1.147,2.41,2.544V48.995z"/>
			</g>
			<path fill="#FFFFFF" stroke="#231F20" stroke-width="0.9308" stroke-miterlimit="10" d="M202.654,31.539h8.573
				c1.103,0,1.997,0.894,1.997,1.997v12.338h-12.566V33.535C200.657,32.433,201.551,31.539,202.654,31.539z"/>
			<g>
				<path fill="#FCB236" d="M215.622,49.129c0,1.323-1.087,2.41-2.41,2.41H200.13c-1.323,0-2.41-1.087-2.41-2.41V38.801
					c0-1.323,1.087-2.41,2.41-2.41h3.443c1.323,0,2.41,1.087,2.41,2.41v0.344h7.23c1.323,0,2.41,1.087,2.41,2.41V49.129z"/>
			</g>
		</g>
		<g>
			<g>
				<path fill="#BD8529" d="M154.02,173.63c0,1.397-1.087,2.544-2.41,2.544h-13.082c-1.323,0-2.41-1.147-2.41-2.544v-10.904
					c0-1.397,1.087-2.544,2.41-2.544h3.443c1.323,0,2.41,1.147,2.41,2.544v0.364h7.23c1.323,0,2.41,1.147,2.41,2.544V173.63z"/>
			</g>
			<path fill="#FFFFFF" stroke="#231F20" stroke-width="0.9308" stroke-miterlimit="10" d="M141.052,156.174h8.573
				c1.103,0,1.997,0.894,1.997,1.997v12.338h-12.566v-12.338C139.055,157.068,139.949,156.174,141.052,156.174z"/>
			<g>
				<path fill="#FCB236" d="M154.02,173.765c0,1.323-1.087,2.41-2.41,2.41h-13.082c-1.323,0-2.41-1.087-2.41-2.41v-10.328
					c0-1.323,1.087-2.41,2.41-2.41h3.443c1.323,0,2.41,1.087,2.41,2.41v0.344h7.23c1.323,0,2.41,1.087,2.41,2.41V173.765z"/>
			</g>
		</g>
		<g>
			<g>
				<path fill="#BD8529" d="M602.705,56.335c0,1.397-1.087,2.544-2.41,2.544h-13.082c-1.323,0-2.41-1.147-2.41-2.544V45.43
					c0-1.397,1.087-2.544,2.41-2.544h3.443c1.323,0,2.41,1.147,2.41,2.544v0.364h7.23c1.323,0,2.41,1.147,2.41,2.544V56.335z"/>
			</g>
			<path fill="#FFFFFF" stroke="#231F20" stroke-width="0.9308" stroke-miterlimit="10" d="M589.736,38.879h8.573
				c1.103,0,1.997,0.894,1.997,1.997v12.338H587.74V40.875C587.74,39.773,588.633,38.879,589.736,38.879z"/>
			<g>
				<path fill="#FCB236" d="M602.705,56.469c0,1.323-1.087,2.41-2.41,2.41h-13.082c-1.323,0-2.41-1.087-2.41-2.41V46.141
					c0-1.323,1.087-2.41,2.41-2.41h3.443c1.323,0,2.41,1.087,2.41,2.41v0.344h7.23c1.323,0,2.41,1.087,2.41,2.41V56.469z"/>
			</g>
		</g>
		<g>
			<g>
				<path fill="#BD8529" d="M620.606,205.989c0,1.397-1.087,2.544-2.41,2.544h-13.082c-1.323,0-2.41-1.147-2.41-2.544v-10.904
					c0-1.397,1.087-2.544,2.41-2.544h3.443c1.323,0,2.41,1.147,2.41,2.544v0.364h7.23c1.323,0,2.41,1.147,2.41,2.544V205.989z"/>
			</g>
			<path fill="#FFFFFF" stroke="#231F20" stroke-width="0.9308" stroke-miterlimit="10" d="M607.638,188.533h8.573
				c1.103,0,1.997,0.894,1.997,1.997v12.338h-12.566v-12.338C605.641,189.427,606.535,188.533,607.638,188.533z"/>
			<g>
				<path fill="#FCB236" d="M620.606,206.123c0,1.323-1.087,2.41-2.41,2.41h-13.082c-1.323,0-2.41-1.087-2.41-2.41v-10.328
					c0-1.323,1.087-2.41,2.41-2.41h3.443c1.323,0,2.41,1.087,2.41,2.41v0.344h7.23c1.323,0,2.41,1.087,2.41,2.41V206.123z"/>
			</g>
		</g>
		<g>
			<g>
				<path fill="#BD8529" d="M107.42,64.04c0,1.397-1.087,2.544-2.41,2.544H91.927c-1.323,0-2.41-1.147-2.41-2.544V53.135
					c0-1.397,1.087-2.544,2.41-2.544h3.443c1.323,0,2.41,1.147,2.41,2.544v0.364h7.23c1.323,0,2.41,1.147,2.41,2.544V64.04z"/>
			</g>
			<path fill="#FFFFFF" stroke="#231F20" stroke-width="0.9308" stroke-miterlimit="10" d="M94.451,46.584h8.573
				c1.103,0,1.997,0.894,1.997,1.997v12.338H92.455V48.581C92.455,47.478,93.348,46.584,94.451,46.584z"/>
			<g>
				<path fill="#FCB236" d="M107.42,64.174c0,1.323-1.087,2.41-2.41,2.41H91.927c-1.323,0-2.41-1.087-2.41-2.41V53.846
					c0-1.323,1.087-2.41,2.41-2.41h3.443c1.323,0,2.41,1.087,2.41,2.41v0.344h7.23c1.323,0,2.41,1.087,2.41,2.41V64.174z"/>
			</g>
		</g>
		<g>
			<g>
				<path fill="#BD8529" d="M295.005,131.607c0,2.235-1.739,4.071-3.855,4.071h-20.932c-2.117,0-3.855-1.835-3.855-4.071V114.16
					c0-2.235,1.738-4.071,3.855-4.071h5.509c2.117,0,3.855,1.835,3.855,4.071v0.582h11.568c2.117,0,3.855,1.835,3.855,4.071V131.607
					z"/>
			</g>
			<path fill="#FFFFFF" stroke="#231F20" stroke-width="1.4893" stroke-miterlimit="10" d="M274.256,103.678h13.716
				c1.764,0,3.195,1.43,3.195,3.195v19.74h-20.105v-19.74C271.061,105.108,272.491,103.678,274.256,103.678z"/>
			<g>
				<path fill="#FCB236" d="M295.005,131.822c0,2.117-1.739,3.855-3.855,3.855h-20.932c-2.117,0-3.855-1.739-3.855-3.855v-16.525
					c0-2.117,1.738-3.855,3.855-3.855h5.509c2.117,0,3.855,1.739,3.855,3.855v0.551h11.568c2.117,0,3.855,1.739,3.855,3.855V131.822
					z"/>
			</g>
		</g>
		<g>
			<g>
				<path fill="#BD8529" d="M168.908,104.052c0,2.235-1.739,4.071-3.855,4.071h-20.932c-2.117,0-3.855-1.835-3.855-4.071V86.605
					c0-2.235,1.739-4.071,3.855-4.071h5.509c2.117,0,3.855,1.835,3.855,4.071v0.582h11.568c2.117,0,3.855,1.835,3.855,4.071V104.052
					z"/>
			</g>
			<path fill="#FFFFFF" stroke="#231F20" stroke-width="1.4893" stroke-miterlimit="10" d="M148.159,76.123h13.716
				c1.764,0,3.195,1.43,3.195,3.195v19.74h-20.105v-19.74C144.964,77.553,146.394,76.123,148.159,76.123z"/>
			<g>
				<path fill="#FCB236" d="M168.908,104.267c0,2.117-1.739,3.855-3.855,3.855h-20.932c-2.117,0-3.855-1.739-3.855-3.855V87.742
					c0-2.117,1.739-3.855,3.855-3.855h5.509c2.117,0,3.855,1.739,3.855,3.855v0.551h11.568c2.117,0,3.855,1.739,3.855,3.855V104.267
					z"/>
			</g>
		</g>
		<g>
			<g>
				<path fill="#BD8529" d="M671.659,84.394c0,2.235-1.739,4.071-3.856,4.071h-20.932c-2.117,0-3.855-1.835-3.855-4.071V66.947
					c0-2.235,1.738-4.071,3.855-4.071h5.509c2.117,0,3.855,1.835,3.855,4.071v0.582h11.568c2.117,0,3.856,1.835,3.856,4.071V84.394z
					"/>
			</g>
			<path fill="#FFFFFF" stroke="#231F20" stroke-width="1.4893" stroke-miterlimit="10" d="M650.909,56.464h13.716
				c1.764,0,3.195,1.43,3.195,3.195v19.74h-20.105v-19.74C647.715,57.894,649.145,56.464,650.909,56.464z"/>
			<g>
				<path fill="#FCB236" d="M671.659,84.609c0,2.117-1.739,3.855-3.856,3.855h-20.932c-2.117,0-3.855-1.739-3.855-3.855V68.083
					c0-2.117,1.738-3.855,3.855-3.855h5.509c2.117,0,3.855,1.739,3.855,3.855v0.551h11.568c2.117,0,3.856,1.739,3.856,3.855V84.609z
					"/>
			</g>
		</g>
	</g>
</g>
</svg>
