<?xml version="1.0" encoding="utf-8"?>
<!-- Generator: Adobe Illustrator 17.1.0, SVG Export Plug-In . SVG Version: 6.00 Build 0)  -->
<!DOCTYPE svg PUBLIC "-//W3C//DTD SVG 1.1//EN" "http://www.w3.org/Graphics/SVG/1.1/DTD/svg11.dtd">
<svg version="1.1" xmlns="http://www.w3.org/2000/svg" xmlns:xlink="http://www.w3.org/1999/xlink" x="0px" y="0px"
	 viewBox="0 0 1600 650" enable-background="new 0 0 1600 650" xml:space="preserve">
<g id="Layer_1">
</g>
<g id="trees">
	<g>
		<g>
			<path fill="#D6D1C4" d="M654.5,554c-0.101-15.896-8.703-53.881,17.753-51.642c0.832,0.07,1.479-0.736,1.5-1.5
				c0.163-5.807,0.927-11.625,2.957-17.093c0.92-2.478,2.486-5.243,5.123-6.137c3.826-1.297,7.929,3.547,10.1,5.938
				c0.835,0.919,2.115,0.308,2.507-0.662c4.065-10.047,13.665-14.144,22.921-7.762c0.691,0.477,1.64,0.112,2.052-0.538
				c4.365-6.877,11.748-10.394,18.424-4.181c0.655,0.61,1.458,0.516,2.121,0c6.056-4.708,12.629-4.749,17.413,1.682
				c0.515,0.692,1.696,1.132,2.356,0.304c3.566-4.48,11.814-7.102,15.979-1.653c1.158,1.515,3.766,0.024,2.59-1.514
				c-5.266-6.89-15.72-5.198-20.69,1.045c0.785,0.101,1.571,0.202,2.356,0.304c-6.032-8.11-14.387-8.304-22.125-2.29
				c0.707,0,1.414,0,2.121,0c-8.115-7.553-17.674-3.816-23.135,4.788c0.684-0.179,1.368-0.359,2.052-0.538
				c-11.006-7.59-22.592-2.151-27.328,9.555c0.836-0.221,1.671-0.441,2.507-0.662c-4.54-5.001-11.561-10.246-17.251-3.829
				c-5.17,5.831-5.842,15.849-6.05,23.242c0.5-0.5,1-1,1.5-1.5c-29.209-2.472-20.864,36.995-20.753,54.642
				C651.512,555.934,654.512,555.935,654.5,554L654.5,554z"/>
		</g>
	</g>
	<g>
		<g>
			<g>
				<path fill="#D6D1C4" d="M132.758,636.867c47.679,9.656,96.853,11.299,145.331,8.821c0.607-0.031,1.347-0.429,1.446-1.101
					c2.876-19.533,14.056-42.872,5.202-62.192c-7.16-15.624-26.608-17.388-39.659-8.541c0.734,0.565,1.469,1.129,2.204,1.694
					c1.74-7.58,1.251-15.731-6.865-18.948c-7.567-3-17.344,0.467-24.098,3.987c0.684,0.179,1.368,0.359,2.052,0.538
					c-6.393-13.31-22.633-11.554-28.927,0.862c0.863,0.505,1.727,1.009,2.59,1.514c2.035-4.251,0.756-5.89-3.251-7.589
					c-3.559-1.51-7.767-2.044-11.585-1.401c-8.964,1.51-15.5,7.989-16.786,17.026c0.734-0.299,1.469-0.598,2.203-0.896
					c-7.09-5.018-14.936-3.029-22.118,0.743c-4.124,2.166-7.878,5.034-11.628,7.775c-3.355,2.453-4.173,7.039-7.473,9.226
					c-3.098,2.053-7.092,1.45-10.044,4.057c-3.367,2.974-5.527,7.775-6.816,11.981c-2.705,8.828,1.185,17.687,6.559,24.559
					c1.191,1.523,3.298-0.616,2.121-2.121c-5.95-7.607-8.414-16.507-4.304-25.6c1.875-4.148,4.609-7.526,9.102-8.689
					c2.624-0.68,4.92-1.24,6.865-3.217c2.307-2.345,2.679-5.553,5.502-7.605c2.596-1.886,5.182-3.771,7.866-5.531
					c6.892-4.52,15.353-8.295,22.852-2.988c0.73,0.517,2.072,0.026,2.204-0.896c0.9-6.322,4.357-11.296,10.316-13.802
					c2.711-1.14,18.613-2.375,15.822,3.454c-0.827,1.728,1.711,3.25,2.59,1.514c5.31-10.474,18.294-12.213,23.746-0.862
					c0.366,0.762,1.374,0.892,2.052,0.538c5.549-2.891,11.751-4.818,18.06-4.469c9.078,0.503,10.187,8.675,8.496,16.042
					c-0.274,1.195,1.048,2.477,2.203,1.694c13.874-9.404,32.073-5.087,37.147,11.737c2.65,8.788,0.571,18.88-1.19,27.62
					c-1.884,9.349-4.516,18.542-5.906,27.988c0.482-0.367,0.964-0.734,1.446-1.101c-48.205,2.464-97.122,0.888-144.534-8.714
					C131.667,633.592,130.863,636.483,132.758,636.867L132.758,636.867z"/>
			</g>
		</g>
		<g>
			<g>
				<path fill="#D6D1C4" d="M1297.273,562.287c-26.993-0.823-56.131,3.793-81.328-8.377c-23.621-11.409-24.694-36.443-24.105-59.485
					c0.329-12.854,0.268-25.523-1.573-38.283c-1.973-13.674-5.895-26.982-9.872-40.18c-2.912-9.663-8.571-21.922-2.761-31.568
					c2.295-3.81,6.37-6.344,10.14-8.475c2.3-1.3,4.715-2.399,7.124-3.477c4.109-1.84,6.919-0.706,10.999-0.271
					c1.921,0.205,3.575-0.648,4.56-2.21c1.811-2.872,1.978-4.887,5.44-6.054c2.91-0.981,5.843-1.895,8.757-2.866
					c1.318-0.439,3.605-0.828,4.617-1.909c5.16-5.515,4.976-13.57,8.335-20.039c4.936-9.509,18.086-9.076,27.171-9.923
					c1.665-0.155,2.068-2.402,0.399-2.946c-7.643-2.494-5.071-8.789,0.034-12.586c5.659-4.209,13.391-4.687,18.956-0.132
					c0.902,0.739,2.682,0.38,2.561-1.061c-0.397-4.704-0.549-11.145,5.181-12.324c4.58-0.943,10.177,1.718,14.233,3.498
					c4.778,2.097,9.361,4.616,14.006,6.984c3.084,1.572,6.443,3.494,9.952,3.836c1.925,0.188,1.907-2.814,0-3
					c-4.49-0.438-9.222-3.823-13.13-5.846c-5.306-2.747-10.674-5.469-16.378-7.3c-4.022-1.291-8.764-2.09-12.608,0.109
					c-4.691,2.684-4.645,9.435-4.256,14.043c0.854-0.354,1.707-0.707,2.561-1.061c-7.654-6.265-17.815-4.837-24.936,1.567
					c-6.352,5.712-5.135,13.503,3.028,16.166c0.133-0.982,0.266-1.964,0.399-2.946c-10.535,0.982-22.185,0.935-29.08,10.301
					c-2.894,3.931-3.644,9.324-4.984,13.891c-0.577,1.965-1.755,5.859-3.898,6.739c-1.908,0.784-3.912,1.369-5.871,2.009
					c-3.056,0.998-6.195,1.863-9.155,3.125c-1.415,0.603-2.209,2.26-2.806,3.55c-0.404,0.874-0.715,1.789-1.116,2.664
					c-0.831,1.814-5.317,0.077-6.676-0.209c-4.417-0.93-8.942,2.05-12.728,3.929c-4.001,1.985-7.824,4.407-10.973,7.597
					c-5.432,5.503-5.918,13.018-4.693,20.258c1.058,6.249,3.382,12.35,5.206,18.403c2.086,6.923,4.09,13.869,5.839,20.886
					c3.522,14.131,5.322,28.516,5.256,43.081c-0.05,11.065-0.856,22.121,0,33.175c0.724,9.356,3.013,18.577,8.224,26.476
					c5.775,8.753,15.079,14.119,24.7,17.681c23.826,8.821,50.45,4.808,75.251,5.564
					C1299.208,565.346,1299.203,562.346,1297.273,562.287L1297.273,562.287z"/>
			</g>
		</g>
		<g>
			<path fill="#D6D1C4" d="M-3,365.235c4.695-12.1,31.124-28.823,43.936-28.862c26.45-0.081,35.842,30.314,41.871,50.95
				c20.89-17.755,52.637-17.48,57.427,14.82c25.046-17.306,48.816-1.509,45.011,26.798c23.606,0.596-1.88,27.452-9.32,32.39
				c10.313,0.948,18.179,8.476,15.906,19.807c-2.584,12.878-22.72,12.125-27.012,21.907c-6.345,14.46,11.098,28.095-18.904,30.007
				c27.918,3.619,4.045,22.006-8.295,26.2c16.067,2.408,19.796,18.837,3.94,25.505c13.176,2.7,13.788,17.054,2.459,22.534
				c8.581-1.022,17.077-0.569,24.56,3.768c-1.657,9.935-12.009,16.66-20.424,20.193c43.172,10.292,90.676-4.093,134.321-2.103
				c-7.084,0.198-14.449,2.259-20.347,5.751c5.778-0.806,12.255-2.604,17.959-3.961c-15.101-9.009-39.43-19.981-40.766-39.623
				c10.134-1.022,20.548,0.98,29.855,3.371c6.753-22.351,10.365-48.033,43.705-34.548c-3.63-12.46-9.128-38.012,12.804-32.136
				c-6.041-20.186,22.734-11.871,33.007-5.469c-1.533-19.894,13.469-48.41,36.1-37.018c4.327,2.178,2.972,12.178,5.615,13.417
				c3.742,1.754,9.513-0.886,12.833,0.615c9.637,4.359,28.058,0.712,18.911,19.829c20.044,6.281,47.524,0.455,22.875,25.523
				c21.613-3.422,19.594,13.836,4.844,22.922c5.133-0.532,12.842,3.314,16.574,3.676c-0.951,2.849-1.77,6.876-3.243,9.356
				c11.299,4.375,1.652,14.331-3.744,20.039c5.784-1.267,12.584,1.866,17.392,2.049c-1.202,2.212-2.006,5.506-3.496,8.1
				c12.53,0.227,28.069-9,34.228,5.509c8.763-4.986,18.951-3.976,26.815,2.175c-11.814-30.107,10.261-32.573,32.406-27.26
				c-8.858-28.46,6.264-24.622,26.025-22.74c-3.496-19.755-2.216-32.461,22.349-30.175c-2.749-26.592,15.948-16.789,30.081-14.103
				c13.96,2.653,34.182,2.902,26.063,24.381c13.34-0.179,49.442-6.581,36.296,18.207c10.84-5.239,23.375-6.312,34.47-2.309
				c-12.785-15.654-21.381-45.354,9.192-40.73c4.27-13.299-8.841-48.996,21.249-32.878c-26.7-30.346,1.348-48.167,32.193-43.854
				c-24.737-43.773,26.431-44.224,55.572-36.584c-7.392-14.818,11.971-25.346,25.128-22.877
				c11.103,2.084,13.825,14.889,22.849,17.624c9.243,2.801,54.452-6.344,43.136,19.797c-4.117-26.012,41.483-21.273,51.705-5.136
				c-1.306-21.438,30.391-23.576,46.271-23.103c-6.981-26.99,27.592-27.881,43.416-14.815
				c-6.991-28.445,31.978-34.526,49.748-21.534c-5.009-7.088-2.433-13.911,8.462-11.218c11.253,2.781,12.482,20.962,23.256,26.005
				c10.249,4.797,20.045-5.836,26.403,8.185c3.212,7.084,0.168,15.607-4.602,21.239c12.496,2.365,28.629,5.178,32.695,19
				c-7.052,6.708-16.591,10.811-25.479,14.903c34.805,2.216,41.031,20.96,12.032,38.189c7.192-1.146,14.162,0.228,19.567,4.217
				c-3.143,6.438-9.834,9.873-17.187,12.136c21.248-0.185,49.288-4.304,67.156,8.252c-5.745,9.498-16.776,15.445-25.508,22.278
				c13.442,1.872,36.857-5.271,45.938,9.825c4.433,7.37,4.147,13.413-2.125,16.993c2.494,2.133,4.84,2.257,7.847,2.555V663H-41.835
				L-3,365.235z"/>
			<g>
				<path fill="#D6D1C4" d="M-1.705,365.952c3.809-8.775,12.817-14.971,20.667-19.835c9.09-5.632,19.024-9.875,29.778-7.271
					c20.409,4.942,27.534,31.504,32.62,48.866c0.339,1.157,1.649,1.369,2.507,0.662c9.24-7.616,21.139-12.747,33.291-10.972
					c12.971,1.894,19.617,13.172,21.629,25.135c0.157,0.935,1.448,1.395,2.203,0.896c9.589-6.335,21.234-9.799,31.81-3.705
					c10.093,5.816,12.13,18.674,10.944,29.21c-0.095,0.845,0.756,1.459,1.5,1.5c3.775,0.207,8.32,0.78,8.288,5.452
					c-0.024,3.395-2.535,6.889-4.351,9.582c-3.652,5.415-8.624,10.82-14.015,14.563c-1.301,0.903-0.714,2.602,0.757,2.795
					c14.778,1.937,20.341,19.034,6.751,26.939c-5.7,3.316-14.005,4.74-17.952,10.508c-3.516,5.138-3.115,11.344-2.374,17.231
					c0.374,2.967,0.895,6.155-0.589,8.902c-2.514,4.656-11.563,4.809-15.847,5.141c-1.575,0.122-2.173,2.678-0.399,2.946
					c3.746,0.566,7.874,1.135,10.824,3.74c2.983,2.634-0.623,6.901-2.423,8.892c-4.337,4.796-10.654,8.49-16.696,10.675
					c-1.269,0.459-1.585,2.594,0,2.893c5.451,1.026,10.57,3.381,12.602,8.908c2.394,6.512-3.924,11.483-9.021,13.855
					c-1.204,0.56-0.826,2.439,0.358,2.742c11.254,2.871,11.937,14.44,2.101,19.793c-1.25,0.68-0.758,2.951,0.757,2.795
					c3.883-0.399,7.666-0.528,11.562-0.253c2.133,0.212,4.222,0.624,6.27,1.237c4.575,1.202,5.543,1.674,3.654,5.777
					c-3.258,7.078-11.307,11.426-18.107,14.405c-1.205,0.528-0.829,2.471,0.358,2.742c44.626,10.161,89.762-3.795,134.72-2.05
					c0-1,0-2,0-3c-7.523,0.427-14.493,2.318-21.104,5.956c-1.598,0.879-0.425,2.991,1.156,2.742
					c6.069-0.956,11.994-2.514,17.959-3.961c1.282-0.311,1.449-2.097,0.358-2.742c-15.088-8.909-37.984-18.392-40.024-38.328
					c-0.5,0.5-1,1-1.5,1.5c10.039-0.767,19.743,0.886,29.457,3.318c0.806,0.202,1.607-0.251,1.845-1.048
					c2.803-9.389,4.872-19.312,9.951-27.806c7.205-12.049,20.543-10.093,31.908-5.695c1.091,0.422,2.138-0.826,1.845-1.845
					c-3.225-11.235-8.643-34.965,10.959-30.29c1.109,0.264,2.145-0.713,1.845-1.845c-4.918-18.552,23.037-8.437,30.803-3.776
					c0.937,0.563,2.322-0.15,2.257-1.295c-0.621-11.036,2.758-22.463,9.999-30.913c3.526-4.115,8.317-6.754,13.72-7.191
					c3.523-0.285,6.99,0.926,10.123,2.382c2.545,1.182,2.816,6.589,3.257,8.975c0.559,3.025,1.561,4.251,4.431,5.1
					c2.47,0.731,5.669-0.113,8.176-0.31c2.354-0.185,4.923,1.22,7.18,1.808c3.401,0.885,6.897,1.307,10.281,2.271
					c7.338,2.091,6.062,8.246,3.496,13.966c-0.397,0.885-0.105,1.906,0.896,2.203c7.631,2.263,15.536,2.89,23.324,4.377
					c2.686,0.513,7.102,1.21,8.127,4.2c1.595,4.65-6.617,11.714-9.237,14.439c-0.812,0.844-0.319,2.744,1.061,2.561
					c5.116-0.678,14.076-1.37,14.578,5.761c0.428,6.077-6.029,11.458-10.492,14.365c-1.204,0.784-0.8,2.83,0.757,2.795
					c5.694-0.128,10.671,2.706,16.175,3.622c-0.349-0.615-0.698-1.23-1.048-1.845c-0.936,3.05-1.675,6.114-3.091,8.998
					c-0.333,0.678-0.241,1.69,0.538,2.052c9.6,4.461,0.082,13.311-4.048,17.683c-1.119,1.185,0.039,2.702,1.459,2.507
					c5.815-0.799,11.278,1.555,16.993,2.103c-0.432-0.752-0.863-1.505-1.295-2.257c-1.231,2.676-2.196,5.452-3.496,8.1
					c-0.486,0.989,0.092,2.271,1.295,2.257c11.056-0.129,26.622-8.294,32.933,4.766c0.369,0.764,1.371,0.889,2.052,0.538
					c8.673-4.464,17.448-3.484,25.301,2.175c1.044,0.752,2.651-0.497,2.203-1.694c-3.296-8.814-6.492-21.417,4.478-26.01
					c7.947-3.328,18.062-1.261,26.082,0.596c1.081,0.25,2.185-0.708,1.845-1.845c-1.986-6.657-6.073-18.999,3.382-21.634
					c6.54-1.823,14.601,0.146,21.196,0.792c1.054,0.103,1.596-1.029,1.446-1.899c-1.183-6.892-2.751-15.073,0.256-21.731
					c3.407-7.546,13.821-7.077,20.647-6.546c0.767,0.06,1.565-0.729,1.5-1.5c-0.648-7.68-0.333-16.632,9.316-16.582
					c5.945,0.031,11.926,2.413,17.679,3.686c6.153,1.361,12.438,1.84,18.486,3.7c9.516,2.927,10.741,10.408,7.717,19.075
					c-0.32,0.917,0.517,1.919,1.446,1.899c7.619-0.166,15.181-1.088,22.814-0.785c3.976,0.158,8.123,0.699,11.631,2.688
					c5.379,3.05,2.664,9.855,0.555,14.047c-0.708,1.408,0.687,2.671,2.052,2.052c10.734-4.863,22.065-5.844,33.315-2.158
					c1.571,0.515,2.31-1.438,1.459-2.507c-5.697-7.159-10.354-15.96-11.173-25.193c-1.071-12.068,9.535-14.257,19.305-12.976
					c0.655,0.086,1.28-0.522,1.446-1.101c2.074-7.218,0.719-15.191,0.713-22.582c-0.003-3.748,0.13-7.854,2.154-11.128
					c3.263-5.278,12.573-0.136,16.178,1.728c1.556,0.805,2.917-1.062,1.818-2.356c-8.191-9.638-15.384-23.279-4.505-33.744
					c8.951-8.61,24.143-8.988,35.637-7.55c1.192,0.149,1.785-1.365,1.295-2.257c-3.999-7.28-7.951-15.891-5.627-24.343
					c1.862-6.772,8.885-10.122,15.067-11.866c14.117-3.983,30.486-1.741,44.438,1.83c1.381,0.353,2.204-1.039,1.694-2.203
					c-7.632-17.432,20.096-26.281,31.246-16.532c6.563,5.738,9.775,13.47,19.357,14.075c12.039,0.76,46.613-4.462,37.769,17.36
					c0.982,0.133,1.964,0.266,2.946,0.399c-3.272-25.517,39.493-18.246,48.909-4.379c0.797,1.173,2.836,0.822,2.795-0.757
					c-0.55-21.123,29.801-21.98,44.771-21.603c1.008,0.025,1.661-0.973,1.446-1.899c-5.946-25.617,27.007-24.324,40.909-13.355
					c1.157,0.913,2.849,0.099,2.507-1.459c-5.95-27.128,30.715-31.555,47.544-19.84c1.246,0.867,2.838-0.821,2.052-2.052
					c-1.199-1.879-2.102-3.627-2.249-5.9c-0.321-4.994,6.887-3.541,9.017-3.115c4.443,0.89,7.194,5.177,9.364,8.744
					c3.291,5.41,5.742,11.226,10.724,15.358c4.419,3.666,10.094,3.511,15.457,2.872c5.285-0.63,9.085-0.252,12.238,4.603
					c4.497,6.925,1.179,15.505-3.389,21.344c-0.624,0.797-0.57,2.274,0.662,2.507c8.936,1.69,18.461,3.269,25.785,9.068
					c2.039,1.614,3.514,3.756,4.755,6.011c2,3.634-4.971,6.486-7.265,7.912c-5.184,3.221-10.883,5.633-16.417,8.172
					c-1.477,0.678-0.583,2.694,0.757,2.795c9.07,0.687,24.657,2.158,28.496,12.363c3.699,9.834-10.686,19.031-17.221,23.03
					c-1.168,0.715-0.809,2.991,0.757,2.795c6.838-0.853,13.016,0.126,18.81,4.012c-0.179-0.684-0.359-1.368-0.538-2.052
					c-3.58,6.389-9.588,9.262-16.29,11.446c-1.576,0.514-1.345,2.97,0.399,2.946c21.791-0.3,47.142-4.752,66.398,8.048
					c-0.179-0.684-0.359-1.368-0.538-2.052c-6.166,9.477-16.191,15.015-24.97,21.74c-1.217,0.932-0.782,2.617,0.757,2.795
					c8.436,0.976,16.973-0.337,25.441-0.009c5.073,0.197,9.972,1.266,14.329,3.929c6.683,4.085,10.974,15.005,3.285,20.102
					c-0.989,0.656-0.936,1.925,0,2.59c2.731,1.943,5.327,2.428,8.604,2.76c-0.5-0.5-1-1-1.5-1.5c0,36.575,0,73.15,0,109.724
					c0.5-0.5,1-1,1.5-1.5c-22.075,0-44.149,0-66.224,0c-57.609,0-115.218,0-172.828,0c-80.222,0-160.444,0-240.667,0
					c-89.913,0-179.827,0-269.74,0c-86.683,0-173.366,0-260.049,0c-70.531,0-141.062,0-211.593,0c-41.457,0-82.914,0-124.371,0
					c-5.788,0-11.576,0-17.364,0c0.5,0.5,1,1,1.5,1.5c8.467-64.912,16.934-129.824,25.401-194.735
					c4.478-34.33,8.956-68.659,13.434-102.989c0.25-1.914-2.753-1.89-3,0c-8.467,64.912-16.934,129.824-25.401,194.735
					c-4.478,34.33-8.956,68.659-13.434,102.989c-0.106,0.813,0.763,1.5,1.5,1.5c22.075,0,44.149,0,66.224,0
					c57.609,0,115.218,0,172.828,0c80.222,0,160.444,0,240.666,0c89.913,0,179.827,0,269.74,0c86.683,0,173.366,0,260.049,0
					c70.531,0,141.062,0,211.593,0c41.457,0,82.914,0,124.371,0c5.788,0,11.576,0,17.364,0c0.818,0,1.5-0.682,1.5-1.5
					c0-36.575,0-73.15,0-109.724c0-0.88-0.687-1.418-1.5-1.5c-2.777-0.281-4.814-0.731-7.09-2.351c0,0.863,0,1.727,0,2.59
					c11.184-7.415,3.88-21.763-5.939-26.768c-11.717-5.972-26.16-1.402-38.63-2.846c0.252,0.932,0.505,1.863,0.757,2.795
					c9.21-7.056,19.578-12.874,26.046-22.816c0.465-0.715,0.117-1.617-0.538-2.052c-19.768-13.139-45.56-8.765-67.913-8.457
					c0.133,0.982,0.266,1.964,0.399,2.946c7.435-2.423,14.143-5.794,18.083-12.825c0.419-0.747,0.15-1.591-0.538-2.052
					c-6.213-4.167-12.953-5.341-20.324-4.422c0.252,0.932,0.505,1.863,0.757,2.795c8.657-5.299,21.787-14.458,18.599-26.418
					c-3.172-11.9-21.662-13.829-31.389-14.566c0.252,0.932,0.505,1.863,0.757,2.795c9.148-4.198,18.232-8.343,25.782-15.138
					c0.374-0.337,0.549-0.981,0.386-1.459c-4.935-14.47-20.396-17.524-33.743-20.048c0.221,0.836,0.441,1.671,0.662,2.507
					c6.718-8.588,9.528-21.034,0.399-29.135c-3.094-2.745-7.595-2.367-11.37-1.934c-7.803,0.896-13.388-0.536-18.072-7.229
					c-5.287-7.554-8.328-19.069-19.142-20.105c-9.629-0.923-12.603,6.187-7.689,13.89c0.684-0.684,1.368-1.368,2.052-2.052
					c-19.29-13.428-58.457-6.437-51.951,23.228c0.836-0.486,1.671-0.973,2.507-1.459c-16.34-12.892-52.615-12.555-45.923,16.274
					c0.482-0.633,0.964-1.266,1.447-1.899c-16.767-0.422-48.378,1.329-47.771,24.603c0.932-0.252,1.863-0.505,2.795-0.757
					c-10.919-16.079-58.218-23.103-54.5,5.893c0.219,1.704,2.292,2.013,2.946,0.399c10.076-24.86-26.784-20.54-40.661-21.158
					c-7.596-0.338-11.426-7.04-16.116-12.094c-4.943-5.326-11.338-6.958-18.393-6.159c-12.744,1.443-24.47,12.009-18.685,25.224
					c0.565-0.734,1.129-1.469,1.694-2.203c-15.67-4.01-35.328-6.762-50.714-0.25c-17.603,7.45-14.29,24.953-6.552,39.038
					c0.432-0.752,0.863-1.505,1.295-2.257c-13.517-1.692-29.862-0.318-39.64,10.356c-10.329,11.275-1.729,26.511,6.386,36.059
					c0.606-0.785,1.212-1.571,1.818-2.356c-7.11-3.676-17.523-7.836-21.512,1.833c-3.841,9.312,0.22,20.599-1.522,30.312
					c-0.222,1.236-1.222,0.248-2.665,0.121c-2.065-0.182-4.125-0.043-6.174,0.214c-2.281,0.286-4.376,1.056-6.369,2.172
					c-3.401,1.904-5.442,5.805-5.907,9.566c-1.408,11.389,5.045,23.147,11.889,31.746c0.487-0.836,0.973-1.671,1.459-2.507
					c-12.047-3.947-24.159-2.734-35.626,2.461c0.684,0.684,1.368,1.368,2.052,2.052c12.953-25.75-22.974-20.783-37.591-20.464
					c0.482,0.633,0.964,1.266,1.446,1.899c2.622-7.517,2.991-14.98-3.935-20.044c-7.001-5.119-17.422-4.886-25.569-6.688
					c-7.045-1.558-14.419-4.614-21.725-3.099c-8.474,1.757-8.419,12.551-7.861,19.155c0.5-0.5,1-1,1.5-1.5
					c-8.214-0.639-17.697-0.434-22.731,7.113c-4.612,6.915-2.357,17.428-1.064,24.961c0.482-0.633,0.964-1.266,1.446-1.899
					c-7.887-0.773-18.293-3.437-25.624,0.811c-7.821,4.532-3.771,17.381-1.848,23.828c0.615-0.615,1.23-1.23,1.845-1.845
					c-9.819-2.273-21.865-4.396-31.037,1.06c-9.853,5.861-6.422,19.466-3.214,28.045c0.734-0.565,1.469-1.129,2.203-1.694
					c-8.713-6.279-18.769-7.096-28.33-2.175c0.684,0.179,1.368,0.359,2.052,0.538c-7.1-14.692-23.124-6.397-35.523-6.252
					c0.432,0.752,0.863,1.505,1.295,2.257c1.302-2.653,2.259-5.414,3.496-8.1c0.499-1.084-0.107-2.143-1.295-2.257
					c-6.119-0.586-11.575-2.85-17.791-1.996c0.486,0.836,0.973,1.671,1.459,2.507c5.977-6.328,15.231-16.916,3.44-22.395
					c0.179,0.684,0.359,1.368,0.538,2.052c1.53-3.115,2.379-6.405,3.394-9.714c0.221-0.721-0.256-1.713-1.048-1.845
					c-5.777-0.962-10.999-3.863-16.973-3.729c0.252,0.932,0.505,1.863,0.757,2.795c6.004-3.911,12.458-10.127,11.909-17.928
					c-0.598-8.487-11.438-8.595-17.51-7.79c0.354,0.854,0.707,1.707,1.061,2.561c3.711-3.859,15.442-15.062,7.717-20.669
					c-3.383-2.456-7.823-3.02-11.844-3.667c-6.526-1.05-13.052-1.808-19.41-3.694c0.299,0.734,0.598,1.469,0.896,2.203
					c4.211-9.386,3.091-16.324-7.456-18.95c-2.299-0.572-4.652-0.938-6.969-1.428c-2.357-0.499-4.966-2.047-7.341-2.123
					c-3.438-0.11-10.399,2.096-11.495-2.644c-0.686-2.965-0.969-5.816-2.363-8.566c-2.134-4.211-9.821-5.002-13.91-4.994
					c-5.21,0.01-9.923,2.697-13.762,5.979c-9.58,8.191-13.643,22.967-12.958,35.125c0.752-0.432,1.505-0.863,2.257-1.295
					c-10.156-6.095-41.15-15.24-35.21,7.163c0.615-0.615,1.23-1.23,1.845-1.845c-22.563-5.38-18.629,20.117-14.65,33.981
					c0.615-0.615,1.23-1.23,1.845-1.845c-10.898-4.217-23.211-6.357-32.108,2.836c-8.116,8.386-10.239,22.028-13.442,32.76
					c0.615-0.349,1.23-0.698,1.845-1.048c-9.98-2.498-19.937-4.213-30.254-3.425c-0.749,0.057-1.588,0.642-1.5,1.5
					c2.189,21.39,25.257,31.322,41.509,40.919c0.119-0.914,0.239-1.828,0.358-2.742c-5.965,1.446-11.89,3.005-17.959,3.961
					c0.385,0.914,0.771,1.828,1.156,2.742c6.198-3.411,12.533-5.146,19.59-5.546c1.926-0.109,1.94-2.925,0-3
					c-44.657-1.733-89.606,12.248-133.922,2.157c0.119,0.914,0.239,1.828,0.358,2.742c9.423-4.127,18.731-10.484,21.114-21.089
					c0.143-0.638-0.078-1.372-0.689-1.694c-8.041-4.237-16.366-4.893-25.317-3.973c0.252,0.932,0.505,1.863,0.757,2.795
					c12.179-6.628,10.822-21.796-2.817-25.276c0.119,0.914,0.239,1.828,0.358,2.742c6.379-2.969,11.672-8.115,10.745-15.645
					c-0.916-7.434-8.469-11.363-15.043-12.601c0,0.964,0,1.929,0,2.893c7.946-2.874,16.464-8.033,21.016-15.357
					c5.59-8.994-6.064-12.729-12.72-13.736c-0.133,0.982-0.266,1.964-0.399,2.946c6.98-0.541,18.8-1.383,19.716-10.503
					c0.955-9.511-4.389-19.315,5.897-25.614c8.064-4.938,19.024-6.41,21.75-16.899c3.083-11.861-6.585-20.295-17.352-21.706
					c0.252,0.932,0.505,1.863,0.757,2.795c9.312-6.467,33.321-33.832,8.563-35.187c0.5,0.5,1,1,1.5,1.5
					c1.379-12.249-1.71-24.681-12.429-31.801c-10.899-7.239-24.892-2.866-34.839,3.705c0.734,0.299,1.469,0.598,2.204,0.896
					c-2.255-13.41-9.795-24.537-23.724-27.231c-13.003-2.514-26.403,3.66-36.21,11.744c0.836,0.221,1.671,0.441,2.507,0.662
					c-5.668-19.349-13.052-44.44-34.715-50.961c-10.196-3.069-20.104,0.991-29.007,5.789c-9.322,5.023-20.456,12.627-24.826,22.695
					C-5.057,366.193-2.473,367.723-1.705,365.952z"/>
			</g>
		</g>
	</g>
	<g>
		<g>
			<path fill="#D6D1C4" d="M1323.757,317.295c8.283-4.377,16.437-8.662,25.65-10.697c2.489-0.55,5.027-0.892,7.554-1.209
				c1.709-0.214,4.158,1.156,5.759,1.64c2.687,0.812,6.043,1.247,8.606-0.199c3.011-1.699,5.339-4.245,7.885-6.542
				c4.614-4.162,10.905-3.114,16.507-1.989c4.287,0.861,8.467,1.869,12.868,1.589c4.535-0.289,8.606-2.643,13.195-2.832
				c9.469-0.389,8.746,9.253,14.711,13.153c3.865,2.527,9.127,2.352,13.552,2.15c4.912-0.224,10.013-1.086,14.856,0.127
				c7.456,1.869,7.236,11.136,6.806,17.202c-0.061,0.856,0.73,1.448,1.5,1.5c8.35,0.561,18.279,0.264,25.194,5.737
				c3.189,2.523,5.714,5.928,8.159,9.135c2.116,2.774,3.551,4.859,2.816,8.468c-0.294,1.443-0.288,3.372,0.827,4.523
				c3.49,3.603,8.849,3.501,12.247,6.988c3.411,3.5,7.8,5.845,11.078,9.483c9.216,10.225-0.274,23.684,5.085,35.026
				c1.278,2.705,2.903,4.333,5.572,5.631c5.579,2.713,9.547,8.023,11.767,13.728c3.903,10.031-2.847,19.799-6.279,28.87
				c-1.553,4.105-2.278,8.399-1.86,12.775c0.432,4.515,3.838,7.883,6.935,10.849c5.527,5.293,9.025,10.145,9.92,18.019
				c0.806,7.094,1.131,14.236,1.958,21.347c0.492,4.224,1.112,8.393,2.087,12.537c0.777,3.3,0.949,5.216-0.359,8.521
				c-0.52,1.313-1.144,2.897-0.823,4.352c1.488,6.738,10.829,6.26,12.036,12.562c1.979,10.329,0.143,21.863-0.156,32.284
				c-0.496,17.345-2.575,52.804,21.395,55.77c-0.5-0.5-1-1-1.5-1.5c1.022,9.059,5.217,18.258,2.246,27.306
				c-0.605,1.843,2.292,2.627,2.893,0.797c3.105-9.453-1.075-18.674-2.138-28.103c-0.101-0.894-0.614-1.39-1.5-1.5
				c-16.578-2.052-17.937-24.21-18.419-37.071c-0.574-15.332,1.859-30.857,0.431-46.137c-0.195-2.089-0.387-4.765-1.899-6.37
				c-3.938-4.18-12.785-4.713-9.307-12.375c2.191-4.827-0.096-9.18-1.026-14.141c-1.314-7.003-2.234-14.503-2.566-21.609
				c-0.286-6.119-0.651-11.736-3.193-17.398c-2.204-4.912-7.047-8.317-10.662-12.108c-8.131-8.526-0.246-20.851,3.358-29.637
				c5.379-13.114,0.788-28.224-12.42-34.648c-8.38-4.075-4.803-16.527-4.156-23.632c0.706-7.753-3.152-15.046-9.085-19.768
				c-2.856-2.274-5.737-4.385-8.296-7.01c-2.435-2.498-6.697-2.81-9.628-4.494c-4.007-2.302,0.67-6.49-1.55-9.497
				c-2.262-3.066-4.531-6.127-6.957-9.067c-8.506-10.309-19.63-10.798-32.228-11.644c0.5,0.5,1,1,1.5,1.5
				c0.424-5.974,0.443-12.971-4.139-17.478c-3.309-3.255-8.561-3.415-12.891-3.299c-5.677,0.152-11.45,1.22-17.056-0.144
				c-3.69-0.898-4.851-4.334-6.557-7.308c-1.654-2.883-3.999-4.958-7.025-6.302c-3.771-1.676-7.774-1.102-11.615-0.062
				c-6.202,1.679-10.966,1.985-17.334,0.644c-4.423-0.931-9.173-2.023-13.705-1.194c-3.857,0.706-6.374,2.716-9.181,5.359
				c-1.847,1.739-3.631,3.608-6.027,4.591c-2.493,1.022-5.799-0.368-8.192-1.16c-3.829-1.268-6.96-0.624-10.915,0.079
				c-10.02,1.782-18.929,6.587-27.827,11.289C1320.532,315.609,1322.048,318.198,1323.757,317.295L1323.757,317.295z"/>
		</g>
	</g>
	<g>
		<path fill="#D6D1C4" d="M1273,566c6.042-8.836,34.518-56.064,38.11-20.515c-2.806-18.329,24.612-37.986,37.883-21.637
			c13.427-12.881,25.175-6.962,34,9.644c13.752-12.764,25.7,7.081,28.309,19.897c14.037-9.042,20.176,5.865,21.904,17.964
			c14.883-7.575,27.19,7.198,23.612,21.897c2.501-21.183,23.296-13.348,26.534,2.537c11.536-6.395,23.561-0.131,28.053,11.608
			c6.806-9.233,21.324-14.73,23.786,0.263c8.557-0.078,13.968,5.24,14.15,13.787c2.205-2.121,5.631-3.064,7.651-4.926
			c4.05,4.287,10.598,22.301,12.071,25.933c3.506,8.646,13.344,17.357,5.975,29.691c-8.304,13.9-29.094,9.74-43.611,9.85
			c-37.511,0.286-74.636-0.407-112.043,2.555c-37.527,2.972-81.931,10.344-118.894,4.896c-46.226-6.813-21.186-41.289-27.491-73.445
			"/>
		<g>
			<path fill="#D6D1C4" d="M1274.295,566.757c5.47-8.056,10.63-16.289,17.028-23.667c2.963-3.417,6.529-7.432,10.939-8.922
				c5.885-1.99,6.939,7.679,7.348,11.318c1,0,2,0,3,0c-2.041-16.871,22-35.97,35.322-20.577c0.551,0.637,1.554,0.523,2.121,0
				c5.145-4.736,11.454-8.339,18.453-5.38c6.147,2.599,10.135,9.139,13.191,14.72c0.491,0.896,1.649,0.917,2.356,0.304
				c13.131-11.397,23.38,8.227,25.802,19.235c0.208,0.946,1.403,1.377,2.203,0.896c12.901-7.748,18.09,6.587,19.7,17.068
				c0.159,1.038,1.42,1.261,2.203,0.896c13.807-6.423,24.165,7.076,21.409,20.203c0.964,0.266,1.929,0.532,2.893,0.797
				c0.897-6.349,3.985-13.147,11.54-11.491c6.463,1.416,10.715,8.018,12.101,14.029c0.228,0.989,1.377,1.32,2.203,0.896
				c10.713-5.483,21.434,0.062,25.85,10.712c0.372,0.896,1.731,1.667,2.507,0.662c5.809-7.516,18.614-13.908,21.279-0.399
				c0.13,0.659,0.815,1.086,1.446,1.101c7.575,0.184,12.238,4.718,12.65,12.287c0.074,1.369,1.55,1.903,2.561,1.061
				c2.354-1.96,5.251-3.025,7.651-4.926c-0.707,0-1.414,0-2.121,0c5.654,6.498,8.242,16.419,11.311,24.323
				c4.273,11.005,14.349,20.594,4.545,32.144c-7.322,8.626-21.763,7.115-31.816,6.68c-14.63-0.633-29.344-0.158-43.986-0.11
				c-31.852,0.104-63.583,0.984-95.292,4.146c-29.393,2.931-58.988,6.653-88.567,4.475c-10.352-0.762-21.857-1.843-30.579-8.028
				c-6.043-4.285-7.974-11.495-8.26-18.521c-0.645-15.841,4.093-31.215,1.159-47.088c-0.351-1.901-3.242-1.093-2.893,0.797
				c3.219,17.41-3.371,34.733-0.71,52.048c3.109,20.236,26.452,22.699,42.979,23.916c29.531,2.174,59.268-1.848,88.606-4.773
				c31.777-3.169,63.607-3.876,95.523-3.98c16.188-0.053,32.338-0.065,48.516,0.352c10.697,0.276,22.344-0.758,29.187-10.003
				c8.651-11.688-1.014-21.573-5.313-32.333c-3.422-8.566-6.134-19.099-12.287-26.169c-0.581-0.668-1.517-0.479-2.121,0
				c-2.399,1.9-5.286,2.956-7.651,4.926c0.854,0.354,1.707,0.707,2.561,1.061c-0.501-9.217-6.388-15.062-15.65-15.287
				c0.482,0.367,0.964,0.734,1.446,1.101c-3.098-15.702-18.928-10.456-26.293-0.925c0.836,0.221,1.671,0.441,2.507,0.662
				c-5.176-12.484-17.695-18.934-30.257-12.505c0.734,0.299,1.469,0.598,2.203,0.896c-1.741-7.546-7.139-14.578-14.985-16.297
				c-8.801-1.928-13.393,6.334-14.442,13.759c-0.263,1.86,2.487,2.73,2.893,0.797c3.334-15.881-9.601-31.134-25.816-23.591
				c0.734,0.299,1.469,0.598,2.203,0.896c-1.964-12.784-9.388-27.701-24.107-18.86c0.734,0.299,1.469,0.598,2.203,0.896
				c-3.009-13.673-15.69-33.688-30.816-20.559c0.785,0.101,1.571,0.202,2.356,0.304c-3.848-7.028-8.797-14.05-16.692-16.736
				c-7.312-2.487-14.503,2.037-19.664,6.788c0.707,0,1.414,0,2.121,0c-14.967-17.294-42.802,3.195-40.443,22.698
				c0.229,1.89,3.217,1.927,3,0c-0.517-4.59-1.298-12.174-6.467-14.131c-4.244-1.607-8.472,1.546-11.541,4.144
				c-9.522,8.061-15.972,19.546-22.897,29.745C1270.615,566.848,1273.215,568.347,1274.295,566.757L1274.295,566.757z"/>
		</g>
	</g>
</g>
<g id="owen">
	<g>
		<path fill="#B5B3AA" d="M-279,489.983l319.011,22.708c68.825-4.261,139.72,4.402,208.698,6.601
			c56.792,1.811,114.487,0.109,171.136-4.281c41.158-3.19,82.362-6.043,123.208-10.959c41.66-5.014,80.869-24.63,119.322-40.529
			c-21.575,24.707-53.462,38.019-83.626,49.347c43.12-3.84,86.873,1.029,130.029,4.322c34.301,2.617,69.044,2.182,103.433,3.82
			c27.326,1.302,57.909-0.132,84.628,6.182c-38.893,1.687-79.02,9.377-118.298,11.981c-32.586,2.161-65.14-0.345-97.771,1.847
			c-46.201,3.104-92.48,5.292-138.787,6.066c-99.022,1.656-198.305-2.545-297.282,3.152c-49.101,2.826-98.846,3.892-148.053,3.176
			c-16.753-0.244-36.189,2.053-52.549-0.859c5.897,4.982,14.679,9.001,20.972,13.222c-23.563,6.558-53.999-6.497-77.906-8.961
			c-14.347-1.479-29.07-2.389-43.458-3.143c-10.472-0.549-36.411,3.877-45.22-2.557c-9.886-7.22-175.734,12.839-173.67,0.535"/>
	</g>
	<g>
		<g>
			<path fill="#EC3D82" d="M448.655,406.462c-8.423-13.795-12.926-23.691-20.15-38.859c-7.196-15.113-10.075-18.713-20.171-38.27
				c-3.524,7.358-3.579,21.016-3.579,29.63c0,10.577,0.662,18.496,3.383,28.611c2.877,10.684,8.229,23.016,15.524,31.661
				c8.66,10.265,16.971,11.171,28.59,15.295"/>
			<path fill="#525353" d="M479.602,486.341c0,14.2,1.805,30.245-0.405,44.104c-4.785,0.304-9.784,0.293-14.544,0
				c-0.572-1.774-0.399-4.56,0.243-6.158c2.554,0.253,5.521-0.525,8.065-0.325c0.782-12.348-0.795-24.382-0.915-36.541"/>
			<path fill="#525353" d="M513.068,486.341c0,14.2,1.805,30.245-0.403,44.104c-4.79,0.304-9.788,0.293-14.546,0
				c-0.572-1.774-0.399-4.56,0.24-6.158c2.558,0.253,5.521-0.525,8.065-0.325c0.782-12.348-0.795-24.382-0.917-36.541"/>
			<path fill="#EC3D82" d="M467.707,320.041c9.611,2.151,20.325,1.137,30.271,1.137c8.491,0,19.188,1.559,26.941-1.082
				c9.758-3.324,11.522-11.779,14.896-19.342c3.632,31.504,11.028,61.938,11.028,94.967c0,29.507,3.058,59.702,0.898,89.361
				c-17.144,8.223-48.587,4.553-67.817,4.499c-13.232-0.034-41.025,2.164-43.184-5.397c-6.139-21.478-2.158-50.003-2.158-72.265
				c0-22.073-0.702-45.603,3.182-66.987c2.565-14.116,7.523-29.168,8.693-43.182C450.458,301.749,457.599,317.774,467.707,320.041z"
				/>
			<g>
				<path fill="#FFFFFF" d="M521.764,363.221c-4.387-1.691-6.985-6.382-7.865-12.49c-0.34-2.398,0.025-6.909,0.774-9.364
					c0.759-2.495,3.41-6.939,6.517-9.1c0,0,2.775-2.689,7.78-2.729c-1.185-0.818-2.567-1.485-4.195-1.942
					c-8.74-2.109-13.704,2.708-13.704,2.708c-3.693,2.567-6.835,7.848-7.742,10.809c-0.888,2.915-1.327,8.267-0.92,11.112
					c1.042,7.261,4.129,12.829,9.343,14.837c4.039,1.563,11.95,1.542,16.507-3.159C525.792,364.17,523.402,363.851,521.764,363.221z
					"/>
				<path fill="#525353" d="M535.202,344.421c-0.063-5.842-1.491-11.621-6.232-14.888c-5.005,0.042-7.78,2.729-7.78,2.729
					c-3.107,2.162-5.755,6.608-6.517,9.1c-0.749,2.457-1.114,6.968-0.774,9.364c0.882,6.108,3.478,10.798,7.865,12.49
					c1.637,0.631,4.028,0.949,6.496,0.677c0.291-0.297,0.565-0.612,0.82-0.947C533.393,357.4,535.274,351.265,535.202,344.421z"/>
			</g>
			<g>
				<path fill="#FFFFFF" d="M465.632,363.221c-4.391-1.691-6.985-6.382-7.869-12.49c-0.34-2.398,0.027-6.909,0.774-9.364
					c0.761-2.495,3.412-6.939,6.517-9.1c0,0,2.778-2.689,7.78-2.729c-1.183-0.818-2.56-1.485-4.191-1.942
					c-8.744-2.109-13.711,2.708-13.711,2.708c-3.689,2.567-6.835,7.848-7.736,10.809c-0.888,2.915-1.327,8.267-0.92,11.112
					c1.044,7.261,4.129,12.829,9.343,14.837c4.043,1.563,11.943,1.542,16.505-3.159C469.66,364.17,467.267,363.851,465.632,363.221z
					"/>
				<path fill="#525353" d="M479.069,344.421c-0.063-5.842-1.493-11.621-6.232-14.888c-5.005,0.042-7.78,2.729-7.78,2.729
					c-3.104,2.162-5.755,6.608-6.517,9.1c-0.747,2.457-1.114,6.968-0.774,9.364c0.882,6.108,3.478,10.798,7.869,12.49
					c1.634,0.631,4.028,0.949,6.492,0.677c0.291-0.297,0.567-0.612,0.827-0.947C477.259,357.4,479.14,351.265,479.069,344.421z"/>
			</g>
			<path fill="#EC3D82" d="M523.506,489.943c21.246,0,42.543-0.403,63.796,0.04c-5.682-3.621-13.555-5.37-19.122-8.514
				c6.861-0.628,14.843-1.099,21.641-0.888c-2.803-1.964-14.613-6.702-19.536-7.909c6.31-2.67,14.107-5.433,20.154-8.639
				c-6.943,0.517-12.232,0-21.9,0.162c-10.982,0.177-22.503-0.162-33.519-0.162L523.506,489.943z"/>
			<path fill="none" stroke="#58595B" stroke-width="0.82" d="M521.342,412.215c0,25.319,1.251,69.446,30.117,79.132
				c0.472-7.837,0.11-15.845,0.11-23.714"/>
			<path fill="#525353" d="M482.865,368.008c-4.25,3.509-11.309,8.295-16.336,9.988c1.221,2.613,6.289,5.812,8.554,7.706
				c2.189,1.831,4.473,3.497,6.551,5.308L482.865,368.008z"/>
		</g>
	</g>
</g>
<g id="message">
</g>
</svg>
